<?xml version="1.0" encoding="utf-8"?>
<svg width="14px" height="12px" viewBox="0 0 14 12" version="1.1" xmlns:xlink="http://www.w3.org/1999/xlink" xmlns="http://www.w3.org/2000/svg">
  <desc>Created with Lunacy</desc>
  <path d="M7.74195 0.139803C7.48043 -0.0635469 7.10227 -0.0450605 6.86195 0.195262L6.80649 0.258067C6.60314 0.519594 6.62163 0.897749 6.86195 1.13807L11.0568 5.33334L0.666667 5.33334L0.588919 5.33783C0.25736 5.37634 0 5.65812 0 6.00001C0 6.3682 0.298477 6.66668 0.666667 6.66668L11.0567 6.66668L6.86195 10.8619L6.80649 10.9247C6.60314 11.1863 6.62163 11.5644 6.86195 11.8047C7.1223 12.0651 7.54441 12.0651 7.80476 11.8047L13.1381 6.4714L13.1382 6.47131C13.1577 6.45177 13.176 6.43103 13.193 6.4092L13.1936 6.4086C13.235 6.35523 13.2673 6.297 13.2903 6.23608C13.3125 6.17766 13.3266 6.11532 13.3315 6.05039C13.334 6.01608 13.334 5.98161 13.3313 5.94731C13.3265 5.8864 13.3136 5.82778 13.2935 5.77257C13.2613 5.68353 13.2095 5.59998 13.1381 5.5286L7.80476 0.195262L7.74195 0.139803Z" id="Combined-Shape-Copy" fill="#FFFFFF" fill-rule="evenodd" stroke="none" />
</svg>