<?xml version="1.0" encoding="UTF-8"?>
<svg width="94px" height="202px" viewBox="0 0 94 202" version="1.1" xmlns="http://www.w3.org/2000/svg" xmlns:xlink="http://www.w3.org/1999/xlink">
    <title>Recurso 2</title>
    <g id="Page-1" stroke="none" stroke-width="1" fill="none" fill-rule="evenodd">
        <g id="Desktop-HD" transform="translate(-1273.000000, -1380.000000)" fill="#EE7623" fill-rule="nonzero">
            <g id="Recurso-2" transform="translate(1273.000000, 1380.025489)">
                <path d="M36.54,149.227845 C36.4749991,150.338136 36.5387569,151.452219 36.73,152.547845 C37.0921977,153.592257 37.5969711,154.581612 38.23,155.487845 C38.7035298,156.48587 39.3349763,157.400961 40.1,158.197845 C40.9269925,158.92864 41.8788557,159.5045 42.91,159.897845 C43.9426733,160.264203 45.0348561,160.433797 46.13,160.397845 C47.4940164,160.522785 48.8678098,160.309847 50.13,159.777845 C51.307391,159.065731 52.3198028,158.111268 53.1,156.977845 C53.87,155.977845 55,155.537845 55.82,156.507845 L57.53,158.507845 C58.38,159.507845 58.14,159.727845 58.99,160.747845 C59.8631671,161.720647 59.8631671,163.195042 58.99,164.167845 C58.0517483,164.958074 57.0481499,165.667283 55.99,166.287845 C55.0380013,167.092116 54.0174411,167.811527 52.94,168.437845 C51.7609941,168.835892 50.5448351,169.113967 49.31,169.267845 C48.1274574,169.641547 46.9062991,169.87974 45.67,169.977845 C44.5202296,169.874568 43.3822191,169.667048 42.27,169.357845 C41.131628,169.222459 40.0094768,168.974581 38.92,168.617845 C37.8222954,168.246023 36.7638584,167.767047 35.76,167.187845 C34.7829464,166.563845 33.8657058,165.850808 33.02,165.057845 C32.2346869,164.207095 31.52844,163.286631 30.91,162.307845 C30.2212587,161.376013 29.6156031,160.385548 29.1,159.347845 C28.5495445,158.332285 28.0781496,157.275826 27.69,156.187845 C27.4353822,155.062077 27.2649113,153.918919 27.18,152.767845 C27.0014949,151.636268 26.9045784,150.493322 26.89,149.347845 C26.8715603,148.198121 26.9350544,147.048544 27.08,145.907845 C27.2715629,144.778349 27.5490351,143.665117 27.91,142.577845 C28.1942569,141.459341 28.5688198,140.365751 29.03,139.307845 C29.6390777,138.323583 30.3316264,137.393494 31.1,136.527845 C31.8544172,135.671625 32.6844387,134.885113 33.58,134.177845 C34.3672783,133.363279 35.2312775,132.626535 36.16,131.977845 C37.0813516,131.289788 38.0657383,130.690451 39.1,130.187845 C40.2337504,129.930649 41.388469,129.776686 42.55,129.727845 C43.6588408,129.412558 44.7931807,129.195059 45.94,129.077845 C47.1343381,129.099703 48.3235344,129.240397 49.49,129.497845 C50.6474889,129.766398 51.7786565,130.137876 52.87,130.607845 C53.9847971,131.005323 55.0650903,131.493629 56.1,132.067845 C57.0294598,132.815419 57.892663,133.641819 58.68,134.537845 C59.650142,135.434993 59.8318123,136.901031 59.11,138.007845 C58.25,139.137845 58.31,139.187845 57.45,140.317845 C56.59,141.447845 56.29,141.217845 55.45,142.317845 C54.68,143.317845 53.96,143.127845 53.39,141.987845 C53.0636488,141.026957 52.5351079,140.147193 51.84,139.407845 C51.0310692,138.804474 50.0931199,138.397116 49.1,138.217845 C48.1059848,138.08279 47.1008024,138.049284 46.1,138.117845 C45.0077124,138.118181 43.9253481,138.325153 42.91,138.727845 C41.921472,139.168555 41.025608,139.792945 40.27,140.567845 C39.3694871,141.197437 38.578893,141.971139 37.93,142.857845 C37.5007165,143.871258 37.2081505,144.937275 37.06,146.027845 C36.7560371,147.069138 36.5813908,148.143884 36.54,149.227845 Z" id="Path"></path>
                <path d="M39.32,32.0778448 C40.37,33.3378448 40.32,33.3678448 41.39,34.6378448 C42.46,35.9078448 42.47,35.8878448 43.52,37.1578448 C44.57,38.4278448 44.45,38.5278448 45.52,39.7978448 C46.59,41.0678448 46.52,41.1578448 47.52,42.4278448 L49.6,44.9778448 C50.66,46.2578448 50.74,46.1878448 51.79,47.4578448 C52.46,48.2878448 52.97,48.1178448 52.97,47.1178448 C52.97,45.0578448 52.97,45.0578448 52.97,43.0078448 C52.97,40.9578448 52.87,40.9478448 52.87,38.8878448 C52.9651647,37.6628815 52.9148135,36.4309562 52.72,35.2178448 C52.3,33.8278448 52.18,33.8578448 51.72,32.4778448 C51.5336893,32.038426 51.5932507,31.5332879 51.8766556,31.1492537 C52.1600604,30.7652196 52.6251832,30.5593727 53.1,30.6078448 C55.1,30.6078448 55.1,30.7478448 57.01,30.7478448 C58.92,30.7478448 59.01,30.8878448 60.92,30.8878448 C62.02,30.8878448 62.74,31.5878448 62.46,32.5378448 C62.05,33.9178448 62.21,33.9678448 61.79,35.3578448 C61.4019352,36.4980303 61.1698323,37.6854553 61.1,38.8878448 C61.1,40.6478448 61.32,40.6478448 61.32,42.4178448 C61.32,44.1878448 61.04,44.1778448 61.04,45.9478448 C61.04,47.7178448 61.16,47.7078448 61.16,49.4778448 C61.16,51.2478448 60.95,51.2478448 60.95,53.0078448 C61.0177207,54.2317184 61.2291736,55.4433775 61.58,56.6178448 C61.97,57.8978448 62.04,57.8778448 62.44,59.1578448 C62.5972245,59.6294172 62.5139293,60.1480708 62.2169515,60.5466987 C61.9199737,60.9453266 61.4468433,61.173553 60.95,61.1578448 C59.6,61.1578448 59.6,61.1578448 58.24,61.1578448 C56.88,61.1578448 56.88,61.2378448 55.52,61.2378448 C54.2178966,61.1511345 52.9964992,60.5761491 52.1,59.6278448 C51.1,58.3678448 51.24,58.2078448 50.19,56.9478448 C49.14,55.6878448 49.08,55.7378448 48.03,54.4678448 C46.98,53.1978448 47.1,53.0678448 46.1,51.7978448 C45.1,50.5278448 45.03,50.5478448 43.98,49.2778448 C42.93,48.0078448 42.67,48.2778448 41.61,46.9678448 C40.55,45.6578448 40.83,45.4678448 39.77,44.2078448 C39.11,43.4278448 38.71,43.6978448 38.71,44.6878448 C38.71,46.7678448 38.54,46.7678448 38.54,48.8478448 C38.54,50.9278448 38.63,50.9278448 38.63,53.0078448 C38.5456157,54.2136893 38.6026706,55.4252667 38.8,56.6178448 C39.21,57.9178448 39.14,57.9378448 39.54,59.2478448 C39.82,60.2478448 39.47,61.0678448 38.33,61.0678448 C36.33,61.0678448 36.33,60.7178448 34.39,60.7178448 C32.45,60.7178448 32.39,61.0278448 30.46,61.0278448 C29.9877445,61.1002296 29.5141567,60.9056724 29.2291734,60.5222023 C28.9441901,60.1387321 28.8944878,59.6291563 29.1,59.1978448 C29.51,57.8978448 29.48,57.8878448 29.88,56.5878448 C30.1530209,55.4042896 30.2839451,54.1924019 30.27,52.9778448 C30.27,51.2178448 30.58,51.2178448 30.58,49.4578448 C30.58,47.6978448 30.1,47.7178448 30.1,45.9778448 C30.1,44.2378448 30.26,44.2078448 30.26,42.4378448 C30.26,40.6678448 30.21,40.6778448 30.21,38.9078448 C30.1933698,37.6963452 30.0322306,36.4911583 29.73,35.3178448 C29.3,33.9378448 29.25,33.9478448 28.83,32.5578448 C28.54,31.5578448 29.28,30.9178448 30.38,30.9178448 C31.76,30.9178448 31.76,31.0878448 33.14,31.0878448 C34.52,31.0878448 34.53,30.8678448 35.91,30.8678448 C37.1578643,30.8313309 38.3742481,31.262951 39.32,32.0778448 L39.32,32.0778448 Z" id="Path"></path>
                <path d="M62.1,109.377845 C62.44,110.377845 62.61,110.307845 62.95,111.287845 C63.29,112.267845 63.03,113.227845 62.49,113.227845 C60.72,113.227845 60.72,112.877845 58.94,112.877845 C57.16,112.877845 57.16,112.807845 55.38,112.807845 C53.6,112.807845 53.6,113.357845 51.82,113.357845 C51.29,113.357845 51.36,112.357845 51.7,111.407845 C52.04,110.457845 52.04,110.467845 52.38,109.527845 C52.626897,108.317772 52.7043051,107.079242 52.61,105.847845 C52.61,105.077845 52.76,105.077845 52.76,104.317845 C52.76,103.317845 52.98,102.257845 52.98,101.947845 C52.98,101.637845 51.87,101.247845 50.71,101.247845 C49.14,101.247845 49.14,101.497845 47.56,101.497845 C45.98,101.497845 45.99,101.557845 44.41,101.557845 C42.83,101.557845 42.83,101.647845 41.25,101.647845 C40.09,101.647845 39.17,102.207845 39.17,103.217845 C39.17,104.487845 39.38,104.487845 39.38,105.757845 C39.3386109,106.973567 39.4699194,108.189013 39.77,109.367845 C40.11,110.367845 40.24,110.307845 40.58,111.297845 C40.92,112.287845 40.67,112.847845 40.14,112.847845 C38.37,112.847845 38.37,113.337845 36.59,113.337845 C34.81,113.337845 34.81,112.837845 33.03,112.837845 C31.25,112.837845 31.25,112.927845 29.47,112.927845 C28.94,112.927845 28.61,112.227845 28.95,111.267845 C29.29,110.307845 29.73,110.477845 30.07,109.537845 C30.3437334,108.328138 30.4480642,107.086266 30.38,105.847845 L30.38,104.317845 C30.38,103.317845 30.56,101.687845 30.56,100.627845 C30.56,99.3278448 30.29,99.3278448 30.29,98.0178448 C30.29,96.7078448 30.56,96.7178448 30.56,95.4178448 C30.56,94.4178448 30.46,92.7378448 30.46,91.7278448 C30.46,90.7178448 30.19,90.8078448 30.19,89.8878448 C30.2580968,88.672594 30.153727,87.4538234 29.88,86.2678448 C29.54,85.2678448 29.67,85.2678448 29.33,84.2678448 C28.99,83.2678448 28.94,82.3978448 29.47,82.3978448 C31.25,82.3978448 31.25,82.4878448 33.03,82.4878448 C34.81,82.4878448 34.8,82.4878448 36.58,82.4878448 L40.1,82.4878448 C40.63,82.4878448 41.04,83.4878448 40.7,84.4878448 C40.36,85.4878448 40.17,85.3678448 39.84,86.3078448 C39.5692034,86.9967675 39.3518935,87.705532 39.19,88.4278448 C39.19,90.8478448 39.25,90.8478448 39.25,93.2578448 C39.2536357,93.7713899 39.4717286,94.2600469 39.8515587,94.6056924 C40.2313889,94.9513378 40.7383885,95.1225149 41.25,95.0778448 C42.83,95.0778448 42.83,94.9778448 44.4,94.9778448 C45.97,94.9778448 45.98,94.8478448 47.56,94.8478448 C49.14,94.8478448 49.14,94.8478448 50.71,94.8478448 C51.87,94.8478448 52.94,94.7578448 52.94,94.3678448 C52.94,93.0678448 52.94,93.0678448 52.94,91.7778448 C52.94,90.8578448 52.94,90.8578448 52.94,89.9378448 C52.7724756,88.7236133 52.4358792,87.5387938 51.94,86.4178448 C51.58,85.4178448 51.78,85.3578448 51.42,84.4178448 C51.06,83.4778448 51.27,82.7278448 51.8,82.7278448 L55.36,82.7278448 C57.14,82.7278448 57.14,82.7278448 58.92,82.7278448 C60.7,82.7278448 60.7,82.6678448 62.47,82.6678448 C63.01,82.6678448 63.1,83.4678448 62.76,84.4278448 C62.42,85.3878448 62.28,85.3178448 61.94,86.2678448 C61.7082257,86.9825306 61.5802537,87.726789 61.56,88.4778448 C61.56,90.2178448 61.77,90.2178448 61.77,91.9578448 C61.77,93.6978448 61.24,93.6978448 61.24,95.4378448 C61.24,97.1778448 61.45,97.1778448 61.45,98.9178448 C61.45,100.657845 61.39,100.667845 61.39,102.407845 C61.39,104.147845 61.62,104.147845 61.62,105.887845 C61.6209035,107.067569 61.7823859,108.24168 62.1,109.377845 L62.1,109.377845 Z" id="Path"></path>
                <path d="M44.85,201.397845 C43.7861987,201.422995 42.722922,201.329078 41.68,201.117845 C40.073635,200.726501 38.5120085,200.170214 37.02,199.457845 C35.5459577,198.75158 34.1342639,197.921959 32.8,196.977845 C31.841982,196.293002 30.9392084,195.534003 30.1,194.707845 L29.1,193.817845 C28.7,193.457845 28.27,193.117845 27.84,192.817845 C26.9810344,192.177202 26.1781383,191.464631 25.44,190.687845 C24.7457886,189.89156 24.1012372,189.053309 23.51,188.177845 C23.2,187.737845 22.88,187.287845 22.51,186.847845 C22.14,186.407845 21.75,185.917845 21.33,185.437845 C20.6533803,184.710727 20.0348178,183.931672 19.48,183.107845 C19.001628,182.329943 18.6029433,181.505771 18.29,180.647845 C18.0393753,180.002059 17.7522455,179.371041 17.43,178.757845 L16.58,177.317845 C16.07,176.467845 15.53,175.577845 15.06,174.627845 C14.59,173.677845 14.24,172.797845 13.87,171.887845 C13.65,171.347845 13.42,170.797845 13.18,170.247845 C12.68,169.097845 12.18,167.897845 11.77,166.727845 L11.42,165.837845 C11.18,165.227845 10.89,164.627845 10.57,163.997845 C10.153555,163.183888 9.78623081,162.345721 9.47,161.487845 C9.17,160.617845 8.93,159.717845 8.71,158.847845 C8.54,158.207845 8.37,157.557845 8.17,156.907845 C7.97,156.257845 7.76,155.677845 7.54,155.057845 C7.24,154.207845 6.92,153.317845 6.67,152.397845 C6.45944703,151.547488 6.2958662,150.686185 6.18,149.817845 C6.07,149.087845 5.96,148.397845 5.8,147.717845 C5.62070598,147.037225 5.39689068,146.36912 5.13,145.717845 C4.797584,144.892365 4.52684158,144.04337 4.32,143.177845 C4.08,142.047845 3.87,140.907845 3.67,139.747845 L3.44,138.507845 C3.32,137.887845 3.19,137.257845 3.06,136.627845 C2.86,135.727845 2.67,134.787845 2.52,133.847845 C2.37,132.907845 2.3,132.077845 2.23,131.207845 C2.18,130.507845 2.12,129.807845 2.03,129.117845 C1.94,128.427845 1.82,127.777845 1.7,127.117845 C1.54,126.247845 1.38,125.357845 1.28,124.447845 C1.18,123.537845 1.1,122.447845 1.03,121.447845 C1.03,120.857845 0.94,120.267845 0.89,119.667845 C0.824820346,118.802404 0.824820346,117.933286 0.89,117.067845 C0.934400415,116.348529 0.934400415,115.62716 0.89,114.907845 C0.89,114.217845 0.74,113.527845 0.64,112.797845 C0.54,112.067845 0.4,111.077845 0.36,110.187845 C0.36,109.507845 0.28,108.837845 0.23,108.187845 C0.16,107.307845 0.09,106.387845 0.07,105.467845 C0.07,104.867845 0.07,104.267845 0.07,103.667845 C0.07,102.667845 0,101.667845 0,100.667845 C0.0226236252,99.792188 0.112892441,98.9195895 0.27,98.0578448 C0.432686051,97.3734858 0.546308188,96.6783856 0.61,95.9778448 C0.607199888,95.2575348 0.547009416,94.5385931 0.43,93.8278448 C0.282006404,92.9693602 0.215045149,92.0988639 0.23,91.2278448 C0.288964689,90.3355077 0.419382571,89.4493349 0.62,88.5778448 C0.778054416,87.8824508 0.891618033,87.1776884 0.96,86.4678448 C1.05,85.0378448 1.17,83.6178448 1.3,82.2078448 L1.3,81.7478448 C1.35,81.1178448 1.39,80.4978448 1.44,79.8778448 C1.5,78.8778448 1.57,77.9678448 1.67,77.0178448 C1.73763262,76.2999462 1.76434249,75.5787796 1.75,74.8578448 C1.73077198,73.989457 1.77086524,73.1207697 1.87,72.2578448 C2,71.2578448 2.17,70.3678448 2.34,69.4478448 C2.45,68.8178448 2.56,68.1978448 2.66,67.5778448 C2.81,66.6678448 3.02,65.7978448 3.23,64.9478448 C3.39,64.2678448 3.55,63.5978448 3.68,62.9478448 C3.81,62.2978448 3.88,61.5678448 3.96,60.8278448 C4.03648252,59.9590198 4.15663444,59.0945935 4.32,58.2378448 C4.67,56.6178448 4.99,55.0878448 5.32,53.5978448 C5.59,52.4678448 5.9,51.3678448 6.2,50.2678448 L6.62,48.7578448 C7.01,47.3278448 7.42,45.8378448 7.86,44.4178448 C8.16,43.4178448 8.51,42.4878448 8.86,41.5578448 C9.06,41.0178448 9.26,40.4678448 9.45,39.9278448 C9.82,38.8578448 10.24,37.8278448 10.64,36.8278448 C10.82,36.3778448 11,35.9278448 11.17,35.4878448 C11.42,34.8478448 11.63,34.2078448 11.83,33.5578448 C12.11,32.7078448 12.39,31.8278448 12.76,30.9878448 C13.13,30.1478448 13.68,29.0678448 14.15,28.1578448 C14.41,27.6778448 14.66,27.1578448 14.9,26.7078448 C15.3366312,25.875285 15.8346759,25.0764078 16.39,24.3178448 C16.7788568,23.7907371 17.1393673,23.2432952 17.47,22.6778448 C17.79,22.1078448 18.08,21.4978448 18.36,20.9078448 C18.7526312,20.0568235 19.1933427,19.22882 19.68,18.4278448 C20.32,17.4278448 21.02,16.5478448 21.68,15.6878448 L22.53,14.5878448 C23.53,13.3078448 24.53,12.0678448 25.58,10.8978448 C26.6936161,9.69794997 27.8685173,8.55642666 29.1,7.47784482 C29.48,7.14784482 29.84,6.80784482 30.19,6.47784482 C30.9881685,5.68490212 31.8474866,4.95598635 32.76,4.29784482 C34.1376748,3.40184896 35.589663,2.62567091 37.1,1.97784482 C38.4586159,1.411096 39.8730589,0.988774172 41.32,0.717844824 L41.77,0.617844824 C43.364265,0.254035521 44.994759,0.072869522 46.63,0.0778448238 C47.09,0.0778448238 47.56,0.0778448238 48.02,0.0778448238 C49.2122944,-0.0526176754 50.4168475,-0.0189709417 51.6,0.177844824 C52.7126067,0.47852236 53.7815212,0.922222697 54.78,1.49784482 C55.22,1.72784482 55.67,1.95784482 56.13,2.16784482 C57.6279273,2.79414836 59.0698026,3.54686751 60.44,4.41784482 L61.17,4.90784482 C62.2995922,5.61472362 63.3758129,6.40350655 64.39,7.26784482 C65.5745437,8.35993515 66.6995013,9.51493616 67.76,10.7278448 C68.76,11.7878448 69.68,12.9678448 70.76,14.4578448 C71.3671827,15.2917588 71.9312549,16.1562245 72.45,17.0478448 C72.74,17.5278448 73.03,18.0478448 73.34,18.4978448 C73.65,18.9478448 74.07,19.4978448 74.48,20.0378448 C75.0866987,20.7868216 75.6381518,21.5789088 76.13,22.4078448 C76.98,23.9178448 77.71,25.2978448 78.37,26.6278448 C78.78,27.4678448 79.12,28.3478448 79.44,29.2078448 C79.67,29.8178448 79.9,30.4478448 80.17,31.0578448 C80.44,31.6678448 80.65,32.1078448 80.9,32.6378448 C81.32,33.5278448 81.75,34.4478448 82.12,35.4078448 C82.435726,36.2456958 82.693009,37.1044195 82.89,37.9778448 C83.0336734,38.6547887 83.2173286,39.3226254 83.44,39.9778448 C83.86,41.2078448 84.25,42.4878448 84.63,43.7278448 L84.87,44.5078448 C85.05,45.0778448 85.24,45.6378448 85.43,46.2178448 C85.73,47.1178448 86.05,48.0578448 86.31,49.0278448 C86.5058224,49.7083143 86.7429285,50.3762187 87.02,51.0278448 C87.3697467,51.8494349 87.6604835,52.6949108 87.89,53.5578448 C88.14,54.6178448 88.37,55.6878448 88.59,56.7778448 L88.89,58.2078448 C89.07,59.0778448 89.2,59.9778448 89.32,60.8378448 C89.41,61.5278448 89.5,62.2178448 89.63,62.8978448 C89.76,63.5778448 89.92,64.2278448 90.1,64.8978448 C90.28,65.5678448 90.53,66.6078448 90.68,67.5078448 C90.7891585,68.3700836 90.8392752,69.2387733 90.83,70.1078448 C90.8122159,70.8293036 90.8456331,71.5511152 90.93,72.2678448 L91.1,73.3878448 C91.27,74.5878448 91.43,75.7878448 91.57,77.0078448 C91.64,77.6878448 91.76,78.3678448 91.88,79.0878448 C92,79.8078448 92.18,80.8078448 92.26,81.7078448 C92.34,82.6078448 92.38,83.5478448 92.42,84.4778448 C92.42,85.1278448 92.42,85.7878448 92.51,86.4778448 C92.57,87.3778448 92.57,88.2878448 92.58,89.1678448 C92.58,89.8478448 92.58,90.5378448 92.58,91.1678448 C92.58,91.7978448 92.69,92.5578448 92.76,93.2878448 C92.83,94.0178448 92.95,95.0178448 92.97,95.9078448 C92.97,96.6078448 93.04,97.3078448 93.09,98.0078448 C93.15,98.8678448 93.22,99.7578448 93.22,100.657845 C93.22,101.557845 93.16,102.457845 93.11,103.327845 C93.11,104.017845 93.02,104.707845 93,105.407845 C93,106.297845 92.9,107.187845 92.81,108.037845 C92.72,108.887845 92.67,109.437845 92.64,110.137845 C92.58,111.727845 92.48,113.307845 92.38,114.867845 C92.38,115.577845 92.38,116.277845 92.38,117.017845 C92.4046478,117.888298 92.3846215,118.759443 92.32,119.627845 C92.25,120.527845 92.1,121.417845 91.96,122.277845 C91.85,122.957845 91.74,123.647845 91.67,124.327845 L91.52,125.727845 C91.4,126.837845 91.29,127.947845 91.14,129.047845 L91.07,129.557845 C90.88,130.967845 90.7,132.367845 90.48,133.747845 C90.39,134.327845 90.3,134.907845 90.22,135.487845 C90.07,136.487845 89.93,137.487845 89.75,138.437845 C89.63,139.077845 89.53,139.707845 89.43,140.347845 C89.28,141.257845 89.13,142.197845 88.94,143.127845 C88.75,144.057845 88.48,144.887845 88.22,145.727845 C88.02,146.387845 87.82,147.047845 87.66,147.727845 C87.44,148.627845 87.15,149.487845 86.86,150.317845 C86.63,150.987845 86.41,151.617845 86.24,152.267845 L85.95,153.267845 C85.63,154.467845 85.31,155.647845 84.95,156.807845 C84.7581042,157.494218 84.6111263,158.192363 84.51,158.897845 C84.2935027,160.699066 83.6896767,162.432081 82.74,163.977845 C82.399861,164.570718 82.099208,165.185386 81.84,165.817845 C81.5969376,166.47268 81.3899603,167.140348 81.22,167.817845 C81.0183279,168.684802 80.7474598,169.53419 80.41,170.357845 C80.0243964,171.220186 79.5869291,172.058387 79.1,172.867845 C78.75,173.457845 78.42,174.017845 78.1,174.577845 C77.41,175.977845 76.69,177.427845 75.91,178.817845 C75.34,179.817845 74.71,180.817845 74.1,181.687845 C73.84,182.077845 73.58,182.457845 73.34,182.847845 C73.1,183.237845 72.66,183.977845 72.34,184.547845 C71.9195525,185.393751 71.4347953,186.206138 70.89,186.977845 C70.2639254,187.762774 69.5677213,188.489102 68.81,189.147845 C68.3549626,189.548376 67.9210443,189.972281 67.51,190.417845 C67.22,190.727845 66.95,191.037845 66.68,191.337845 C65.9146707,192.251506 65.0930742,193.11652 64.22,193.927845 C63.85,194.247845 63.5,194.577845 63.16,194.927845 C62.3471328,195.733348 61.4709925,196.472382 60.54,197.137845 C59.4250367,197.845725 58.2466238,198.448323 57.02,198.937845 L56.16,199.317845 C54.6529974,199.950898 53.0846914,200.426752 51.48,200.737845 C49.8935507,201.143657 48.2668805,201.371726 46.63,201.417845 L44.85,201.417845 L44.85,201.397845 Z M49.52,1.9772858 C49.06,1.9772858 48.6,1.9772858 48.12,1.9772858 C47.64,1.9772858 47.12,2.02784482 46.63,2.02784482 C45.1430324,2.0263603 43.6605369,2.19070934 42.21,2.51784482 L41.76,2.61784482 C40.4351267,2.86748694 39.1386365,3.2493988 37.89,3.75784482 C36.5006912,4.36121756 35.1629209,5.07692464 33.89,5.89784482 C33.0640984,6.49706889 32.2912518,7.16620017 31.58,7.89784482 C31.21,8.25784482 30.83,8.60784482 30.44,8.95784482 C29.2966228,9.97924513 28.2084171,11.0607747 27.18,12.1978448 C26.18,13.3178448 25.18,14.5178448 24.24,15.7578448 C23.96,16.1278448 23.67,16.5078448 23.37,16.8778448 C22.72,17.7078448 22.05,18.5678448 21.46,19.4778448 C21.0155861,20.2050541 20.6181091,20.9599264 20.27,21.7378448 C19.97,22.3478448 19.67,22.9878448 19.27,23.6178448 C18.9133016,24.2485066 18.5227303,24.8594001 18.1,25.4478448 C17.5993098,26.1223884 17.1513182,26.8344944 16.76,27.5778448 L16,29.0678448 C15.54,29.9378448 15.07,30.8478448 14.66,31.7678448 C14.34,32.5178448 14.08,33.3178448 13.81,34.1578448 C13.59,34.8378448 13.36,35.5178448 13.1,36.1578448 C12.93,36.6178448 12.75,37.0678448 12.56,37.5178448 C12.17,38.5178448 11.77,39.5178448 11.41,40.5178448 C11.22,41.0778448 11.02,41.6378448 10.81,42.1878448 C10.48,43.0878448 10.13,44.0178448 9.81,44.9478448 C9.38,46.3378448 9,47.7378448 8.59,49.2278448 L8.17,50.7478448 C7.87,51.8278448 7.57,52.9078448 7.3,54.0078448 C6.94,55.4778448 6.62,57.0078448 6.3,58.5178448 C6.1501519,59.3316476 6.04333683,60.1527885 5.98,60.9778448 C5.91,61.7278448 5.82,62.4878448 5.68,63.2578448 C5.54,64.0278448 5.38,64.6678448 5.21,65.3778448 C5.04,66.0878448 4.81,67.0278448 4.68,67.8478448 C4.58,68.4878448 4.46,69.1278448 4.34,69.7678448 C4.18,70.6578448 4.01,71.5778448 3.89,72.4878448 C3.80504249,73.2614352 3.77163542,74.03982 3.79,74.8178448 C3.80420429,75.6122338 3.77415776,76.4067973 3.7,77.1978448 C3.6,78.1178448 3.54,79.0478448 3.47,79.9778448 C3.47,80.6078448 3.38,81.2478448 3.33,81.8778448 L3.33,82.3378448 C3.21,83.7378448 3.08,85.1378448 2.99,86.5578448 C2.91259306,87.3734387 2.7755599,88.1822686 2.58,88.9778448 C2.40371108,89.7274881 2.28668323,90.489841 2.23,91.2578448 C2.22346852,92.0116877 2.28370376,92.7646282 2.41,93.5078448 C2.54356177,94.3243893 2.61044921,95.1504492 2.61,95.9778448 C2.5804855,96.7796958 2.49359668,97.5784045 2.35,98.3678448 C2.20522098,99.1299493 2.12162116,99.9024116 2.1,100.677845 C2.1,101.677845 2.1,102.597845 2.17,103.557845 C2.17,104.167845 2.17,104.777845 2.22,105.387845 C2.22,106.247845 2.31,107.137845 2.38,107.997845 C2.43,108.697845 2.48,109.397845 2.51,110.087845 C2.54,110.777845 2.66,111.667845 2.77,112.507845 C2.88,113.347845 2.98,113.997845 3.03,114.767845 C3.08023203,115.573729 3.08023203,116.38196 3.03,117.187845 C2.97560837,117.953547 2.97560837,118.722143 3.03,119.487845 C3.09,120.087845 3.13,120.687845 3.17,121.287845 C3.25,122.287845 3.32,123.217845 3.42,124.177845 C3.52,125.137845 3.67,125.887845 3.82,126.717845 C3.97,127.547845 4.06,128.117845 4.16,128.817845 C4.26,129.517845 4.32,130.287845 4.38,131.017845 C4.44,131.747845 4.51,132.697845 4.64,133.497845 C4.77,134.297845 4.98,135.307845 5.16,136.187845 C5.3,136.827845 5.44,137.477845 5.56,138.117845 L5.78,139.367845 C5.99,140.497845 6.19,141.627845 6.43,142.737845 C6.59471296,143.500806 6.81872661,144.249747 7.1,144.977845 C7.39112574,145.704674 7.63496738,146.44956 7.83,147.207845 C8.02,147.977845 8.13,148.737845 8.25,149.477845 C8.34967299,150.269252 8.49660212,151.053987 8.69,151.827845 C8.92,152.677845 9.23,153.527845 9.52,154.347845 C9.75,154.997845 9.97,155.637845 10.17,156.277845 C10.37,156.917845 10.56,157.637845 10.73,158.277845 C10.96,159.147845 11.17,159.967845 11.45,160.767845 C11.7287156,161.547414 12.0629037,162.306021 12.45,163.037845 C12.7889557,163.687722 13.0927274,164.355352 13.36,165.037845 L13.71,165.927845 C14.17,167.127845 14.61,168.257845 15.1,169.367845 C15.34,169.927845 15.57,170.497845 15.8,171.057845 C16.17,171.967845 16.53,172.827845 16.93,173.657845 C17.33,174.487845 17.88,175.387845 18.38,176.217845 C18.67,176.707845 18.97,177.217845 19.25,177.697845 C19.6226731,178.381851 19.9565349,179.086299 20.25,179.807845 C20.5108457,180.549671 20.8458758,181.263285 21.25,181.937845 C21.7520423,182.679597 22.3103532,183.381664 22.92,184.037845 C23.35,184.527845 23.79,185.037845 24.19,185.557845 C24.59,186.077845 24.87,186.477845 25.19,186.947845 C25.7338935,187.757885 26.3284105,188.532761 26.97,189.267845 C27.6291693,189.963409 28.3486468,190.599226 29.12,191.167845 C29.58,191.537845 30.04,191.897845 30.47,192.277845 L31.47,193.207845 C32.229821,193.95941 33.0491563,194.648321 33.92,195.267845 C35.1594249,196.152437 36.4706616,196.93182 37.84,197.597845 C39.2023087,198.266101 40.6298465,198.792212 42.1,199.167845 C43.2911026,199.377964 44.5018623,199.455103 45.71,199.397845 L46.61,199.397845 C48.1020648,199.351565 49.5844233,199.140279 51.03,198.767845 C52.5002853,198.485412 53.9377834,198.053157 55.32,197.477845 C55.61,197.337845 55.9,197.217845 56.2,197.087845 C57.3136689,196.635167 58.3874288,196.089924 59.41,195.457845 C60.2453539,194.854836 61.031188,194.186041 61.76,193.457845 L62.87,192.457845 C63.6893702,191.67858 64.4607829,190.850397 65.18,189.977845 L66.02,189.027845 C66.47,188.537845 67.02,188.027845 67.46,187.627845 C68.125004,187.053533 68.7374327,186.421024 69.29,185.737845 C69.7857724,185.044498 70.2302862,184.315897 70.62,183.557845 C70.95,182.957845 71.29,182.337845 71.68,181.727845 C71.93,181.337845 72.19,180.947845 72.46,180.547845 C73.04,179.667845 73.65,178.757845 74.19,177.807845 C74.94,176.467845 75.65,175.037845 76.33,173.667845 C76.64,173.037845 77,172.417845 77.33,171.827845 C77.7828805,171.091771 78.1935432,170.330542 78.56,169.547845 C78.8559265,168.817848 79.0933413,168.065477 79.27,167.297845 C79.453476,166.538743 79.6805186,165.790838 79.95,165.057845 C80.2388857,164.347242 80.5729001,163.655832 80.95,162.987845 C81.3455327,162.294829 81.6801235,161.568767 81.95,160.817845 C82.1792052,160.082504 82.3497397,159.330146 82.46,158.567845 C82.5759021,157.774564 82.7429163,156.989597 82.96,156.217845 C83.31,155.077845 83.63,153.917845 83.96,152.747845 L84.25,151.747845 C84.44,151.037845 84.68,150.347845 84.91,149.667845 C85.14,148.987845 85.46,148.077845 85.66,147.267845 C85.86,146.457845 86.04,145.877845 86.25,145.177845 C86.46,144.477845 86.75,143.547845 86.92,142.737845 C87.09,141.927845 87.24,140.987845 87.39,140.057845 C87.5,139.407845 87.6,138.757845 87.72,138.107845 C87.9,137.107845 88.04,136.197845 88.18,135.227845 C88.26,134.647845 88.35,134.057845 88.44,133.457845 C88.66,132.097845 88.84,130.717845 89.03,129.317845 L89.1,128.807845 C89.24,127.727845 89.36,126.647845 89.47,125.547845 L89.62,124.137845 C89.7,123.417845 89.81,122.707845 89.93,121.987845 C90.05,121.267845 90.2,120.307845 90.27,119.477845 C90.3272784,118.675868 90.3439664,117.871507 90.32,117.067845 C90.32,116.327845 90.32,115.547845 90.32,114.777845 C90.42,113.217845 90.51,111.657845 90.58,110.087845 C90.58,109.347845 90.68,108.607845 90.75,107.877845 C90.82,107.147845 90.91,106.207845 90.93,105.387845 C90.95,104.567845 91.1,103.977845 91.1,103.217845 C91.1,102.457845 91.21,101.517845 91.21,100.677845 C91.21,99.8378448 91.17,98.9778448 91.1,98.1778448 C91.03,97.3778448 90.99,96.7078448 90.97,95.9678448 C90.95,95.2278448 90.87,94.3678448 90.78,93.5178448 C90.69,92.6678448 90.62,92.0378448 90.58,91.2778448 C90.54,90.5178448 90.58,89.8578448 90.58,89.1578448 C90.58,88.2678448 90.58,87.4178448 90.51,86.5778448 C90.51,85.8978448 90.44,85.2278448 90.42,84.5778448 C90.42,83.6878448 90.35,82.7878448 90.27,81.9078448 C90.19,81.0278448 90.06,80.2978448 89.91,79.4578448 C89.76,78.6178448 89.66,77.9978448 89.58,77.2578448 C89.45,76.0578448 89.28,74.8678448 89.12,73.6878448 L88.97,72.5978448 C88.8843813,71.7974941 88.8476465,70.9926673 88.86,70.1878448 C88.8741129,69.4190085 88.8306582,68.6501941 88.73,67.8878448 C88.6,67.0778448 88.4,66.2878448 88.19,65.4578448 C87.98,64.6278448 87.83,64.0278448 87.69,63.2978448 C87.55,62.5678448 87.46,61.8578448 87.36,61.1478448 C87.25,60.2778448 87.13,59.4578448 86.96,58.6478448 L86.66,57.2078448 C86.44,56.1478448 86.23,55.0878448 85.98,54.0578448 C85.7673397,53.2877435 85.5034175,52.5327257 85.19,51.7978448 C84.8912306,51.0856387 84.6308569,50.3579279 84.41,49.6178448 C84.16,48.7078448 83.86,47.7878448 83.56,46.9078448 C83.37,46.3178448 83.17,45.7378448 82.99,45.1478448 L82.75,44.3678448 C82.36,43.0978448 81.99,41.8878448 81.58,40.6878448 C81.3315,39.9474348 81.1277982,39.1927364 80.97,38.4278448 C80.8102718,37.6581172 80.5998126,36.8997957 80.34,36.1578448 C79.99,35.2678448 79.57,34.3778448 79.17,33.5178448 C78.91,32.9778448 78.66,32.4278448 78.42,31.8878448 C78.18,31.3478448 77.89,30.5878448 77.65,29.9378448 C77.33,29.0978448 77.03,28.2978448 76.65,27.5478448 C76,26.2478448 75.29,24.8978448 74.46,23.4178448 C74.014534,22.6765441 73.5165958,21.9680684 72.97,21.2978448 C72.55,20.7578448 72.12,20.1978448 71.74,19.6178448 C71.36,19.0378448 71.11,18.6178448 70.81,18.1178448 C70.3251928,17.2846101 69.7978288,16.4768754 69.23,15.6978448 C68.14,14.2478448 67.23,13.1078448 66.3,12.1078448 C65.2938919,10.934862 64.225696,9.81659443 63.1,8.75784482 C62.1508738,7.96362794 61.1485345,7.23526139 60.1,6.57784482 L59.36,6.07784482 C58.0857767,5.28201008 56.7478774,4.59299197 55.36,4.01784482 C54.81,3.76784482 54.36,3.51784482 53.86,3.27784482 C53.0083551,2.78260622 52.0979019,2.39625155 51.15,2.12784482 C50.6133161,2.02160967 50.0670587,1.97134058 49.52,1.9772858 Z" id="Shape"></path>
            </g>
        </g>
    </g>
</svg>