<?xml version="1.0" encoding="UTF-8"?>
<svg width="24px" height="25px" viewBox="0 0 24 25" version="1.1" xmlns="http://www.w3.org/2000/svg" xmlns:xlink="http://www.w3.org/1999/xlink">
    <title>phone-white</title>
    <g id="Page-1" stroke="none" stroke-width="1" fill="none" fill-rule="evenodd">
        <g id="Desktop-HD" transform="translate(-1393.000000, -233.000000)" fill="#FFFFFF" fill-rule="nonzero">
            <g id="phone-white" transform="translate(1393.018171, 233.924953)">
                <path d="M19.7316184,14.555321 C19.2200151,14.0226205 18.6029264,13.7378104 17.948918,13.7378104 C17.3001838,13.7378104 16.677821,14.0173463 16.1451205,14.5500467 L14.4784539,16.2114391 C14.3413231,16.1375994 14.2041923,16.069034 14.0723357,16.0004686 C13.8824623,15.9055319 13.7031374,15.8158695 13.5501838,15.7209328 C11.9890024,14.7293716 10.570226,13.4371775 9.20946652,11.7652366 C8.55018382,10.9319032 8.10714585,10.2304264 7.78541589,9.51840115 C8.21790534,9.12283155 8.61874922,8.71143916 9.00904458,8.31586953 C9.1567239,8.16819021 9.30440323,8.01523662 9.45208255,7.8675573 C10.5596775,6.75996236 10.5596775,5.32536321 9.45208255,4.21776827 L8.01220914,2.77789485 C7.84870703,2.61439274 7.67993066,2.44561637 7.52170281,2.27684 C7.20524711,1.94983578 6.87296863,1.61228304 6.53014163,1.29582734 C6.01853825,0.789498229 5.4067239,0.520510889 4.76326399,0.520510889 C4.11980407,0.520510889 3.4974412,0.789498229 2.97001504,1.29582734 C2.96474078,1.3011016 2.96474078,1.3011016 2.95946652,1.30637586 L1.16621758,3.11544759 C0.491112089,3.79055308 0.106090992,4.61333789 0.0217028063,5.56797924 C-0.104879472,7.10806363 0.348707026,8.54266278 0.696808292,9.48148135 C1.55123867,11.7863336 2.82760998,13.9224096 4.73161842,16.2114391 C7.041745,18.9698779 9.82128087,21.148148 12.9963864,22.6829581 C14.2094665,23.2578526 15.8286648,23.9382324 17.6377366,24.0542661 C17.7484961,24.0595404 17.8645298,24.0648146 17.9700151,24.0648146 C19.1883695,24.0648146 20.2115762,23.6270509 21.013264,22.7567978 C21.0185383,22.7462492 21.0290868,22.740975 21.034361,22.7304264 C21.3086226,22.398148 21.6250783,22.0975151 21.9573568,21.7757851 C22.1841501,21.5595404 22.4162176,21.3327471 22.6430108,21.0954053 C23.1651627,20.5521564 23.4394243,19.919245 23.4394243,19.2705108 C23.4394243,18.6165024 23.1598885,17.9888653 22.627188,17.4614391 L19.7316184,14.555321 Z M21.6198041,20.1091184 C21.6145298,20.1091184 21.6145298,20.1143927 21.6198041,20.1091184 C21.4141079,20.3306374 21.2031374,20.5310594 20.9763442,20.7525783 C20.6335172,21.0795826 20.2854159,21.4224096 19.9584117,21.8074307 C19.4257113,22.3770509 18.7980741,22.6460383 17.9752893,22.6460383 C17.8961754,22.6460383 17.8117872,22.6460383 17.7326733,22.640764 C16.1662176,22.540553 14.7105214,21.9287387 13.6187492,21.4065868 C10.6335172,19.9614391 8.01220914,17.9097513 5.83393909,15.3095404 C4.03541589,13.1418189 2.83288424,11.1375994 2.03647074,8.98570076 C1.54596441,7.67240962 1.36663952,6.64920287 1.44575344,5.68401299 C1.49849606,5.06692439 1.73583783,4.55532101 2.17360154,4.1175573 L3.97212475,2.31903409 C4.23056357,2.07641806 4.50482517,1.94456152 4.77381251,1.94456152 C5.10609099,1.94456152 5.37507834,2.14498346 5.54385471,2.31375983 C5.54912897,2.31903409 5.55440323,2.32430835 5.55967749,2.32958261 C5.88140745,2.63021553 6.18731462,2.94139696 6.50904458,3.27367544 C6.67254669,3.44245181 6.84132306,3.61122818 7.01009943,3.78527882 L8.44997285,5.22515224 C9.00904458,5.78422397 9.00904458,6.3011016 8.44997285,6.86017333 C8.29701926,7.01312692 8.14933994,7.16608051 7.99638635,7.31375983 C7.55334838,7.76734633 7.13140745,8.18928726 6.67254669,8.60067966 C6.66199817,8.61122818 6.65144964,8.61650245 6.64617538,8.62705097 C6.19258888,9.08063745 6.27697707,9.52367545 6.37191378,9.82430835 C6.37718804,9.84013115 6.3824623,9.85595395 6.38773656,9.87177675 C6.76220914,10.7789497 7.2896353,11.63338 8.09132306,12.6513125 L8.09659732,12.6565868 C9.55229353,14.4498357 11.0871037,15.8475151 12.7801416,16.9181902 C12.9963864,17.055321 13.2179053,17.1660805 13.4288758,17.2715657 C13.6187492,17.3665024 13.7980741,17.4561648 13.9510277,17.5511016 C13.9721248,17.5616501 13.9932218,17.5774729 14.0143189,17.5880214 C14.1936437,17.6776838 14.3624201,17.7198779 14.5364708,17.7198779 C14.9742345,17.7198779 15.2484961,17.4456163 15.3381585,17.3559539 L17.141956,15.5521564 C17.3212809,15.3728315 17.606091,15.1565868 17.9383695,15.1565868 C18.2653737,15.1565868 18.534361,15.362283 18.6978632,15.5416079 C18.7031374,15.5468821 18.7031374,15.5468821 18.7084117,15.5521564 L21.6145298,18.4582745 C22.1577788,18.9962492 22.1577788,19.5500467 21.6198041,20.1091184 Z" id="Shape"></path>
                <path d="M13.4868927,5.01945603 C14.8687492,5.25152354 16.1240235,5.90553198 17.1261332,6.90764169 C18.1282429,7.90975139 18.7769771,9.16502565 19.0143189,10.5468821 C19.0723357,10.8949834 19.3729686,11.1375994 19.7157956,11.1375994 C19.7579897,11.1375994 19.7949096,11.1323252 19.8371037,11.1270509 C20.227399,11.0637598 20.4858378,10.6945615 20.4225467,10.3042661 C20.1377366,8.63232523 19.3465973,7.10806363 18.1387914,5.90025772 C16.9309855,4.69245181 15.4067239,3.90131257 13.734783,3.61650245 C13.3444876,3.55321131 12.9805636,3.81165013 12.9119982,4.19667122 C12.8434328,4.58169232 13.0965973,4.95616489 13.4868927,5.01945603 Z" id="Path"></path>
                <path d="M23.0937329,9.30211039 C22.6976254,6.97887282 21.6027663,4.86481564 19.9204219,3.18247118 C18.2380774,1.50012674 16.1240202,0.405267646 13.8007826,0.00916009005 C13.4758854,-0.048698317 13.1687908,0.173834018 13.1109324,0.498731227 C13.0575246,0.828079082 13.2756063,1.1351737 13.6049542,1.19303212 C15.6789556,1.5446332 17.5704803,2.52822612 19.074799,4.02809406 C20.5791175,5.53241264 21.5582598,7.42393749 21.9098609,9.49793883 C21.958818,9.79168155 22.2125049,9.99641126 22.5017969,9.99641126 C22.5374021,9.99641126 22.5685566,9.99196067 22.6041618,9.98750999 C22.929059,9.93855286 23.1515913,9.6270076 23.0937329,9.30211039 Z" id="Path"></path>
            </g>
        </g>
    </g>
</svg>