<?xml version="1.0" encoding="UTF-8"?>
<svg width="25px" height="25px" viewBox="0 0 25 25" version="1.1" xmlns="http://www.w3.org/2000/svg" xmlns:xlink="http://www.w3.org/1999/xlink">
    <title>Recurso 1</title>
    <defs>
        <linearGradient x1="49.9999985%" y1="100%" x2="49.9999985%" y2="0%" id="linearGradient-1">
            <stop stop-color="#20B038" offset="0%"></stop>
            <stop stop-color="#60D66A" offset="100%"></stop>
        </linearGradient>
        <linearGradient x1="49.9999982%" y1="100%" x2="49.9999982%" y2="0%" id="linearGradient-2">
            <stop stop-color="#F9F9F9" offset="0%"></stop>
            <stop stop-color="#FFFFFF" offset="100%"></stop>
        </linearGradient>
    </defs>
    <g id="Page-1" stroke="none" stroke-width="1" fill="none" fill-rule="evenodd">
        <g id="Desktop-HD" transform="translate(-1393.000000, -157.000000)">
            <g id="Recurso-1" transform="translate(1393.000000, 157.000000)">
                <path d="M0,25 L1.75812815,18.5830402 C0.671658641,16.6992704 0.101097053,14.5623287 0.103978515,12.3877032 C0.10694933,5.55720601 5.66534366,0 12.496435,0 C15.7838396,0 18.9364773,1.30650948 21.2605219,3.63155696 C23.5845665,5.95660444 24.8895583,9.10980545 24.8882983,12.3972098 C24.8853266,19.2300837 19.3257439,24.7855072 12.496435,24.7855072 L12.4910876,24.7855072 C10.4221082,24.7853996 8.38612248,24.2669555 6.5690655,23.2775216 L0,25 Z M6.87387109,21.0333682 L7.24997623,21.2567735 C8.83716261,22.1964851 10.6477655,22.6922711 12.4922759,22.6922711 L12.496435,22.6922711 C18.1730678,22.6922711 22.793873,18.0726542 22.7962499,12.3954273 C22.7975625,6.70736444 18.1880626,2.09493848 12.5,2.09264189 C6.81861394,2.09264189 2.19839244,6.71404126 2.19839244,12.3882974 C2.19563772,14.3268285 2.74173661,16.2265357 3.77352885,17.867668 L4.01832399,18.2574389 L2.97794467,22.0600818 L6.87387109,21.0333682 Z" id="shape_4" fill="#FFFFFF" fill-rule="nonzero"></path>
                <path d="M0.430768134,24.5674494 L2.12829166,18.3703299 C1.07980759,16.552264 0.528941605,14.4900005 0.531181671,12.3912682 C0.534746649,5.79724784 5.90063219,0.433144786 12.4940584,0.433144786 C15.6676889,0.433144786 18.711275,1.694149 20.9549806,3.93863463 C23.1986862,6.18312025 24.4586326,9.22714448 24.45753,12.4007748 C24.4545584,18.9947951 19.0874846,24.3606807 12.4946525,24.3606807 L12.4893051,24.3606807 C10.4923117,24.3601348 8.52725152,23.8594734 6.77345755,22.9043873 L0.430768134,24.5674494 Z" id="shape_3" fill="url(#linearGradient-1)" fill-rule="nonzero"></path>
                <path d="M0,25 L1.75812815,18.5830402 C0.671658641,16.6992704 0.101097053,14.5623287 0.103978515,12.3877032 C0.10694933,5.55720601 5.66534366,0 12.496435,0 C15.7838396,0 18.9364773,1.30650948 21.2605219,3.63155696 C23.5845665,5.95660444 24.8895583,9.10980545 24.8882983,12.3972098 C24.8853266,19.2300837 19.3257439,24.7855072 12.496435,24.7855072 L12.4910876,24.7855072 C10.4221082,24.7853996 8.38612248,24.2669555 6.5690655,23.2775216 L0,25 Z M6.87387109,21.0333682 L7.24997623,21.2567735 C8.83716261,22.1964851 10.6477655,22.6922711 12.4922759,22.6922711 L12.496435,22.6922711 C18.1730678,22.6922711 22.793873,18.0726542 22.7962499,12.3954273 C22.7975625,6.70736444 18.1880626,2.09493848 12.5,2.09264189 C6.81861394,2.09264189 2.19839244,6.71404126 2.19839244,12.3882974 C2.19563772,14.3268285 2.74173661,16.2265357 3.77352885,17.867668 L4.01832399,18.2574389 L2.97794467,22.0600818 L6.87387109,21.0333682 Z" id="shape_2" fill="url(#linearGradient-2)" fill-rule="nonzero"></path>
                <path d="M9.3990636,7.20897899 C9.16734005,6.69324556 8.92373324,6.68255062 8.70211047,6.67423234 C8.52386158,6.66650822 8.31531039,6.66709182 8.10794752,6.66709182 C7.79070494,6.67553939 7.49136658,6.81594846 7.28206103,7.05449663 C6.99805115,7.36464968 6.19830782,8.11329499 6.19830782,9.63672878 C6.19830782,11.1601626 7.3082042,12.6324983 7.46268657,12.839267 C7.61716893,13.0460357 9.60167316,16.2717464 12.7507368,17.5129528 C15.3650537,18.5444196 15.8998004,18.3388392 16.4660376,18.2853646 C17.0322749,18.2318899 18.3002187,17.5379076 18.5586795,16.8148113 C18.8171404,16.091715 18.8165462,15.4725972 18.7369284,15.3430697 C18.6573106,15.2135422 18.4529185,15.136301 18.1427655,14.9818186 C17.8326124,14.8273362 16.3109611,14.0775026 16.0269512,13.9717416 C15.7429413,13.8659806 15.5367668,13.8172592 15.3299981,14.1274123 C15.1232294,14.4375654 14.5308489,15.1339243 14.3502234,15.340693 C14.1695979,15.5474617 13.9889723,15.5730107 13.6794134,15.4185284 C13.3698545,15.264046 12.372255,14.9366622 11.1892765,13.8814288 C10.2689181,13.0608898 9.64445289,12.0472478 9.46620401,11.7376889 C9.28795513,11.4281301 9.44659663,11.2623586 9.60167316,11.1054996 C9.74070729,10.9670596 9.91182622,10.7442485 10.0663086,10.563623 C10.2207909,10.3829974 10.2724831,10.2534699 10.3758675,10.0472954 C10.4792518,9.84112083 10.4275597,9.65930697 10.3497243,9.5048246 C10.271889,9.35034224 9.67416104,7.82096682 9.3990636,7.20897899 Z" id="shape_1" fill="#FFFFFF"></path>
            </g>
        </g>
    </g>
</svg>