<?xml version="1.0" encoding="utf-8"?>
<svg width="14px" height="12px" viewBox="0 0 14 12" version="1.1" xmlns:xlink="http://www.w3.org/1999/xlink" xmlns="http://www.w3.org/2000/svg">
  <desc>Created with Lunacy</desc>
  <path d="M7.74193 0.139803C7.48041 -0.0635469 7.10225 -0.0450605 6.86193 0.195262L6.80647 0.258067C6.60312 0.519594 6.62161 0.897749 6.86193 1.13807L11.0567 5.33333L0.666667 5.33333L0.588919 5.33782C0.25736 5.37633 0 5.65811 0 6C0 6.36819 0.298477 6.66667 0.666667 6.66667L11.0567 6.66667L6.86193 10.8619L6.80647 10.9247C6.60312 11.1863 6.62161 11.5644 6.86193 11.8047C7.12228 12.0651 7.54439 12.0651 7.80474 11.8047L13.1377 6.47175L13.1381 6.4714C13.1577 6.4518 13.1761 6.43099 13.1931 6.40908L13.1935 6.4086C13.231 6.36036 13.261 6.30816 13.2834 6.25358C13.3156 6.17541 13.3333 6.08978 13.3333 6C13.3333 5.90957 13.3153 5.82334 13.2827 5.7447C13.2502 5.66611 13.202 5.59248 13.1381 5.5286L7.80474 0.195262L7.74193 0.139803Z" transform="matrix(-1 0 0 1 13.33325 0)" id="Combined-Shape-Copy-3" fill="#FFFFFF" fill-rule="evenodd" stroke="none" />
</svg>