<?xml version="1.0" encoding="UTF-8"?>
<svg width="50px" height="50px" viewBox="0 0 50 50" version="1.1" xmlns="http://www.w3.org/2000/svg" xmlns:xlink="http://www.w3.org/1999/xlink">
    <title>Recurso 7</title>
    <g id="Page-1" stroke="none" stroke-width="1" fill="none" fill-rule="evenodd">
        <g id="Desktop-HD" transform="translate(-695.000000, -4355.000000)" fill="#00524C" fill-rule="nonzero">
            <g id="Recurso-7" transform="translate(695.000000, 4355.000000)">
                <path d="M19.9956527,0.36359325 C20.2090661,0.541437774 20.084575,0.636288187 20.084575,0.914911275 C20.084575,1.19353436 20.0193653,1.19353436 20.0193653,1.47215745 C20.0193653,1.75078054 19.9837964,1.75078054 19.9837964,2.02940363 C19.9837964,2.30802672 19.9837964,2.30802672 19.9837964,2.5866498 C19.9837964,2.86527289 19.9422993,2.86527289 19.9422993,3.14389598 C19.9422993,3.42251907 19.9897245,3.42251907 19.9897245,3.70114216 C19.9897245,3.97976525 20.1082876,3.9856934 20.1082876,4.29395724 C20.1082876,4.60222108 19.9541556,4.57258033 19.9541556,4.85120341 C19.9541556,5.1298265 20.1023594,5.1298265 20.1023594,5.40844959 C20.1023594,5.68707268 20.0549342,5.69300083 20.0549342,5.97162392 C20.0549342,6.25024701 20.0549342,6.25024701 20.0549342,6.52887009 C20.0549342,6.80749318 20.0549342,6.81342133 20.0549342,7.09204442 C20.0549342,7.37066751 19.9956527,7.37066751 19.9956527,7.6492906 C19.9956527,7.92791369 19.9660119,7.93384184 19.9660119,8.24210568 C19.9660119,8.55036952 19.9660119,8.52072877 19.9660119,8.80528001 C19.9660119,9.08983125 20.0193653,9.08390309 20.0193653,9.36845433 C20.0193653,9.65300557 20.2090661,9.73599968 20.0193653,9.96126941 C19.8296645,10.1865391 19.7407422,9.96126941 19.4621191,9.96126941 L18.3772675,9.96126941 C18.0986444,9.96126941 18.0986444,10.0501917 17.8259495,10.0501917 C17.5532546,10.0501917 17.5117575,10.103545 17.2746315,9.96126941 C17.0375054,9.8189938 17.0790025,9.75971229 16.9485832,9.5166581 C16.8181639,9.27360392 16.9485832,9.22025056 16.7944513,8.97719638 C16.6403193,8.7341422 16.6818164,8.72228589 16.5513971,8.48515986 C16.4209777,8.24803383 16.3854088,8.25989013 16.2549895,8.01683595 C16.1245702,7.77378177 16.0593606,7.80935067 15.9289412,7.56629649 C15.7985219,7.3232423 15.8163064,7.31731415 15.685887,7.07425997 C15.5554677,6.83120579 15.5613959,6.82527764 15.4309766,6.58222345 C15.3005572,6.33916927 15.3539106,6.30952851 15.2234913,6.06647433 C15.093072,5.82342015 15.0752875,5.8293483 14.9448682,5.58629412 C14.8144489,5.34323993 14.8559459,5.32545548 14.7255266,5.0824013 C14.5951073,4.83934711 14.5476821,4.86305972 14.4172628,4.62000553 C14.2868435,4.37695135 14.2749872,4.3828795 14.1445678,4.13982532 C14.0141485,3.89677113 13.954867,3.92641189 13.8244477,3.6833577 C13.6940284,3.44030352 13.759238,3.39880647 13.6288187,3.15575228 C13.4983994,2.9126981 13.6288187,2.62814686 13.3620519,2.69335652 C13.0952851,2.75856618 13.2731297,2.948267 13.2731297,3.22689009 C13.2731297,3.50551318 13.2731297,3.50551318 13.2731297,3.81970517 C13.2731297,4.13389717 13.3561238,4.09832826 13.3561238,4.37695135 C13.3561238,4.65557444 13.3561238,4.66150259 13.3561238,4.94012568 C13.3561238,5.21874876 13.3205549,5.21874876 13.3205549,5.49737185 C13.3205549,5.77599494 13.3205549,5.78192309 13.3205549,6.06054618 C13.3205549,6.33916927 13.3679801,6.34509742 13.3679801,6.62372051 C13.3679801,6.9023436 13.3324112,6.9023436 13.3324112,7.21653559 C13.3324112,7.53072758 13.2909141,7.49515868 13.2909141,7.77378177 C13.2909141,8.05240485 13.3739082,8.058333 13.3739082,8.33695609 C13.3739082,8.61557918 13.2612734,8.62150733 13.2612734,8.92977117 C13.2612734,9.23803502 13.2612734,9.21432241 13.2612734,9.4929455 C13.2612734,9.77156859 13.5517528,9.89605976 13.3383393,10.0857606 C13.1249259,10.2754614 12.9885784,10.0027665 12.6625301,10.0027665 C12.3364818,10.0027665 12.2534877,10.2754614 12.0045054,10.062048 C11.7555231,9.84863455 12.0519306,9.78935304 12.0519306,9.51072995 C12.0519306,9.23210686 12.0519306,9.22617871 12.0519306,8.91791487 C12.0519306,8.60965103 11.951152,8.63929178 11.951152,8.3606687 C11.951152,8.08204561 11.951152,8.08204561 11.951152,7.80342252 C11.951152,7.52479943 11.9926491,7.52479943 11.9926491,7.24617634 C11.9926491,6.96755325 11.9215113,6.96755325 11.9215113,6.68893017 C11.9215113,6.41030708 11.9215113,6.41030708 11.9215113,6.12575584 C11.9215113,5.8412046 11.951152,5.84713275 11.951152,5.56850966 C11.951152,5.28988657 11.951152,5.28988657 11.951152,5.01126349 C11.951152,4.7326404 11.909655,4.7326404 11.909655,4.41844841 C11.909655,4.10425641 11.909655,4.13982532 11.909655,3.86120223 C11.909655,3.58257914 11.951152,3.58257914 11.951152,3.26838715 C11.951152,2.95419515 11.9985772,2.98976406 11.9985772,2.71114097 C11.9985772,2.43251788 11.9215113,2.43251788 11.9215113,2.14796664 C11.9215113,1.86341541 12.0104335,1.86934356 12.0104335,1.59072047 C12.0104335,1.31209738 11.9748646,1.30616923 11.9748646,1.02754614 C11.9748646,0.748923053 11.7258823,0.624431886 11.9215113,0.43473106 C12.1171403,0.245030234 12.2297751,0.482156266 12.5143264,0.482156266 C12.7988776,0.482156266 12.7810932,0.399162155 13.0537881,0.399162155 C13.326483,0.399162155 13.3205549,0.494012568 13.5932498,0.494012568 C13.8659447,0.494012568 13.8600166,0.428802909 14.1327115,0.428802909 C14.4054065,0.428802909 14.4054065,0.393234004 14.6366044,0.535509623 C14.8678022,0.677785243 14.8085207,0.713354148 14.9448682,0.956408331 C15.0812157,1.19946251 15.016006,1.23503142 15.1523535,1.4780856 C15.2887009,1.72113979 15.3005572,1.70928348 15.4309766,1.95233767 C15.5613959,2.19539185 15.64439,2.1538948 15.7748093,2.39694898 C15.9052286,2.64000316 15.9230131,2.62814686 16.0534324,2.87712919 C16.1838517,3.12611153 16.1127139,3.16168043 16.2431332,3.40473462 C16.3735525,3.6477888 16.3439118,3.66557325 16.4743311,3.90862744 C16.6047504,4.15168162 16.6343912,4.13982532 16.7648105,4.3828795 C16.8952298,4.62593368 16.8893017,4.63778999 17.019721,4.88084417 C17.1501403,5.12389835 17.1619966,5.1179702 17.2983441,5.36102438 C17.4346915,5.60407857 17.3872663,5.62779117 17.5176856,5.87084535 C17.648105,6.11389954 17.689602,6.09611509 17.8259495,6.33916927 C17.962297,6.58222345 18.0452911,6.53479825 18.1816385,6.77785243 C18.317986,7.02090661 18.2468482,7.06240367 18.3772675,7.311386 C18.5076868,7.56036834 18.3772675,7.79156622 18.632178,7.72635656 C18.8870885,7.6611469 18.5728965,7.51887128 18.5728965,7.24024819 C18.5728965,6.9616251 18.7151721,6.95569695 18.7151721,6.67707386 C18.7151721,6.39845078 18.5728965,6.39845078 18.5728965,6.08425878 C18.5728965,5.77006679 18.7033158,5.8056357 18.7033158,5.52108446 C18.7033158,5.23653322 18.7033158,5.24246137 18.7033158,4.95791013 C18.7033158,4.67335889 18.7388847,4.67928704 18.7388847,4.36509505 C18.7388847,4.05090305 18.6677469,4.08647196 18.6677469,3.77227997 C18.6677469,3.45808797 18.709244,3.49365688 18.709244,3.20910564 C18.709244,2.9245544 18.709244,2.93048255 18.709244,2.61629056 C18.709244,2.30209857 18.709244,2.33766747 18.709244,2.02347548 C18.709244,1.70928348 18.7744536,1.73892424 18.7744536,1.4306604 C18.7744536,1.12239655 18.6855314,1.14610916 18.6855314,0.837845315 C18.6855314,0.529581473 18.4543335,0.411018456 18.6855314,0.245030234 C18.9167292,0.0790420108 19.0708612,0.393234004 19.3969095,0.328024345 C19.7229578,0.262814686 19.7407422,0.150179821 19.9956527,0.36359325 Z" id="Path"></path>
                <path d="M31.6563253,5.1061139 C31.6563253,5.30174288 31.7393194,5.5033 31.721535,5.69892898 C31.7037505,5.89455796 31.6089001,6.07833063 31.5733312,6.29174406 C31.5377623,6.50515749 31.4547682,6.65928941 31.3954867,6.84306209 C31.3281067,7.02108774 31.2509226,7.19524664 31.1642888,7.36473936 C31.0746831,7.53220731 30.9757242,7.6945 30.8678813,7.85084773 C30.783651,8.02077644 30.6886054,8.18512616 30.58333,8.34288424 C30.464767,8.49701616 30.42327,8.71635774 30.2869225,8.85270521 C30.150575,8.98905268 29.9075208,9.00683713 29.7593171,9.12540015 C29.6111133,9.24396317 29.5281192,9.4692329 29.3680591,9.57001146 C29.1935446,9.65722494 29.0133094,9.73248796 28.8285974,9.79528119 C28.6562231,9.88440231 28.4779638,9.96164797 28.2950638,10.0264791 C28.1105913,10.0844421 27.922446,10.129993 27.7318895,10.1628265 C27.5481168,10.1983954 27.3465597,10.1628265 27.1390744,10.1628265 C26.9315891,10.1628265 26.7596728,10.1628265 26.5462593,10.1628265 C26.3328459,10.1628265 26.1668577,10.1628265 25.9534443,10.1628265 C25.7400308,10.1628265 25.5621863,10.1628265 25.3606292,10.1331858 C25.1723019,10.0916328 24.9862953,10.0401841 24.803383,9.97905387 C24.6215912,9.91367881 24.4434843,9.83847814 24.2698494,9.75378414 C24.0979331,9.67079002 23.9319448,9.58186776 23.7659566,9.4810892 C23.6011281,9.38473174 23.4427126,9.27780128 23.2917045,9.16096906 C23.1193689,9.06665343 22.9530603,8.96172058 22.7937399,8.84677706 C22.6945375,8.67019138 22.6054711,8.48810001 22.5269731,8.30138719 C22.3872201,8.1658569 22.2565195,8.02129409 22.1357151,7.86863218 C22.0688715,7.67491886 22.0153926,7.47684905 21.9756551,7.2758171 C21.9011452,7.10078703 21.8397191,6.9204719 21.7918824,6.73635537 C21.7208961,6.5599972 21.6595481,6.379911 21.6081097,6.19689365 C21.5450092,6.01408411 21.4915818,5.8280777 21.4480496,5.63964747 C21.4480496,5.44994665 21.4480496,5.25431767 21.4480496,5.04683239 C21.4491073,4.84854014 21.4629685,4.65052312 21.4895467,4.45401731 C21.5252097,4.26600984 21.5707215,4.08000498 21.6258942,3.89677113 C21.6673912,3.70114216 21.7029601,3.51736948 21.7563135,3.30395605 C21.8273313,3.12651095 21.9105234,2.95418429 22.0052958,2.78820693 C22.0736182,2.64518995 22.1508355,2.50659485 22.2364937,2.37323638 C22.3206749,2.20397113 22.4177895,2.04145277 22.5269731,1.88712801 C22.6293878,1.72152248 22.7401908,1.56125379 22.8589495,1.40694779 C23.0148974,1.2894519 23.1771777,1.18060537 23.3450579,1.0808995 C23.4905464,0.954019583 23.6429346,0.835275573 23.8015255,0.725210449 C23.9839653,0.6593253 24.1700165,0.603905787 24.3587717,0.559222227 C24.5336409,0.472785306 24.7138243,0.397543895 24.8982334,0.333952496 C25.0698418,0.249252917 25.245976,0.174049583 25.4258388,0.108682765 C25.6155397,0.07311386 25.8052405,0.0256886535 26.0186539,0.00790420108 C26.2320673,-0.00988025135 26.3980556,0.00790420108 26.611469,0.00790420108 C26.8248824,0.00790420108 27.0027269,0.00790420108 27.2042841,0.00790420108 C27.4058412,0.00790420108 27.595542,0.00790420108 27.7970992,0.043473106 C27.9840039,0.0948999736 28.1680372,0.156244406 28.3484172,0.227245781 C28.527725,0.296093178 28.7020365,0.377306504 28.8700945,0.470299964 C29.0583562,0.522091374 29.2426125,0.587472642 29.4214125,0.665928941 C29.5874007,0.766707505 29.6822511,0.968264633 29.836383,1.08682765 C29.9817792,1.20743742 30.1203189,1.33608141 30.2513536,1.47215745 C30.4041364,1.58873702 30.5505734,1.71340632 30.6900368,1.84563095 C30.7644817,2.01793584 30.8297822,2.19404918 30.8856657,2.37323638 C30.9992568,2.52732051 31.1041509,2.68763037 31.1998577,2.85341659 C31.2629585,3.03421813 31.3163875,3.21825132 31.3599178,3.40473462 C31.411944,3.58760108 31.4515552,3.77377379 31.4784808,3.96198079 C31.5521238,4.14139047 31.6135221,4.32558526 31.6622535,4.51329882 C31.6800379,4.7444967 31.6563253,4.91048492 31.6563253,5.1061139 Z M29.362131,5.1061139 C29.362131,4.92234122 29.2613524,4.75042485 29.2494961,4.57258033 C29.2376398,4.3947358 29.2494961,4.19910683 29.2494961,4.02719045 C29.2314279,3.84602403 29.2037239,3.66594843 29.166502,3.48772873 C29.124772,3.31113027 29.0733163,3.13697241 29.0123701,2.96605146 C28.9570066,2.79167176 28.8896605,2.62132578 28.8108129,2.45623049 C28.7076098,2.29636577 28.5884351,2.14739743 28.4551239,2.01161918 C28.342489,1.86934356 28.1350038,1.82191835 27.9986563,1.70335533 C27.8623088,1.58479232 27.7970992,1.35952259 27.6370391,1.27652847 C27.476979,1.19353436 27.2635656,1.27652847 27.0857211,1.21724697 C26.9169329,1.16015861 26.7416918,1.12431385 26.5640438,1.11054025 C26.4016117,1.11825212 26.2405511,1.14410135 26.0838636,1.18760621 C25.9107478,1.22747883 25.7434138,1.28923304 25.5858989,1.37137889 C25.4159127,1.43616362 25.2546207,1.52178776 25.1057187,1.62628937 C24.9618656,1.74019042 24.8288995,1.86720284 24.7085326,2.00569102 C24.6002375,2.15146804 24.5012387,2.30392617 24.412125,2.46215864 C24.3291309,2.61629056 24.2994902,2.80599138 24.2283524,2.97790776 C24.1593523,3.14430044 24.0999728,3.31452147 24.0505078,3.48772873 C23.9933341,3.66082237 23.9458355,3.83696307 23.9082322,4.01533415 C23.8785915,4.18725052 23.8548789,4.3710232 23.8370944,4.55479587 C23.81931,4.73856855 23.8370944,4.91641307 23.8370944,5.10018575 C23.8370944,5.28395842 23.937873,5.46180295 23.9497293,5.63964747 C23.9615856,5.817492 23.9023041,6.01312097 23.9497293,6.18503735 C24.0051486,6.36050957 24.0704628,6.53270174 24.1453583,6.70078647 C24.1927835,6.87863099 24.1453583,7.08611627 24.1987116,7.25210449 C24.2610161,7.42457002 24.3342793,7.59287732 24.4180532,7.75599731 C24.5177324,7.91176211 24.6307949,8.05854497 24.7559578,8.19468047 C24.8884738,8.31912268 25.0312561,8.4321587 25.1827847,8.53258507 C25.3164828,8.65286631 25.4613964,8.76006269 25.6155397,8.85270521 C25.7726109,8.93865987 25.9399283,9.00439171 26.1135043,9.04833419 C26.2829646,9.11339999 26.4604378,9.15527569 26.6411097,9.17282536 C26.8258082,9.169774 27.009254,9.14185832 27.1864996,9.08983125 C27.3699166,9.06019106 27.5490665,9.00843662 27.7200332,8.93569932 C27.8710735,8.83046367 28.0119819,8.71138617 28.1409319,8.58001028 C28.2754792,8.45497416 28.3984913,8.31807363 28.5084773,8.17096787 C28.599279,8.01698873 28.6785383,7.85648864 28.7456033,7.69078765 C28.8598754,7.5480126 28.9610624,7.39524016 29.047939,7.23432004 C29.1058624,7.06346243 29.1533748,6.88925047 29.1902146,6.71264277 C29.2317117,6.5407264 29.3799154,6.38659447 29.4095562,6.2028218 C29.4391969,6.01904912 29.4451251,5.83527645 29.4569814,5.65150377 C29.4688377,5.4677311 29.362131,5.29581473 29.362131,5.1061139 Z" id="Shape"></path>
                <path d="M11.044145,11.5263012 C11.2397739,11.7278584 11.1330672,11.7989962 11.1330672,12.0776193 C11.1330672,12.3562423 11.0678576,12.3562423 11.0678576,12.6407936 C11.0678576,12.9253448 11.0382168,12.9194167 11.0382168,13.1980398 C11.0382168,13.4766628 11.0085761,13.4766628 11.0085761,13.7552859 C11.0085761,14.033909 10.967079,14.033909 10.967079,14.3125321 C10.967079,14.5911552 11.0145042,14.5911552 11.0145042,14.8697783 C11.0145042,15.1484014 11.1330672,15.1484014 11.1330672,15.4270245 C11.1330672,15.7056476 10.9848635,15.7115757 10.9848635,15.9901988 C10.9848635,16.2688219 11.1271391,16.2688219 11.1271391,16.547445 C11.1271391,16.8260681 11.0797139,16.8260681 11.0797139,17.1106193 C11.0797139,17.3951705 11.0797139,17.3892424 11.0797139,17.6678655 C11.0797139,17.9464886 11.0797139,17.9464886 11.0797139,18.2310398 C11.0797139,18.515591 11.0145042,18.5096629 11.0145042,18.788286 C11.0145042,19.0669091 11.0145042,19.0669091 11.0145042,19.3455322 C11.0145042,19.6241552 11.0145042,19.6300834 11.0145042,19.9087065 C11.0145042,20.1873296 11.0678576,20.1932577 11.0678576,20.5015216 C11.0678576,20.8097854 11.2516302,20.8690669 11.0678576,21.0943366 C10.8840849,21.3196064 10.7833063,21.0943366 10.5165395,21.0943366 L9.42575979,21.0943366 C9.15306485,21.0943366 9.00486108,21.3551753 8.83294471,21.1595463 C8.66102834,20.9639173 8.90408252,20.8038573 8.90408252,20.5074497 C8.90408252,20.2110422 8.82701656,20.2110422 8.82701656,19.9146346 C8.82701656,19.6182271 8.94557958,19.6182271 8.94557958,19.3218195 C8.94557958,19.025412 8.94557958,19.0313402 8.94557958,18.7290045 C8.94557958,18.4266688 8.90408252,18.4325969 8.90408252,18.1361894 C8.90408252,17.8397818 8.82701656,17.8338537 8.82701656,17.5433743 C8.82701656,17.2528949 8.82701656,17.2469668 8.82701656,16.9505592 C8.82701656,16.6541517 9.04042999,16.5830139 8.82701656,16.3577441 C8.61360313,16.1324744 8.56617792,16.3103189 8.28755484,16.3103189 C8.00893175,16.3103189 8.00893175,16.3103189 7.73030866,16.3103189 C7.45168557,16.3103189 7.45761372,16.2688219 7.17899063,16.2688219 C6.90036755,16.2688219 6.9062957,16.3162471 6.62767261,16.3162471 C6.34904952,16.3162471 6.34904952,16.3162471 6.07042643,16.3162471 C5.79180334,16.3162471 5.79180334,16.3814567 5.51318026,16.3814567 C5.23455717,16.3814567 5.13970675,16.1028337 4.92036517,16.3103189 C4.70102359,16.5178042 4.95593408,16.6126546 4.95593408,16.903134 C4.95593408,17.1936134 4.84922736,17.1995416 4.84922736,17.4959491 C4.84922736,17.7923566 4.84922736,17.7923566 4.84922736,18.0887642 C4.84922736,18.3851717 4.93814963,18.3851717 4.93814963,18.6815793 C4.93814963,18.9779868 4.93814963,18.9779868 4.93814963,19.2743943 C4.93814963,19.5708019 4.90258072,19.5708019 4.90258072,19.8672094 C4.90258072,20.163617 4.90258072,20.1695451 4.90258072,20.4600245 C4.90258072,20.7505039 5.1337786,20.8809232 4.90258072,21.1002648 C4.67138284,21.3196064 4.58246058,21.1002648 4.30976564,21.1002648 C4.0370707,21.1002648 4.0370707,21.0646959 3.76437577,21.0646959 C3.49168083,21.0646959 3.49760898,21.1417618 3.22491404,21.1417618 C2.9522191,21.1417618 2.89886575,21.2366123 2.70916492,21.0409833 C2.5194641,20.8453543 2.70916492,20.7920009 2.70916492,20.5133779 C2.70916492,20.2347548 2.62617081,20.2347548 2.62617081,19.9561317 C2.62617081,19.6775086 2.71509307,19.6775086 2.71509307,19.3988855 C2.71509307,19.1202624 2.65581156,19.1202624 2.65581156,18.8357112 C2.65581156,18.5511599 2.70323677,18.5630162 2.70323677,18.2843932 C2.70323677,18.0057701 2.70323677,18.0057701 2.70323677,17.727147 C2.70323677,17.4485239 2.60245821,17.4425957 2.60245821,17.1639727 C2.60245821,16.8853496 2.60245821,16.8853496 2.60245821,16.6067265 C2.60245821,16.3281034 2.64395526,16.3281034 2.64395526,16.0435521 C2.64395526,15.7590009 2.57281745,15.7649291 2.57281745,15.486306 C2.57281745,15.2076829 2.57281745,15.2076829 2.57281745,14.9231316 C2.57281745,14.6385804 2.57281745,14.6445086 2.57281745,14.3658855 C2.57281745,14.0872624 2.57281745,14.0872624 2.57281745,13.8086393 C2.57281745,13.5300162 2.53724855,13.5240881 2.53724855,13.245465 C2.53724855,12.9668419 2.53724855,12.9668419 2.53724855,12.6526499 C2.53724855,12.3384579 2.5787456,12.3740268 2.5787456,12.0894756 C2.5787456,11.8049243 2.42461368,11.7574991 2.62024266,11.5500138 C2.81587164,11.3425286 2.86329684,11.4848042 3.13006363,11.4848042 C3.39683042,11.4848042 3.40275857,11.5737264 3.6754535,11.5737264 C3.94814844,11.5737264 3.94814844,11.5381575 4.21491523,11.5381575 C4.48168201,11.5381575 4.61802948,11.2891752 4.80773031,11.4848042 C4.99743113,11.6804332 4.75437695,11.8227088 4.75437695,12.1191163 C4.75437695,12.4155239 4.83737106,12.4155239 4.83737106,12.7119314 C4.83737106,13.0083389 4.74252065,13.0142671 4.74252065,13.3047465 C4.74252065,13.5952259 4.80773031,13.601154 4.80773031,13.8975616 C4.80773031,14.1939691 4.69509544,14.1939691 4.69509544,14.4903766 C4.69509544,14.7867842 4.56467613,14.8638501 4.7721614,15.0831917 C4.97964668,15.3025333 5.04485634,15.1484014 5.31755128,15.1484014 C5.59024622,15.1484014 5.59617437,15.1484014 5.87479745,15.1484014 C6.15342054,15.1484014 6.14749239,15.0594791 6.42611548,15.0594791 C6.70473857,15.0594791 6.70473857,15.0594791 6.98336166,15.0594791 C7.26198474,15.0594791 7.25605659,15.1424732 7.53467968,15.1424732 C7.81330277,15.1424732 7.81330277,15.1839703 8.09192586,15.1839703 C8.37054895,15.1839703 8.48318381,15.3499585 8.68474094,15.1424732 C8.88629807,14.9349879 8.68474094,14.8282812 8.68474094,14.5496581 C8.68474094,14.2710351 8.68474094,14.2532506 8.68474094,13.9568431 C8.68474094,13.6604355 8.73216615,13.6604355 8.73216615,13.364028 C8.73216615,13.0676204 8.89222622,13.0439078 8.89222622,12.7178595 C8.89222622,12.3918112 8.7855195,12.4155239 8.7855195,12.1250445 C8.7855195,11.8345651 8.66102834,11.751571 8.86258546,11.5322294 C9.06414259,11.3128878 9.12935225,11.4492353 9.40204719,11.4492353 L9.94150891,11.4492353 C10.2142038,11.4492353 10.2319883,11.6448642 10.4987551,11.5855827 C10.7655219,11.5263012 10.8544441,11.3306723 11.044145,11.5263012 Z" id="Path"></path>
                <path d="M18.4128364,18.6578667 C18.1697822,18.5037347 18.122357,18.7467889 17.8200213,18.7467889 C17.5176856,18.7467889 17.529542,18.6815793 17.2272063,18.6815793 C16.9248706,18.6815793 16.9367269,18.6460104 16.6343912,18.6460104 C16.3320555,18.6460104 16.3439118,18.6460104 16.0415761,18.6460104 C15.7392404,18.6460104 15.7510967,18.6045133 15.448761,18.6045133 C15.1464253,18.6045133 15.1582816,18.6519385 14.8559459,18.6519385 C14.5536102,18.6519385 14.5654665,18.6045133 14.3164842,18.7527171 C14.0675019,18.9009208 14.1208552,18.9009208 14.031933,19.1380469 C13.9430107,19.3751729 14.0793582,19.4225981 13.9904359,19.6597241 C13.9015137,19.8968502 13.8600166,19.8849939 13.7710943,20.1221199 C13.6821721,20.3592459 13.6999565,20.3711022 13.6110343,20.6082283 C13.522112,20.8453543 13.6110343,20.9757736 13.403549,21.1061929 C13.1960637,21.2366123 13.0537881,21.0469114 12.7218116,21.0469114 C12.3898352,21.0469114 12.3127692,21.2840375 12.0934277,21.0469114 C11.8740861,20.8097854 12.1942062,20.8275699 12.2890566,20.5608031 C12.383907,20.2940363 12.34241,20.28218 12.4372604,20.0154132 C12.5321108,19.7486464 12.5439671,19.7545746 12.6447457,19.4878078 C12.7455242,19.221041 12.7633087,19.2328973 12.8640873,18.9720586 L13.0656444,18.4444532 C13.166423,18.1836146 13.1545667,18.1776864 13.2553452,17.9168478 C13.3561238,17.6560092 13.2553452,17.6204403 13.3679801,17.3596016 C13.4806149,17.098763 13.5517528,17.1284037 13.6525313,16.861637 C13.7533099,16.5948702 13.6525313,16.5711576 13.7770225,16.3043908 C13.9015137,16.037624 13.9845078,16.0850492 14.0852863,15.8182824 C14.1860649,15.5515156 14.2038493,15.5633719 14.3046279,15.2966051 C14.4054065,15.0298384 14.3639094,15.0179821 14.464688,14.7571434 C14.5654665,14.4963048 14.4943287,14.4607359 14.5891791,14.1998972 C14.6840296,13.9390586 14.7077422,13.9390586 14.8085207,13.67822 C14.9092993,13.4173813 14.9152274,13.4173813 15.0100779,13.1506146 C15.1049283,12.8838478 15.1642098,12.9075604 15.2649883,12.6407936 C15.3657669,12.3740268 15.3539106,12.3680986 15.4546892,12.1013319 C15.5554677,11.8345651 15.4546892,11.7752836 15.6681026,11.6152235 C15.881516,11.4551634 15.9230131,11.5796546 16.2194206,11.5796546 C16.5158282,11.5796546 16.5217563,11.5796546 16.8122357,11.5796546 C17.1027151,11.5796546 17.1086432,11.5144449 17.4050508,11.5144449 C17.7014583,11.5144449 17.7488835,11.4255227 17.9978659,11.5915109 C18.2468482,11.7574991 18.122357,11.8345651 18.2231356,12.0954037 C18.3239142,12.3562423 18.2231356,12.3977394 18.317986,12.6882188 C18.4128364,12.9786982 18.436549,12.9431293 18.5373276,13.2098961 C18.6381062,13.4766628 18.7151721,13.4410939 18.8159507,13.7078607 C18.9167292,13.9746275 18.9285855,13.9627712 19.0293641,14.229538 C19.1301427,14.4963048 19.0945738,14.5022329 19.1894242,14.7630716 C19.2842746,15.0239102 19.302059,15.0239102 19.4028376,15.2847488 C19.5036162,15.5455875 19.5451132,15.5337312 19.6458918,15.800498 C19.7466704,16.0672648 19.7111015,16.0731929 19.81188,16.3399597 C19.9126586,16.6067265 19.8711615,16.6185828 19.9719401,16.8794214 C20.0727186,17.14026 20.1438565,17.1165474 20.244635,17.3833142 C20.3454136,17.650081 20.244635,17.6856499 20.3394854,17.9761293 C20.4343358,18.2666087 20.4224795,18.2428961 20.51733,18.5096629 C20.6121804,18.7764297 20.6951745,18.7408608 20.795953,19.0076276 C20.8967316,19.2743943 20.795953,19.3040351 20.9145161,19.6004426 C21.0330791,19.8968502 21.068648,19.8434968 21.1694266,20.1102636 C21.2702051,20.3770304 21.2227799,20.3888867 21.3235585,20.6556535 C21.424337,20.9224203 21.6792475,20.8987077 21.5073311,21.1299055 C21.3354148,21.3611034 21.2761333,21.1951152 20.9797257,21.1951152 C20.6833182,21.1951152 20.6833182,21.1951152 20.3869106,21.1951152 C20.0905031,21.1951152 20.0964313,21.1536181 19.7940956,21.1536181 C19.4917599,21.1536181 19.4146939,21.3729597 19.1597834,21.2188278 C18.9048729,21.0646959 19.0530767,20.9402047 18.9641544,20.7030787 C18.8752322,20.4659527 18.9048729,20.4540964 18.8159507,20.2169703 C18.7270284,19.9798443 18.750741,19.967988 18.6618188,19.730862 C18.5728965,19.4937359 18.4839742,19.5115204 18.4424772,19.262538 C18.4009801,19.0135557 18.6262499,18.7942141 18.4128364,18.6578667 Z M17.9682251,17.4722365 C18.1164289,17.2351105 17.7844524,17.2351105 17.689602,16.9742718 C17.5947516,16.7134332 17.648105,16.6897206 17.5473264,16.4229538 C17.4465478,16.156187 17.4821167,16.1502589 17.3872663,15.8894202 C17.2924159,15.6285816 17.3102004,15.6167253 17.21535,15.3558867 C17.1204995,15.095048 17.1501403,15.0831917 17.0552899,14.8164249 C16.9604395,14.5496581 16.9130143,14.5674426 16.8181639,14.306604 C16.7233134,14.0457653 16.6047504,14.0813342 16.5099,13.8204956 C16.4150496,13.559657 16.6699601,13.1980398 16.3854088,13.1980398 C16.1008576,13.1980398 16.3854088,13.5537288 16.2609177,13.7908548 C16.1364265,14.0279809 16.1186421,14.0398372 16.0237916,14.3006758 C15.9289412,14.5615144 15.9467257,14.5674426 15.8459471,14.8342094 C15.7451686,15.1009762 15.7392404,15.0891199 15.6384618,15.3499585 C15.5376833,15.6107971 15.4843299,15.5930127 15.3835514,15.8538513 C15.2827728,16.11469 15.2590602,16.1087618 15.1642098,16.3696004 C15.0693594,16.6304391 15.0693594,16.6422954 14.974509,16.903134 C14.8796585,17.1639727 14.6781014,17.1936134 14.8263052,17.4366676 C14.974509,17.6797218 15.0693594,17.4366676 15.330198,17.4366676 C15.5910366,17.4366676 15.5910366,17.4366676 15.8578034,17.4366676 L16.9070861,17.4366676 C17.1679248,17.4366676 17.1975655,17.2825357 17.452476,17.3477453 C17.7073865,17.412955 17.8259495,17.7034344 17.9682251,17.4781646 L17.9682251,17.4722365 Z" id="Shape"></path>
                <path d="M26.8545232,21.3018219 L26.8545232,21.3907442 C26.8545232,21.3907442 26.8545232,21.3314627 26.8545232,21.3314627 C26.8545232,21.3314627 26.8545232,21.2958938 26.8545232,21.2958938 L26.8545232,21.2958938 C26.6648224,21.2958938 26.4810497,21.2484686 26.3091333,21.2366123 C26.1372169,21.224756 25.9356598,21.2366123 25.7578153,21.2366123 C25.5799708,21.2366123 25.3665573,21.2899656 25.1650002,21.2366123 C24.9634431,21.1832589 24.8448801,20.9935581 24.6788918,20.9342766 C24.5129036,20.8749951 24.2698494,20.9342766 24.0860767,20.8453543 C23.9293411,20.742222 23.7807057,20.6272772 23.6414654,20.5015216 C23.4890215,20.3957217 23.3461939,20.2766987 23.2146386,20.1458325 C23.0903674,20.0061754 22.9792382,19.8553571 22.8826621,19.695293 C22.7987651,19.5303848 22.7312558,19.3576404 22.681105,19.1795439 C22.6136766,19.0102855 22.5601462,18.8358163 22.5210449,18.6578667 C22.4698256,18.484435 22.4282647,18.308296 22.3965538,18.1302612 C22.3473363,17.9527096 22.3077575,17.772626 22.2779908,17.5907995 C22.2779908,17.412955 22.2779908,17.2291823 22.2779908,17.0394815 C22.2779908,16.8497807 22.2779908,16.7667865 22.2779908,16.4940916 L22.2779908,15.9487017 C22.2779908,15.6700786 22.2779908,15.6700786 22.2779908,15.3973837 C22.2779908,15.1246888 22.1890685,15.1246888 22.1890685,14.8519938 C22.1890685,14.5792989 22.2779908,14.5733707 22.2779908,14.3006758 C22.2779908,14.0279809 22.2009248,14.0279809 22.2009248,13.7552859 C22.2009248,13.482591 22.3194878,13.482591 22.3194878,13.2098961 C22.3194878,12.9372011 22.3194878,12.931273 22.3194878,12.658578 C22.3194878,12.3858831 22.2779908,12.3799549 22.2779908,12.10726 C22.2779908,11.8345651 22.0230803,11.7219302 22.2127811,11.5144449 C22.4024819,11.3069596 22.5151168,11.5144449 22.8055962,11.5144449 C23.0960756,11.5144449 23.072363,11.5144449 23.3450579,11.5144449 C23.6177528,11.5144449 23.6177528,11.5677983 23.8904478,11.5677983 C24.1631427,11.5677983 24.2224242,11.3543849 24.412125,11.5677983 C24.6018259,11.7812117 24.3646998,11.8227088 24.3646998,12.0954037 C24.3646998,12.3680986 24.4180532,12.3680986 24.4180532,12.6407936 C24.4180532,12.9134885 24.4180532,12.9134885 24.4180532,13.1921116 C24.4180532,13.4707347 24.4832629,13.4648065 24.4832629,13.7375015 C24.4832629,14.0101964 24.4061969,14.0101964 24.4061969,14.2828914 C24.4061969,14.5555863 24.4476939,14.5555863 24.4476939,14.8282812 C24.4476939,15.1009762 24.3350591,15.1069043 24.3350591,15.3795993 C24.3350591,15.6522942 24.3350591,15.6582223 24.3350591,15.9309173 C24.3350591,16.2036122 24.4180532,16.2036122 24.4180532,16.4822353 C24.4180532,16.7608584 24.4180532,16.7549302 24.4180532,17.0335533 C24.4180532,17.3121764 24.4180532,17.412955 24.4180532,17.5967277 C24.4180532,17.7805003 24.4595503,17.9702012 24.489191,18.1539738 C24.5323422,18.3348739 24.5918693,18.5114708 24.6670355,18.6815793 C24.7095943,18.8604097 24.7732754,19.0335425 24.8567364,19.1973284 C24.9427128,19.3644877 25.0525452,19.5182531 25.1827847,19.653796 C25.3422648,19.7491584 25.513704,19.8229171 25.6926056,19.8731376 C25.8526657,19.9442754 26.0008695,20.1043355 26.1964984,20.1339762 C26.3917616,20.1733597 26.5901585,20.1951834 26.7893135,20.1991859 C26.9899505,20.1737317 27.1882012,20.1320991 27.3821286,20.0746947 C27.5804632,20.0748075 27.778559,20.0609408 27.9749437,20.0331976 C28.1502273,19.9529958 28.3137672,19.8492875 28.461052,19.7249338 C28.6284045,19.6299104 28.7803231,19.5099746 28.9115915,19.3692448 C29.0365274,19.2211991 29.1421069,19.0578497 29.2257835,18.8831364 C29.273532,18.6886746 29.3032981,18.4902342 29.3147058,18.2903213 C29.3527934,18.1082695 29.3805028,17.9241999 29.3976999,17.7390033 C29.4373725,17.5549949 29.4670566,17.3689741 29.4866221,17.1817571 C29.4866221,16.9979844 29.4273406,16.8082836 29.4273406,16.588942 C29.4273406,16.3696004 29.4273406,16.3103189 29.4273406,15.9961269 C29.4273406,15.6819349 29.4629095,15.7115757 29.4629095,15.4329526 C29.4629095,15.1543295 29.4629095,15.1484014 29.4629095,14.8697783 C29.4629095,14.5911552 29.4214125,14.585227 29.4214125,14.2769632 C29.4214125,13.9686994 29.4214125,13.9983401 29.4214125,13.7137889 C29.4214125,13.4292376 29.4629095,13.4351658 29.4629095,13.1506146 C29.4629095,12.8660633 29.5162629,12.8660633 29.5162629,12.5577995 C29.5162629,12.2495356 29.4391969,12.2732482 29.4391969,11.9649844 C29.4391969,11.6567205 29.2969213,11.6211516 29.5103347,11.437379 C29.7237482,11.2536063 29.8067423,11.437379 30.1387187,11.437379 C30.4706952,11.437379 30.58333,11.164684 30.8382405,11.3780975 C31.093151,11.5915109 30.7908153,11.7041458 30.7908153,11.9709125 C30.7908153,12.2376793 30.8738094,12.2495356 30.8738094,12.5637276 C30.8738094,12.8779196 30.778959,12.8482789 30.778959,13.1269019 C30.778959,13.405525 30.8441687,13.4114532 30.8441687,13.719717 C30.8441687,14.0279809 30.7256057,13.9983401 30.7256057,14.2769632 C30.7256057,14.5555863 30.8026716,14.5615144 30.8026716,14.8697783 C30.8026716,15.1780421 30.737462,15.1543295 30.737462,15.4329526 C30.737462,15.7115757 30.737462,15.7175039 30.737462,16.0257677 C30.737462,16.3340315 30.8263842,16.3103189 30.8263842,16.6185828 L30.8263842,16.6185828 C30.8263842,16.8023555 30.737462,16.9861281 30.7315338,17.1639727 C30.7256057,17.3418172 30.6722523,17.531518 30.660396,17.7093625 C30.6485397,17.8872071 30.660396,18.0769079 30.6188989,18.2547524 C30.5852268,18.4328997 30.5416867,18.6090394 30.4884796,18.7823578 C30.446928,18.9590036 30.3954693,19.1331713 30.3343477,19.3040351 C30.2521846,19.4637419 30.1570128,19.6164135 30.0497965,19.7605027 C29.9711941,19.9222041 29.8758201,20.0751998 29.7652452,20.2169703 C29.6466822,20.3533178 29.5814726,20.5548749 29.4332688,20.6615816 C29.2682434,20.7499419 29.0956379,20.8233488 28.9175197,20.8809232 C28.7667023,20.9888844 28.6059111,21.082183 28.4373394,21.1595463 C28.261151,21.2168655 28.0807924,21.2604687 27.8978777,21.2899656 C27.7318895,21.3255345 27.5303324,21.2069715 27.3406315,21.224756 C27.1509307,21.2425404 27.044224,21.3018219 26.8545232,21.3018219 Z" id="Path"></path>
                <path d="M40.9042406,18.4385251 C40.9202792,18.616008 40.9202792,18.7945757 40.9042406,18.9720586 C40.7910577,19.3180092 40.6141184,19.639717 40.3825633,19.9205628 C40.2716467,20.0561474 40.1464316,20.1793749 40.0090898,20.2881081 C39.867439,20.3958344 39.7166917,20.4910432 39.5585504,20.5726594 C39.4188745,20.6784944 39.2700879,20.771734 39.1139391,20.8512825 C38.9598071,20.9224203 38.8293878,21.0943366 38.6515433,21.14769 C38.4736988,21.2010434 38.2721416,21.1002648 38.0942971,21.14769 C37.9164526,21.1951152 37.774177,21.3551753 37.5904043,21.3788879 C37.4066316,21.4026005 37.2287871,21.3788879 37.0450144,21.3788879 C36.8612417,21.3788879 36.6893254,21.4203849 36.5055527,21.4203849 C36.32178,21.4203849 36.1320792,21.4203849 35.9483065,21.384816 C35.7640919,21.3471977 35.5820326,21.299704 35.4029167,21.2425404 C35.219144,21.2069715 35.0472276,21.1417618 34.8693831,21.0943366 C34.6915386,21.0469114 34.5077659,20.9935581 34.3358495,20.9283484 C34.1639331,20.8631388 33.9683042,20.8394262 33.8023159,20.7623602 C33.6357282,20.6798248 33.4734794,20.5888072 33.3162076,20.4896653 C33.1620034,20.385152 33.0135816,20.2723514 32.8715963,20.1517607 C32.7270833,20.0365183 32.5904315,19.9117492 32.4625538,19.7782872 C32.332796,19.6494764 32.2156742,19.5085333 32.1127929,19.3573885 C32.2153774,19.2130409 32.3283092,19.0763339 32.4506975,18.948346 C32.5751887,18.8416393 32.7708177,18.788286 32.9130933,18.669723 C33.0553689,18.5511599 33.1502193,18.3733154 33.2747105,18.2666087 C33.4157554,18.1783329 33.5622797,18.0991306 33.7133937,18.0294827 C33.8004407,18.1990751 33.8974363,18.3633738 34.0038731,18.5215192 C34.1165079,18.6756511 34.276568,18.8060704 34.4129155,18.9602023 C34.5492629,19.1143343 34.7448919,19.1854721 34.8930957,19.3158914 C35.0377902,19.4498314 35.1923586,19.5726934 35.3554914,19.6834367 C35.5187337,19.7932231 35.6913149,19.8884404 35.8712406,19.967988 C36.2100565,20.1935721 36.6160021,20.2961047 37.0213018,20.2584674 C37.1989574,20.2700615 37.3771798,20.2700615 37.5548354,20.2584674 C37.7320147,20.2210673 37.9048507,20.1654419 38.0705845,20.0924792 C38.2347798,20.03744 38.3904318,19.959614 38.5329803,19.8612813 C38.6616223,19.745833 38.7611546,19.6016127 38.8234597,19.4403826 C38.9302092,19.3028127 38.9978012,19.1389535 39.0190886,18.9661305 C39.0063619,18.7659265 38.9386709,18.5731097 38.8234597,18.4088843 C38.7460799,18.2159247 38.6335094,18.0390281 38.4914832,17.8872071 C38.3241984,17.7686915 38.1477767,17.6636314 37.9638778,17.5730151 C37.7978896,17.4900209 37.578548,17.4781646 37.3710627,17.3951705 C37.1635774,17.3121764 37.0035174,17.2706794 36.7782476,17.2054697 C36.5529779,17.14026 36.4166304,17.0454096 36.1854326,16.9861281 C35.9542347,16.9268466 35.7941746,16.9090622 35.5926175,16.861637 C35.3910603,16.8142118 35.1954314,16.8082836 34.9998024,16.7608584 C34.8041734,16.7134332 34.6263289,16.6126546 34.4484844,16.5593013 C34.2706398,16.5059479 34.0868672,16.3873849 33.9149508,16.3162471 C33.7255494,16.2619494 33.5394835,16.1966284 33.3577046,16.1206181 C33.1857882,16.0139114 33.096866,15.8064261 32.9605185,15.6760068 C32.8302791,15.5404639 32.7204467,15.3866985 32.6344702,15.2195392 C32.5182283,15.062267 32.4263018,14.888406 32.3617753,14.7037901 C32.3540613,14.5056971 32.3639806,14.3073105 32.391416,14.110975 C32.3722231,13.913836 32.3722231,13.7152989 32.391416,13.5181599 C32.4388976,13.3353833 32.5064962,13.158434 32.5929732,12.9905545 C32.672015,12.8227822 32.7715789,12.6654712 32.8893807,12.5222306 C32.9702402,12.3491277 33.0739162,12.1876325 33.1976445,12.0420503 C33.3419715,11.9148108 33.4966372,11.799803 33.6600403,11.6982176 C33.8343949,11.6188208 34.0147832,11.5534053 34.199502,11.5025886 C34.3698538,11.4118042 34.5461203,11.3325833 34.7271075,11.2654626 C34.9130896,11.2242508 35.1010606,11.1925925 35.2902818,11.1706122 C35.4740545,11.1706122 35.6696834,11.1706122 35.8830969,11.1706122 C36.0965103,11.1706122 36.2565704,11.1706122 36.4759119,11.1706122 C36.6952535,11.1706122 36.8612417,11.1350433 37.068727,11.1706122 C37.2762123,11.2061811 37.4540568,11.2002529 37.6615421,11.2298937 C37.8469289,11.2726552 38.0291554,11.3281155 38.206932,11.3958819 C38.3830242,11.4632724 38.5552095,11.5404589 38.7226811,11.6270798 C38.9084578,11.675822 39.0906802,11.737223 39.268071,11.8108525 C39.4281311,11.8997747 39.5348378,12.0776193 39.6889697,12.1961823 C40.00824,12.4170726 40.3095392,12.6628693 40.5900486,12.931273 C40.48927,12.9964826 40.2817848,13.091333 40.1098684,13.2039679 C39.937952,13.3166028 39.8727424,13.4470221 39.7245386,13.5418725 C39.5763348,13.6367229 39.3807058,13.6426511 39.2443584,13.7256452 C39.1080109,13.8086393 38.9242382,13.9686994 38.7997471,14.0398372 C38.716753,13.8560645 38.7108248,13.6070822 38.6159744,13.4470221 C38.4928785,13.294266 38.35376,13.1551475 38.2010038,13.0320515 C38.0773215,12.8795869 37.9360406,12.7422858 37.7801051,12.6230091 C37.6050335,12.5326271 37.4200083,12.462994 37.2287871,12.4155239 C37.0315023,12.3996135 36.8332568,12.3996135 36.635972,12.4155239 C36.4581275,12.4155239 36.2684267,12.4155239 36.0431569,12.4155239 C35.8322008,12.3953501 35.619801,12.3953501 35.4088448,12.4155239 C35.2038101,12.4431255 35.00402,12.5010647 34.8160297,12.5874402 C34.6268265,12.6942204 34.4677489,12.8471796 34.353634,13.0320515 C34.2362625,13.208055 34.1705456,13.4134202 34.1639331,13.6248666 C34.1657534,13.8154011 34.2081947,14.0033555 34.2884243,14.1761846 C34.3531152,14.3574242 34.4609498,14.5201934 34.6026163,14.6504367 C34.7583093,14.7573678 34.9253039,14.8468292 35.100581,14.9172035 C35.2487847,14.9883413 35.45627,14.9646287 35.651899,15.0298384 C35.847528,15.095048 35.966091,15.2076829 36.16172,15.2610362 C36.3573489,15.3143896 36.5292653,15.2610362 36.754535,15.3084614 L36.754535,15.3084614 C36.9442359,15.3618148 37.0865115,15.5455875 37.264356,15.5930127 C37.4422005,15.6404379 37.6733984,15.5633719 37.8571711,15.5930127 C38.0409438,15.6226534 38.1832194,15.8242106 38.3551358,15.8834921 C38.5270521,15.9427736 38.7226811,15.9901988 38.8886693,16.0613366 C39.0576013,16.1386668 39.2218911,16.2257602 39.3807058,16.3221752 C39.5568728,16.384861 39.7291014,16.4581076 39.896455,16.5415168 C40.043114,16.6566172 40.1763484,16.7878631 40.2936411,16.9327748 C40.4241159,17.0628929 40.5358465,17.2105369 40.6256175,17.3714579 C40.7194025,17.5331049 40.7911749,17.706555 40.8390309,17.8872071 C40.8793046,18.0683103 40.9011524,18.2530235 40.9042406,18.4385251 Z" id="Path"></path>
                <path d="M46.0617318,14.9942695 C46.010257,15.1749299 45.9448513,15.3513271 45.8661028,15.5218749 C45.8022508,15.6861128 45.7143443,15.8399492 45.6052642,15.9783425 C45.492242,16.1169064 45.3582241,16.2369224 45.2080781,16.3340315 C45.0501077,16.4225247 44.8804847,16.4883784 44.7041853,16.5296605 C44.5381971,16.5652294 44.3544244,16.4644509 44.1765799,16.4644509 C44.0261642,16.4939835 43.8733864,16.5098565 43.7201122,16.5118761 C43.576025,16.4670657 43.4369611,16.4074668 43.3051417,16.3340315 C43.1649184,16.2785368 43.0316271,16.2069176 42.9079556,16.1206181 C42.8090025,16.0062696 42.7234748,15.8809615 42.6530451,15.7471446 C42.5473493,15.6385117 42.4557324,15.5170197 42.3803502,15.3855274 C42.331601,15.2428238 42.295886,15.0959954 42.2736434,14.9468442 C42.2619496,14.7988712 42.2619496,14.650206 42.2736434,14.5022329 C42.2736434,14.3421729 42.1906493,14.1880409 42.2143619,14.0457653 C42.2385891,13.8925663 42.2762801,13.7418025 42.3269968,13.5952259 C42.4064062,13.4648869 42.4998364,13.3436265 42.6056199,13.2336087 C42.6993472,13.1161077 42.8091002,13.0123413 42.9316682,12.9253448 C43.0419374,12.8287667 43.1657691,12.7488753 43.2992135,12.6882188 C43.4319664,12.6195493 43.5736221,12.5696706 43.7201122,12.540015 C43.8635954,12.4845412 44.0126703,12.4447879 44.1647236,12.421452 C44.3407839,12.4365588 44.514144,12.4744191 44.6804727,12.5340869 C44.8458374,12.5889854 45.0017879,12.6689601 45.1428684,12.7712129 C45.2910722,12.8660633 45.4985575,12.8957041 45.6171205,13.0261234 C45.7160113,13.1755918 45.7956804,13.3369218 45.8542465,13.5063036 C45.9260688,13.6575413 45.9797936,13.816726 46.0143066,13.9805557 C45.8951836,14.0685177 45.7530848,14.1200028 45.6052642,14.1287594 C45.4615694,14.1672499 45.3102759,14.1672499 45.166581,14.1287594 C45.1288897,13.9846073 45.0793189,13.8438261 45.0183773,13.7078607 C44.9982361,13.5624671 44.9520483,13.4218955 44.8820298,13.2928902 C44.8256165,13.1531027 44.7311433,13.0319306 44.6093349,12.9431293 C44.4708451,12.8758151 44.3187027,12.8413295 44.1647236,12.8423507 C43.9871717,12.8582605 43.8201317,12.9334285 43.6904715,13.0557641 C43.5600522,13.1565427 43.3762795,13.245465 43.2992135,13.4233095 C43.2356246,13.5908421 43.195719,13.7664268 43.1806505,13.9449868 C43.1408059,14.1203058 43.1169952,14.2988864 43.1095127,14.4785203 C43.1095127,14.662293 43.2458602,14.8342094 43.2755009,15.0001976 C43.2914645,15.1703406 43.3293222,15.3377116 43.3881358,15.4981623 C43.4396294,15.6654837 43.5335776,15.8166177 43.6608307,15.9368454 C43.8011439,16.0599639 43.9784001,16.1329517 44.1647236,16.1443307 C44.3186801,16.1342355 44.4675668,16.0852864 44.5974786,16.0020551 C44.721255,15.9227255 44.8264128,15.8175677 44.9057424,15.6937913 C44.9850411,15.5712992 45.0450241,15.4373371 45.0835869,15.2966051 C45.1245913,15.1534853 45.1504222,15.006448 45.1606529,14.857922 C45.3799945,14.8164249 45.3799945,14.9587005 45.599336,14.9527724 C45.8186776,14.9468442 45.8779591,14.8757064 46.0617318,14.9942695 Z" id="Path"></path>
                <path d="M46.3699957,19.0491246 C46.3611967,19.2032332 46.337371,19.3561144 46.2988578,19.5055922 C46.2746306,19.6587912 46.2369397,19.8095551 46.186223,19.9561317 C46.1264954,20.1003925 46.0509432,20.2375795 45.9609532,20.3651741 C45.8619244,20.4888798 45.7484876,20.6003265 45.6230487,20.6971505 C45.5044856,20.7920009 45.3147848,20.7682883 45.1725092,20.833498 C45.0302336,20.8987077 44.9235269,21.0231988 44.7693949,21.0528396 C44.6156311,21.0679033 44.460763,21.0679033 44.3069992,21.0528396 C44.1552139,21.0678582 44.0023168,21.0678582 43.8505316,21.0528396 C43.7051266,21.0013339 43.565938,20.933728 43.435561,20.8512825 C43.2903212,20.8070141 43.1509818,20.7453067 43.0205904,20.6675098 C42.9010018,20.5696646 42.7952993,20.4559846 42.7063985,20.3296052 C42.62862,20.2012986 42.5669001,20.063922 42.5226258,19.9205628 C42.4574161,19.7842153 42.3151405,19.6715804 42.2854997,19.5174485 C42.2508237,19.3655979 42.2309701,19.2107398 42.2262182,19.0550528 C42.2483147,18.8994958 42.2860508,18.7465653 42.3388531,18.5985851 C42.3755298,18.4516278 42.4313358,18.3101198 42.5048413,18.1776864 C42.5611496,18.0385327 42.6348495,17.9070681 42.7241829,17.7864285 C42.8165229,17.6664517 42.9218992,17.5570989 43.0383749,17.4603802 C43.1471866,17.3504308 43.2662952,17.2511736 43.3940639,17.1639727 C43.5433562,17.1198713 43.6960286,17.0881471 43.8505316,17.0691222 C44.0023334,17.0544432 44.1551973,17.0544432 44.3069992,17.0691222 C44.4670592,17.0691222 44.6330475,16.9742718 44.7812512,17.0039126 C44.9280691,17.0565406 45.0691057,17.1240793 45.2021499,17.2054697 C45.3370094,17.2765373 45.4624705,17.3641609 45.5756234,17.4663083 C45.7114522,17.5405651 45.8370044,17.6322382 45.9490969,17.7390033 C46.0297215,17.8736956 46.0953237,18.0168276 46.1447259,18.1658301 C46.2298185,18.29652 46.301328,18.4355663 46.3581394,18.5808007 C46.3766623,18.7361992 46.3806316,18.8929879 46.3699957,19.0491246 L46.3699957,19.0491246 Z M45.3799945,19.0491246 C45.3920918,18.9051266 45.3920918,18.7603676 45.3799945,18.6163696 C45.3496453,18.4765681 45.3018455,18.3411353 45.2377188,18.2132553 C45.18445,18.0822026 45.1081575,17.9617407 45.0124491,17.8575663 C44.9324459,17.7491037 44.8291309,17.6599692 44.7101134,17.5967277 C44.5856223,17.5255899 44.4729874,17.3833142 44.3188555,17.3833142 C44.1647236,17.3833142 44.0461605,17.5018772 43.9216694,17.5730151 C43.789098,17.62819 43.6698482,17.7110585 43.5719085,17.8160692 C43.4931118,17.9375071 43.4312821,18.0691445 43.3881358,18.2073272 C43.3103774,18.331445 43.2486298,18.4648994 43.2043631,18.6045133 C43.1930275,18.7525003 43.1930275,18.9011376 43.2043631,19.0491246 C43.1922936,19.1931238 43.1922936,19.3378804 43.2043631,19.4818796 C43.21168,19.6283524 43.2355443,19.7735273 43.2755009,19.9146346 C43.3288543,20.0569102 43.4889144,20.1399044 43.5719085,20.2466111 C43.6587398,20.3524112 43.76811,20.4374769 43.8920286,20.4955934 C44.0034249,20.5842058 44.1364393,20.6415043 44.2773584,20.6615816 C44.426338,20.6714463 44.5753535,20.6428679 44.7101134,20.5785875 C44.8393039,20.5052448 44.952247,20.4064196 45.0420899,20.2881081 C45.1276081,20.169168 45.1973507,20.0396459 45.2495751,19.9027783 C45.2809614,19.760662 45.2968626,19.6155642 45.2970004,19.4700233 C45.3371694,19.3324814 45.364945,19.1916197 45.3799945,19.0491246 Z" id="Shape"></path>
                <path d="M47.0695174,20.5548749 C47.0811696,20.4272909 47.1404298,20.3087706 47.2355057,20.2228985 C47.320655,20.1227578 47.4423334,20.0608513 47.5734103,20.0509821 C47.7086886,20.048733 47.8398733,20.0973983 47.9409556,20.1873296 C48.0332115,20.2883848 48.0876682,20.4182431 48.0950875,20.5548749 C48.0950875,20.6852942 47.9409556,20.756432 47.8579615,20.8453543 C47.7749674,20.9342766 47.6979014,21.0528396 47.5734103,21.0528396 C47.4465577,21.0399448 47.3296642,20.9783101 47.247362,20.8809232 C47.1482526,20.7992412 47.0845348,20.6824253 47.0695174,20.5548749 Z" id="Path"></path>
                <path d="M48.6108367,24.4259574 C47.9015642,24.1220382 47.107379,24.0800178 46.3699957,24.3073944 C46.0604962,24.3920443 45.7455693,24.4554258 45.4274197,24.4970952 C44.9714114,24.5639227 44.508097,24.5639227 44.0520887,24.4970952 C43.6135001,24.4435036 43.1719559,24.4177633 42.7301111,24.4200292 L41.3192112,24.4200292 C40.9694503,24.4200292 40.6256175,24.4200292 39.937952,24.4200292 L37.145793,24.4200292 C36.4640556,24.4200292 36.1202229,24.4200292 35.7763902,24.4200292 C35.4325574,24.4200292 35.0650121,24.4200292 34.3595621,24.4200292 C33.6541122,24.4200292 33.2747105,24.4200292 32.9190215,24.4555982 C32.5633324,24.4911671 32.2432123,24.4911671 31.5674031,24.4911671 C30.8915939,24.4911671 30.5359048,24.4911671 30.1920721,24.4911671 C29.8482393,24.4911671 29.4866221,24.4911671 28.775244,24.4911671 L27.3702723,24.4911671 L25.983085,24.4911671 C25.5456444,24.4941889 25.1083437,24.4744015 24.6729637,24.4318855 C24.1826385,24.3806679 23.6898322,24.3569182 23.1968541,24.3607477 C22.701768,24.3578033 22.2069269,24.383535 21.7148164,24.4378137 C20.845546,24.5247406 19.9697723,24.5247406 19.1005019,24.4378137 C18.6086282,24.380667 18.1136123,24.3549262 17.6184642,24.3607477 L14.820377,24.3607477 C14.0971426,24.3607477 13.7295973,24.3607477 13.3739082,24.4022448 C13.0182192,24.4437418 12.698099,24.4437418 12.028218,24.4437418 C11.358337,24.4437418 11.0204324,24.4437418 10.6825278,24.4081729 C10.3446232,24.372604 9.95929336,24.3666759 9.23605897,24.3666759 C8.51282457,24.3666759 8.13935107,24.3666759 7.77773387,24.4200292 C7.41611667,24.4733826 7.11378097,24.4674545 6.44982808,24.4674545 C5.78587519,24.4674545 5.38276094,24.4674545 5.02707189,24.4674545 C4.67138284,24.4674545 4.33940639,24.4674545 3.65766905,24.4674545 C3.32410283,24.4678668 2.99170362,24.4280585 2.66766787,24.3488914 C1.98006894,24.1570223 1.24824075,24.1987219 0.58688693,24.4674545 L0,24.7223649 L0,25.3566771 C0.00979491113,26.3479636 0.0790812586,27.3377686 0.207485278,28.3207525 C0.423895401,30.2909603 0.90443516,32.2230891 1.63616962,34.0651306 C1.97444394,34.9958974 2.37042218,35.9046675 2.82179979,36.7861518 L3.02335691,37.1774098 C3.39839573,37.9370963 3.82215415,38.6717429 4.29198119,39.3767537 C4.86101185,40.1917784 5.47865991,40.971757 6.14156424,41.7124452 C6.69842183,42.3048997 7.29243868,42.8612955 7.92000949,43.3782555 L8.33498004,43.7458009 C9.08681755,44.399306 9.87878291,45.0051595 10.7062404,45.559815 L10.8425878,45.6546655 C11.6003976,46.2043931 12.3924178,46.7053458 13.2138482,47.1544876 C13.9921133,47.5457873 14.7939615,47.8883051 15.6147492,48.1800577 L15.9526538,48.3045489 L16.6106786,48.5653875 C17.3073744,48.8564688 18.0222317,49.1020154 18.750741,49.3004782 C19.6679828,49.5044717 20.5963201,49.6549059 21.5310437,49.7510177 L22.171284,49.7984429 C22.976261,49.918054 23.7881423,49.9853807 24.6018259,50 C25.4509177,49.9851006 26.2982795,49.9177869 27.1390744,49.7984429 L27.7793147,49.7213769 C28.6965552,49.6321488 29.6073165,49.485635 30.5062641,49.2826938 C31.3850106,49.050703 32.2482767,48.7636076 33.0909378,48.4231119 L33.3221357,48.3341896 C34.2441337,47.9707335 35.1429509,47.5510215 36.0135162,47.0774216 L36.4581275,46.8343675 C37.1967804,46.4829271 37.9134275,46.0869894 38.6041181,45.6487373 C39.3068885,45.1429038 39.9780254,44.5945117 40.6137612,44.0066395 L40.8923843,43.7576572 C41.6453047,43.1122003 42.3580151,42.4212671 43.0265186,41.6887326 C43.6985836,40.9579187 44.324239,40.185749 44.8998143,39.3767537 C45.4626263,38.5567914 45.9753584,37.7035577 46.4352053,36.8217207 C46.8852343,35.9375678 47.2811726,35.0269096 47.6208355,34.0947714 C47.9810213,33.1697224 48.2839296,32.2233813 48.5278425,31.2611153 C48.786372,30.3002785 48.9843659,29.3241684 49.1206576,28.3385369 C49.2265259,27.3264196 49.2740297,26.3090461 49.2629332,25.2914674 L49.2629332,24.6334427 L48.6108367,24.4259574 Z M2.28826621,26.1273367 C2.74010009,26.2393008 3.20402902,26.2950519 3.66952535,26.2933249 L4.26234043,26.2933249 L3.97186104,26.5245228 C3.68730981,26.7616488 3.37904596,26.9928467 2.84551239,27.4789551 C2.44832629,27.8227878 2.19934395,28.0421294 1.98593052,28.2199739 L1.98593052,28.0836264 C1.89700826,27.4433862 1.82587045,26.7616488 1.77844524,26.0858396 C1.94949733,26.0750334 2.1212133,26.0890102 2.28826621,26.1273367 Z M2.33569142,30.2770422 L2.9285065,29.7731494 C3.20712959,29.5360234 3.48575268,29.2988974 4.03114255,28.8187171 C4.57653243,28.3385369 4.83144291,28.1369798 5.10413785,27.9176382 C5.37683279,27.6982966 5.69695293,27.4493143 6.2304865,26.9632059 C6.61581631,26.6312295 6.86479864,26.4237442 7.07228392,26.2518278 C7.42797297,26.2518278 7.665099,26.2221871 7.92593764,26.2044026 C8.26977038,26.2044026 8.58989053,26.1569774 9.25384342,26.1569774 C9.91779631,26.1569774 10.2675572,26.1569774 10.5995337,26.1925463 L11.3109117,26.1925463 L10.9255819,26.5304509 L9.82887405,27.5026677 C9.56803541,27.7397937 9.30126862,27.9828479 8.76773505,28.4511718 C8.23420148,28.9194957 7.94965024,29.1921906 7.70659606,29.4352448 C7.46354187,29.678299 7.17306248,29.915425 6.63360076,30.383749 C6.09413903,30.8520729 5.8214441,31.1129115 5.54874916,31.3559657 C5.27605422,31.5990199 5.02707189,31.8361459 4.48761016,32.3044698 C3.94814844,32.7727937 3.6754535,33.0277042 3.40868672,33.2766866 L3.30790815,33.3656088 C2.97978929,32.5254678 2.7026391,31.6663023 2.47796704,30.7927914 C2.41275738,30.620875 2.37126032,30.4430305 2.33569142,30.2711141 L2.33569142,30.2770422 Z M4.39275975,35.9443544 C4.25048413,35.6716595 4.13192112,35.3930364 4.00742995,35.1144133 L4.60024503,34.592736 C4.86108367,34.35561 5.12785045,34.1125558 5.65545587,33.6442319 C6.1830613,33.175908 6.47354069,32.9209975 6.74030747,32.6779433 C7.00707426,32.4348891 7.2679129,32.1977631 7.80144647,31.7294392 L8.89222622,30.7572225 L9.95929336,29.8087183 C10.5046832,29.3344663 10.77145,29.0914121 11.0382168,28.8483579 C11.3049836,28.6053037 11.5717504,28.3681777 12.1171403,27.8939256 C12.6625301,27.4196736 12.9233688,27.1944038 13.1960637,26.9632059 C13.4687586,26.7320081 13.7058847,26.5363791 14.1386397,26.1569774 L14.8559459,26.1569774 L17.6421768,26.1569774 C17.9919377,26.1569774 18.2349919,26.1569774 18.4484053,26.1569774 C18.3120579,26.2933249 18.1519978,26.4415287 17.9326562,26.6371576 C17.3872663,27.1114097 17.1086432,27.3485357 16.8300202,27.5797336 C16.5513971,27.8109315 16.2372051,28.0599138 15.7036715,28.5519504 C15.1701379,29.0439869 14.8737304,29.2988974 14.6010355,29.5478797 C14.3283405,29.796862 14.07343,30.0399162 13.5339683,30.5141683 C12.9945066,30.9884203 12.7099553,31.1959056 12.4491167,31.4211754 C12.1882781,31.6464451 11.8563016,31.8894993 11.2634865,32.3933921 C10.6706715,32.8972849 10.4276173,33.1462672 10.1549223,33.4071059 C9.8822274,33.6679445 9.63917322,33.9050705 9.10563965,34.3733945 L6.87665494,36.3000435 C6.34904952,36.7683674 6.07042643,36.987709 5.78587519,37.2070505 L5.29976683,37.6042367 C5.06264079,37.1951942 4.83144291,36.7742955 4.60024503,36.3356124 L4.39275975,35.9443544 Z M7.46947002,40.5149587 C7.03078686,40.016994 6.64545706,39.5486701 6.28383986,39.0922025 L6.87665494,38.6120223 C7.17306248,38.3808244 7.46947002,38.1436984 8.0622851,37.6398056 L10.2675572,35.7131565 C10.8603723,35.2151919 11.1034265,34.9543532 11.3761214,34.6935146 C11.6488163,34.432676 11.8918705,34.1955499 12.4254041,33.727226 C12.9589377,33.2589021 13.2257045,33.057345 13.5102557,32.8380034 C13.7948069,32.6186618 14.1030708,32.3756076 14.6958859,31.8717148 C15.2887009,31.367822 15.525827,31.1247678 15.7985219,30.8698573 C16.0712169,30.6149468 16.3261273,30.3778208 16.8655891,29.9035687 C17.4050508,29.4293167 17.689602,29.1921906 17.9682251,28.9609928 C18.2468482,28.7297949 18.5610402,28.4808126 19.0945738,27.988776 C19.4861668,27.6504906 19.8582616,27.2902712 20.2090661,26.9098526 C20.3869106,26.7201518 20.558827,26.5423072 20.8018812,26.2873968 C21.2820614,26.2873968 21.578469,26.2458997 21.8689483,26.2162589 C22.3041692,26.1710326 22.7415089,26.1492646 23.1790697,26.1510493 C23.6184823,26.1480678 24.0577542,26.1678548 24.4951192,26.2103308 C24.6907481,26.2103308 24.8982334,26.2518278 25.1650002,26.2636841 L24.8270956,26.5600917 C24.3172746,27.0106312 24.0445797,27.2181164 23.7778129,27.4315299 C23.5110461,27.6449433 23.1849978,27.8820693 22.6573924,28.3681777 L21.6021816,29.2751848 C21.3235585,29.5063826 21.0508635,29.7316524 20.51733,30.2059044 C19.9837964,30.6801565 19.6992451,30.9528514 19.4443347,31.2077619 C19.1894242,31.4626724 18.9641544,31.682014 18.4543335,32.1325535 C17.9445125,32.5830929 17.6718176,32.8024345 17.4050508,33.0158479 C17.138284,33.2292614 16.8418765,33.4723155 16.2964866,33.9465676 C15.7510967,34.4208197 15.4843299,34.6935146 15.2234913,34.9424969 C14.9626526,35.1914793 14.7433111,35.4226772 14.2334901,35.8732166 C13.7236691,36.3237561 13.4628305,36.5490258 13.1960637,36.7565111 C12.9292969,36.9639964 12.6447457,37.2189068 12.1112121,37.6931589 C11.5776785,38.167411 11.3286962,38.3511837 11.0619294,38.5645971 C10.7951626,38.7780105 10.4691143,39.0151365 9.94150891,39.5012449 C9.57198279,39.8285706 9.22164031,40.1769338 8.89222622,40.5445995 C8.70252539,40.7402284 8.51875272,40.9358574 8.19863257,41.2204086 C7.93186579,40.9892108 7.70659606,40.7580129 7.46947002,40.5090305 L7.46947002,40.5149587 Z M9.4850413,42.411967 C9.76959254,42.1452002 9.95336521,41.9554993 10.1312097,41.7717267 C10.4352499,41.4471888 10.7557942,41.1385166 11.0915702,40.8469351 C11.6073193,40.3963957 11.8740861,40.1829823 12.1408529,39.975497 C12.4076196,39.7680117 12.7336679,39.5190294 13.2612734,39.0388491 C13.7888788,38.5586689 14.0497174,38.3571118 14.3164842,38.1318421 L15.4131921,37.2011224 C15.958582,36.7209422 16.2253488,36.4601035 16.4802593,36.2051931 C16.7351697,35.9502826 16.9663676,35.730941 17.4761886,35.2804015 C17.9860096,34.8298621 18.2587045,34.6105205 18.5254713,34.3911789 C18.7922381,34.1718373 19.0886456,33.9406394 19.6340355,33.4604592 C20.1794254,32.980279 20.4461922,32.7135122 20.7011026,32.4645299 C20.9560131,32.2155476 21.187211,31.9843497 21.697032,31.5338102 C22.2068529,31.0832708 22.5269731,30.8283603 22.7640991,30.6268031 C23.0012252,30.425246 23.309489,30.1703355 23.8489507,29.6960835 C24.3884124,29.2218314 24.6255385,29.049915 24.8982334,28.8246453 C25.1709283,28.5993756 25.4910485,28.3681777 26.0186539,27.8879975 L27.8623088,26.2636841 L28.7633877,26.2636841 C29.4510532,26.2636841 29.794886,26.2636841 30.1387187,26.2636841 C30.4825515,26.2636841 30.8441687,26.2636841 31.5555468,26.2636841 C32.2669249,26.2636841 32.6344702,26.2636841 32.9960874,26.2281152 L33.0494408,26.2281152 L32.7411769,26.494882 C32.2254278,26.9454215 31.958661,27.1588349 31.6918942,27.3722483 C31.4251275,27.5856618 31.0990792,27.8227878 30.5714737,28.302968 C30.0438683,28.7831482 29.7474608,29.0736276 29.4925503,29.3344663 C29.1900294,29.6604991 28.8694025,29.969251 28.5321899,30.2592578 C28.0164407,30.7157254 27.749674,30.935067 27.4829072,31.1544086 C27.2161404,31.3737501 26.925661,31.6108762 26.3861993,32.0851282 C25.8467375,32.5593803 25.6036834,32.7550093 25.3369166,32.9684227 C25.0701498,33.1818361 24.7737422,33.4248903 24.2342805,33.9050705 C23.6948188,34.3852508 23.4161957,34.6460894 23.1612852,34.8950717 C22.9063747,35.1440541 22.6751769,35.3752519 22.1653559,35.8198633 L21.1042169,36.7624392 L20.0549342,37.6931589 L18.9937952,38.6357349 L17.9445125,39.5605264 C17.4228352,40.016994 17.1560685,40.2422638 16.8893017,40.4675335 C16.6225349,40.6928032 16.3439118,40.9240011 15.8103782,41.3982532 C15.2768446,41.8725052 15.0456468,42.0918468 14.77888,42.2993321 C14.5121132,42.5068174 14.1860649,42.7498716 13.6584595,43.2300518 L12.5973205,44.1726278 L12.2594159,44.4808916 L11.8029483,44.1666996 L11.6666008,44.0777773 C10.9087631,43.5638402 10.1804268,43.007692 9.4850413,42.411967 L9.4850413,42.411967 Z M13.9607952,45.559815 L13.8007351,45.4590365 L14.820377,44.5638857 C15.330198,44.1133462 15.6028929,43.905861 15.8696597,43.6924475 C16.1364265,43.4790341 16.4624748,43.2419081 16.9841521,42.7617279 C17.5058293,42.2815476 17.7844524,42.0918468 18.0452911,41.8606489 C18.3061297,41.6294511 18.5966091,41.3982532 19.1301427,40.9240011 C19.6636762,40.449749 19.9245149,40.2244793 20.1853535,39.9932814 L21.2405644,39.0566336 L22.3017034,38.1199858 L23.350986,37.1892661 C23.9023041,36.7090859 24.1631427,36.4482472 24.4180532,36.1933368 C24.6729637,35.9384263 24.9041616,35.7190847 25.4199107,35.2685452 C25.9356598,34.8180058 26.2024266,34.5986642 26.4691934,34.3852508 C26.7359602,34.1718373 27.0264396,33.9287831 27.5718294,33.4486029 C28.1172193,32.9684227 28.3543453,32.7787219 28.6211121,32.5593803 C28.8878789,32.3400387 29.1783583,32.1029127 29.71782,31.6227325 C30.1068321,31.3004607 30.476966,30.956058 30.8263842,30.5912342 C31.1293241,30.2674802 31.4499336,29.9607242 31.7867447,29.6723709 C32.2965656,29.2218314 32.5633324,29.008418 32.8360273,28.7950045 C33.1087223,28.5815911 33.4288424,28.3444651 33.9564479,27.8642849 C34.4840533,27.3841047 34.7448919,27.1766194 35.0116587,26.9513496 L35.8415998,26.2458997 C36.1676481,26.2458997 36.517409,26.2458997 37.1754337,26.2458997 L40.8212465,26.2458997 L40.4951982,26.5304509 C39.9853772,26.9750622 39.7186104,27.1884757 39.4518437,27.395961 C39.1850769,27.6034462 38.8590286,27.8524286 38.3373513,28.3266806 C37.815674,28.8009327 37.5133383,29.049915 37.2524997,29.2692566 L36.2091452,30.1940481 C35.6578271,30.6801565 35.3910603,30.9469233 35.142078,31.2077619 C34.8930957,31.4686006 34.6737541,31.6879421 34.1757894,32.1266253 C33.6778248,32.5653085 33.3992017,32.7965063 33.1324349,33.0099198 C32.8656681,33.2233332 32.6048295,33.4604592 32.0120144,33.9406394 L30.9627317,34.8476465 L29.8956645,35.7724381 C29.3562028,36.2466901 29.0953642,36.5016006 28.8345256,36.7505829 C28.5736869,36.9995653 28.342489,37.224835 27.8326681,37.6753745 C27.3228471,38.1259139 27.0738648,38.3333992 26.807098,38.5349563 C26.5403312,38.7365135 26.2142829,38.9854958 25.6926056,39.4597479 C25.1709283,39.9339999 24.8982334,40.171126 24.6373948,40.4141801 C24.3765561,40.6572343 24.1275738,40.8825041 23.6118247,41.3389717 C23.0960756,41.7954393 22.8293088,42.0088527 22.562542,42.2281943 C22.2957752,42.4475359 22.011224,42.6846619 21.4776904,43.158914 C20.9441568,43.633166 20.6655337,43.905861 20.4106232,44.1607715 C20.1557128,44.4156819 19.9422993,44.6409517 19.4384065,45.0796348 C19.1089192,45.3736526 18.7646385,45.65066 18.4069083,45.9095759 C17.9938594,46.1942607 17.5979619,46.5030608 17.2212781,46.8343675 L17.1797811,46.8758645 L16.5039719,46.6090977 L16.1660673,46.4846066 C15.4209885,46.2203823 14.6924853,45.9115603 13.9845078,45.559815 L13.9607952,45.559815 Z M21.6673912,47.9607161 C20.8203341,47.876309 19.9790335,47.7417009 19.1479271,47.5576019 L19.4265502,47.3501166 C19.8381203,47.0634214 20.2339067,46.754708 20.6121804,46.4253251 C21.1634984,45.9392167 21.424337,45.6724499 21.6792475,45.4175394 C21.934158,45.1626289 22.1475714,44.9432874 22.6514643,44.498676 C23.1553571,44.0540647 23.4339802,43.8228669 23.6948188,43.6035253 C23.9556574,43.3841837 24.2461368,43.1529858 24.7855985,42.6787337 C25.3250603,42.2044817 25.5799708,41.9673556 25.8408094,41.7243015 L26.8663795,40.8054381 C27.3762005,40.3608268 27.6429672,40.1474134 27.909734,39.9399281 C28.1765008,39.7324428 28.5025491,39.4893886 29.0242264,39.0092084 C29.5459036,38.5290282 29.8304549,38.2800458 30.0912935,38.0310635 C30.3521322,37.7820812 30.5774019,37.5568114 31.0872229,37.106272 C31.5970438,36.6557325 31.8697388,36.4245346 32.1305774,36.2051931 L33.1976445,35.2744734 C33.7133937,34.8239339 33.9801605,34.6045923 34.2469272,34.3911789 C34.513694,34.1777655 34.8041734,33.9406394 35.3436351,33.4663874 C35.8830969,32.9921353 36.1557918,32.7075841 36.4107023,32.4467454 C36.6656128,32.1859068 36.8790262,31.9665652 37.3769909,31.5278821 L38.4322017,30.5912342 L39.4814844,29.6427301 C39.9913054,29.1921906 40.2580722,28.9787772 40.524839,28.7712919 C40.7916057,28.5638067 41.117654,28.3207525 41.6393313,27.8405723 C42.1610086,27.360392 42.4218472,27.1588349 42.688614,26.9394933 L43.512627,26.2340434 L43.8446034,26.2636841 C44.4342969,26.3497193 45.0333551,26.3497193 45.6230487,26.2636841 C46.0238366,26.2186512 46.4203347,26.1413341 46.8086788,26.0324863 C47.0074312,25.9675601 47.2163602,25.939435 47.4252065,25.9494922 C47.4252065,26.5067383 47.3896376,27.1054816 47.3362842,27.6864403 C47.0873019,27.8939256 46.8205351,28.1132672 46.3403549,28.5400941 C45.8601747,28.9669209 45.5400545,29.2751848 45.2910722,29.5300952 C45.0420899,29.7850057 44.8286764,29.9984192 44.3307118,30.4371023 C44.0090804,30.7232449 43.6726916,30.9923559 43.3229261,31.2433308 C42.9246683,31.525864 42.5426826,31.8306609 42.178793,32.1562661 L40.133581,33.9702802 C39.6059756,34.432676 39.3510651,34.6638738 39.0902265,34.9009999 C38.8293878,35.1381259 38.5863336,35.3574675 38.0765127,35.808007 C37.5666917,36.2585464 37.2939968,36.5075288 37.0390863,36.7565111 C36.7841758,37.0054934 36.5411216,37.2189068 36.0313006,37.6635182 L35.0057305,38.5349563 C34.7330356,38.7602261 34.4662688,38.9854958 33.9445916,39.4478916 C33.4229143,39.9102873 33.1561475,40.1651978 32.901237,40.4141801 C32.6463265,40.6631625 32.4210568,40.8825041 31.9230921,41.3211872 C31.4251275,41.7598704 31.1761451,41.9140023 30.9093783,42.1511283 C30.6426115,42.3882544 30.3165633,42.5898115 29.7889578,43.0640635 C29.2613524,43.5383156 29.0064419,43.7635853 28.7515314,44.0066395 C28.496621,44.2496937 28.2594949,44.4690353 27.749674,44.9136466 C27.239853,45.3582579 26.9553017,45.6487373 26.7063194,45.8917915 C26.4573371,46.1348457 26.2379955,46.3541873 25.7400308,46.7928704 C25.2420662,47.2315536 24.9812275,47.4271825 24.7203889,47.6524523 C24.4595503,47.877722 24.3172746,47.9725724 24.0267952,48.2452674 C23.4814054,48.2452674 22.9300873,48.1444888 22.3965538,48.073351 L21.6673912,47.9607161 Z M45.9609532,33.4308185 C45.6648803,34.2259805 45.3285164,35.0055533 44.9531676,35.7665099 L44.8701735,35.8435759 C44.3366399,36.3118998 44.0817294,36.554954 43.826819,36.8039363 C43.5719085,37.0529186 43.3525669,37.2722602 42.8486741,37.7109434 L41.823104,38.5942378 C41.550409,38.8135794 41.2836423,39.0388491 40.7560368,39.5012449 L39.7186104,40.4260364 L38.6989685,41.3330435 C38.3749559,41.6206602 38.0366201,41.8917246 37.6852547,42.1452002 C37.2897208,42.4267179 36.9097601,42.7294991 36.5470498,43.0522072 C36.1763688,43.3719838 35.8259317,43.7145014 35.4977671,44.0777773 C35.2075608,44.3942686 34.8987494,44.6931822 34.5729755,44.9729281 C34.2508153,45.260893 33.9123513,45.5300808 33.5592617,45.7791566 C33.1593019,46.0598199 32.7753488,46.3626283 32.4092005,46.6861637 L32.2254278,46.8521519 C31.5248765,47.131731 30.808274,47.3692788 30.0794372,47.56353 C29.2508329,47.748939 28.411302,47.8816007 27.5659013,47.9607161 L27.0264396,48.0259258 C27.4829072,47.6228115 27.7318895,47.3797573 27.9630874,47.1485595 C28.1942853,46.9173616 28.4551239,46.6802355 28.9234478,46.2415524 C29.3917717,45.8028692 29.7059637,45.5420306 29.9668024,45.2989764 C30.227641,45.0559222 30.4588389,44.8365806 30.9627317,44.3919693 C31.4666245,43.947358 31.7156068,43.7635853 31.9823736,43.5620282 C32.2491404,43.3604711 32.5751887,43.1233451 33.096866,42.649093 C33.6185433,42.1748409 33.8912382,41.9317867 34.1402205,41.6768763 C34.3892029,41.4219658 34.6204007,41.2144805 35.1183654,40.7757973 C35.6163301,40.3371142 35.889025,40.1059163 36.1498637,39.8925029 C36.4107023,39.6790894 36.6833972,39.4419634 37.2050745,38.9795676 C37.7267518,38.5171719 37.9875904,38.2800458 38.2425009,38.048848 C38.4974114,37.8176501 38.7404656,37.5864522 39.2502865,37.1359127 C39.7601075,36.6853733 40.0328024,36.4423191 40.2877129,36.2111212 C40.5426234,35.9799233 40.7916057,35.7546536 41.3073549,35.3041141 L43.3762795,33.4841718 C43.6984397,33.1962069 44.0369038,32.9270192 44.3899933,32.6779433 C44.7848997,32.3934834 45.1648101,32.0887636 45.5281982,31.7650081 C46.0735881,31.290756 46.3284986,31.0239893 46.5834091,30.7750069 C46.6723313,30.6742284 46.7731099,30.5793779 46.8798166,30.4726712 C46.8798166,30.5853061 46.8264633,30.697941 46.8027507,30.7987195 C46.5734667,31.691678 46.2923921,32.5705311 45.9609532,33.4308185 Z" id="Shape"></path>
            </g>
        </g>
    </g>
</svg>