<?xml version="1.0" encoding="UTF-8"?>
<svg width="86px" height="80px" viewBox="0 0 86 80" version="1.1" xmlns="http://www.w3.org/2000/svg" xmlns:xlink="http://www.w3.org/1999/xlink">
    <title>Group</title>
    <g id="Page-1" stroke="none" stroke-width="1" fill="none" fill-rule="evenodd">
        <g id="Desktop-HD" transform="translate(-1077.000000, -3147.000000)" fill-rule="nonzero">
            <g id="Group" transform="translate(1077.000000, 3147.000000)">
                <path d="M84.0244661,51.3996081 C81.865926,56.2781797 78.8271135,60.7190266 75.0595864,64.5006659 C71.3676488,68.4894754 67.0313912,71.8317329 62.2313884,74.3882567 C57.5641689,76.9114833 52.5610818,78.7591957 47.3724718,79.8758696 C42.5013944,80.2581655 37.601234,79.7556571 32.909793,78.3927309 C28.0879418,78.2841787 23.3441032,77.1551812 18.9919412,75.080388 C15.2989633,72.120566 12.3906185,68.3008867 10.5223587,63.9568484 C8.50861247,59.4630313 7.47858124,54.5920889 7.5003376,49.6692797 C7.89207756,44.4069504 9.25212895,39.2617384 11.5129532,34.4918278 C13.7354206,29.6125553 16.8228365,25.1742437 20.626422,21.39077 C23.951128,17.0575908 27.9670839,13.2996079 32.5135553,10.2672304 C37.13884,7.66337473 42.1571618,5.82673265 47.3724718,4.82905546 C52.2667447,3.83432912 57.3011824,3.73382692 62.2313884,4.53242773 C66.9465287,5.52773643 71.3694425,7.5913216 75.1586458,10.5638581 C78.7983553,13.70849 81.6339937,17.6744181 83.4301094,22.1323393 C85.0402184,26.7647044 85.6643822,31.6814116 85.2627091,36.5682219 C85.8187414,41.5453706 85.398162,46.5829721 84.0244661,51.3996081 Z M76.5244661,47.3996081 C74.365926,52.2781797 71.3271135,56.7190266 67.5595864,60.5006659 C63.8676488,64.4894754 59.5313912,67.8317329 54.7313884,70.3882567 C50.0641689,72.9114833 45.0610818,74.7591957 39.8724718,75.8758696 C35.0013944,76.2581655 30.101234,75.7556571 25.409793,74.3927309 C20.5879418,74.2841787 15.8441032,73.1551812 11.4919412,71.080388 C7.79896329,68.120566 4.89061849,64.3008867 3.02235872,59.9568484 C1.00861247,55.4630313 -0.0214187551,50.5920889 0.000337600002,45.6692797 C0.392077562,40.4069504 1.75212895,35.2617384 4.01295315,30.4918278 C6.23542058,25.6125553 9.32283649,21.1742437 13.126422,17.39077 C16.451128,13.0575908 20.4670839,9.29960786 25.0135553,6.26723039 C29.63884,3.66337473 34.6571618,1.82673265 39.8724718,0.829055457 C44.7667447,-0.165670882 49.8011824,-0.266173082 54.7313884,0.532427734 C59.4465287,1.52773643 63.8694425,3.5913216 67.6586458,6.56385812 C71.2983553,9.70849 74.1339937,13.6744181 75.9301094,18.1323393 C77.5402184,22.7647044 78.1643822,27.6814116 77.7627091,32.5682219 C78.3187414,37.5453706 77.898162,42.5829721 76.5244661,47.3996081 Z M81.0244661,49.3996081 C78.865926,54.2781797 75.8271135,58.7190266 72.0595864,62.5006659 C68.3676488,66.4894754 64.0313912,69.8317329 59.2313884,72.3882567 C54.5641689,74.9114833 49.5610818,76.7591957 44.3724718,77.8758696 C39.5013944,78.2581655 34.601234,77.7556571 29.909793,76.3927309 C25.0879418,76.2841787 20.3441032,75.1551812 15.9919412,73.080388 C12.2989633,70.120566 9.39061849,66.3008867 7.52235872,61.9568484 C5.50861247,57.4630313 4.47858124,52.5920889 4.5003376,47.6692797 C4.89207756,42.4069504 6.25212895,37.2617384 8.51295315,32.4918278 C10.7354206,27.6125553 13.8228365,23.1742437 17.626422,19.39077 C20.951128,15.0575908 24.9670839,11.2996079 29.5135553,8.26723039 C34.13884,5.66337473 39.1571618,3.82673265 44.3724718,2.82905546 C49.2667447,1.83432912 54.3011824,1.73382692 59.2313884,2.53242773 C63.9465287,3.52773643 68.3694425,5.5913216 72.1586458,8.56385812 C75.7983553,11.70849 78.6339937,15.6744181 80.4301094,20.1323393 C82.0402184,24.7647044 82.6643822,29.6814116 82.2627091,34.5682219 C82.8187414,39.5453706 82.398162,44.5829721 81.0244661,49.3996081 Z" id="Shape-Copy-2" fill="#EE7623"></path>
                <g id="1980708" transform="translate(20.000000, 17.000000)" fill="#FFFFFF">
                    <path d="M35.2388463,19.328937 C33.0422174,20.7324259 31.8341492,23.2623382 32.1235454,25.8529385 L22.5865566,31.9661806 L13.0480633,25.8567 C13.3437857,23.2647179 12.1327351,20.7315913 9.9297531,19.3342032 C8.49660563,18.3463958 6.75387864,17.9117833 5.02471512,18.1109529 C3.37329047,18.2726153 1.88005893,19.1625134 0.952060124,20.5380701 C0.0240613131,21.9136268 -0.241962281,23.6314424 0.226504648,25.223258 C0.690012192,26.9002995 1.74611728,28.352277 3.19886739,29.3097866 C5.32143837,30.8313408 8.12731375,31.0046621 10.4210092,29.7559043 L17.8244569,35.0122694 L10.7791071,39.5298696 C10.1062889,39.9573777 9.63525606,40.6391132 9.47339288,41.4196566 C9.31152971,42.2001999 9.47263229,43.0130228 9.91997312,43.6728211 C10.3655477,44.3311436 11.0576809,44.7820622 11.8399088,44.9236419 C12.6221366,45.0652216 13.4284114,44.8855081 14.0764662,44.4251276 L22.5865566,38.3901253 L31.0966471,44.4296414 C31.9712407,45.0694455 33.1257698,45.179526 34.105512,44.7165266 C35.0852543,44.2535273 35.7332032,43.2916451 35.7941579,42.2097265 C35.8551125,41.1278079 35.3193049,40.0992336 34.3977677,39.5291172 L27.3441426,35.0152786 L34.7528564,29.7566566 C37.046268,31.0058531 39.8521313,30.8331171 41.9749982,29.3120435 C45.0669777,27.2251454 46.0765729,23.2875735 44.2236421,20.534132 C42.3707114,17.7806904 38.3375966,17.242039 35.2388463,19.328937 L35.2388463,19.328937 Z M13.2052953,43.201125 C12.5368123,43.6510925 11.6314568,43.4858451 11.1650403,42.8287333 C10.9457013,42.5051696 10.8667913,42.1065535 10.9463133,41.7238273 C11.0258353,41.3411011 11.2570057,41.0069129 11.5870842,40.7975059 L19.1470116,35.9496432 L21.2828096,37.4647884 L13.2052953,43.201125 Z M34.2247373,41.7243474 C34.3453507,42.3084701 34.0964735,42.9069358 33.5972319,43.2332864 C33.0979902,43.559637 32.4499523,43.5474781 31.9633041,43.2026296 L10.8693838,28.2317314 C10.6056272,28.0446984 10.2518599,28.0471215 9.99068993,28.2377499 C8.16547195,29.4289378 5.79188396,29.3590205 4.03994599,28.0624625 C2.88898945,27.3075044 2.05078544,26.1608541 1.680713,24.8350679 C1.32206581,23.6621191 1.51256753,22.3899225 2.19906002,21.3734754 C2.8855525,20.3570284 3.9945348,19.7051592 5.21655326,19.5997674 C6.58427756,19.4462573 7.96128529,19.7937166 9.09243604,20.5777657 C10.9494642,21.7175495 11.9018115,23.8919859 11.4802567,26.0297305 C11.4009522,26.3435229 11.531236,26.6728684 11.8037484,26.8474876 L33.5860291,40.7967536 C33.9161591,41.0062875 34.1467608,41.3411896 34.2247373,41.7243474 L34.2247373,41.7243474 Z M41.1309104,28.0609579 C39.3784186,29.3571828 37.0045547,29.4264992 35.1794141,28.2347407 C34.9182442,28.0441123 34.5644769,28.0416892 34.3007202,28.2287222 L25.9779541,34.137337 L23.9828374,32.858416 L33.3671079,26.8399645 C33.6389966,26.6655474 33.7691925,26.3370297 33.6905997,26.023712 C33.2775463,23.8861804 34.2292624,21.7159202 36.0814296,20.5717473 C38.4888102,18.9490223 41.5837989,19.3071202 42.9748135,21.3676875 C44.3658281,23.4282548 43.5375387,26.4382329 41.1309104,28.0609579 L41.1309104,28.0609579 Z" id="Shape"></path>
                    <path d="M30.8468813,25.7288079 L32.9886978,15.0204781 C36.6069944,14.7056405 39.3323778,11.5919956 39.16537,7.9638691 C38.9983623,4.33574264 35.9984594,1.48564057 32.3665404,1.50454057 C30.8453191,1.49915346 29.3677333,2.01264639 28.1776981,2.96025353 C26.9191797,1.10851507 24.8254858,0 22.5865566,0 C20.3476274,0 18.2539336,1.10851507 16.9954152,2.96025353 C15.80538,2.01264639 14.3277941,1.49915346 12.8065729,1.50454057 C9.18802807,1.50420648 6.20878235,4.34917595 6.0423549,7.96389156 C5.87592745,11.5786072 8.58114891,14.6852989 12.1844155,15.0174688 L14.3262319,25.7288079 L15.8007526,25.4339038 L15.379461,23.3214273 L29.7936523,23.3214273 L29.3723607,25.4278853 L30.8468813,25.7288079 Z M27.2154982,21.8168144 L27.8451787,17.4098033 L26.3556119,17.1961483 L25.6958392,21.8168144 L23.3388631,21.8168144 L23.3388631,13.5414436 L21.8342502,13.5414436 L21.8342502,21.8168144 L19.4772741,21.8168144 L18.8175014,17.1961483 L17.3279346,17.4098033 L17.9576151,21.8168144 L15.0785384,21.8168144 L13.5438332,14.1432888 C13.4723237,13.792965 13.1641206,13.5413706 12.8065729,13.5414436 C9.89816131,13.5414436 7.54042785,11.1837101 7.54042785,8.27529852 C7.54042785,5.36688691 9.89816131,3.00915345 12.8065729,3.00915345 C14.2558513,3.00543896 15.6412917,3.60507872 16.6305466,4.66422761 C16.8002797,4.84371756 17.0473161,4.92844033 17.2914814,4.89089955 C17.5356466,4.85335877 17.7458223,4.69833894 17.8537968,4.476151 C18.730768,2.65995542 20.5697163,1.50580633 22.5865566,1.50580633 C24.6033969,1.50580633 26.4423453,2.65995542 27.3193165,4.476151 C27.427291,4.69833894 27.6374666,4.85335877 27.8816319,4.89089955 C28.1257971,4.92844033 28.3728336,4.84371756 28.5425667,4.66422761 C29.5318216,3.60507872 30.917262,3.00543896 32.3665404,3.00915345 C35.274952,3.00915345 37.6326854,5.36688691 37.6326854,8.27529852 C37.6326854,11.1837101 35.274952,13.5414436 32.3665404,13.5414436 C32.0089927,13.5413706 31.7007896,13.792965 31.62928,14.1432888 L30.0945749,21.8168144 L27.2154982,21.8168144 Z" id="Shape"></path>
                </g>
            </g>
        </g>
    </g>
</svg>