<?xml version="1.0" encoding="UTF-8"?>
<svg width="86px" height="80px" viewBox="0 0 86 80" version="1.1" xmlns="http://www.w3.org/2000/svg" xmlns:xlink="http://www.w3.org/1999/xlink">
    <title>Group 4</title>
    <g id="Page-1" stroke="none" stroke-width="1" fill="none" fill-rule="evenodd">
        <g id="Desktop-HD" transform="translate(-677.000000, -3147.000000)" fill-rule="nonzero">
            <g id="Group-4" transform="translate(677.000000, 3147.000000)">
                <g id="Group-2">
                    <path d="M84.0244661,51.3996081 C81.865926,56.2781797 78.8271135,60.7190266 75.0595864,64.5006659 C71.3676488,68.4894754 67.0313912,71.8317329 62.2313884,74.3882567 C57.5641689,76.9114833 52.5610818,78.7591957 47.3724718,79.8758696 C42.5013944,80.2581655 37.601234,79.7556571 32.909793,78.3927309 C28.0879418,78.2841787 23.3441032,77.1551812 18.9919412,75.080388 C15.2989633,72.120566 12.3906185,68.3008867 10.5223587,63.9568484 C8.50861247,59.4630313 7.47858124,54.5920889 7.5003376,49.6692797 C7.89207756,44.4069504 9.25212895,39.2617384 11.5129532,34.4918278 C13.7354206,29.6125553 16.8228365,25.1742437 20.626422,21.39077 C23.951128,17.0575908 27.9670839,13.2996079 32.5135553,10.2672304 C37.13884,7.66337473 42.1571618,5.82673265 47.3724718,4.82905546 C52.2667447,3.83432912 57.3011824,3.73382692 62.2313884,4.53242773 C66.9465287,5.52773643 71.3694425,7.5913216 75.1586458,10.5638581 C78.7983553,13.70849 81.6339937,17.6744181 83.4301094,22.1323393 C85.0402184,26.7647044 85.6643822,31.6814116 85.2627091,36.5682219 C85.8187414,41.5453706 85.398162,46.5829721 84.0244661,51.3996081 Z M76.5244661,47.3996081 C74.365926,52.2781797 71.3271135,56.7190266 67.5595864,60.5006659 C63.8676488,64.4894754 59.5313912,67.8317329 54.7313884,70.3882567 C50.0641689,72.9114833 45.0610818,74.7591957 39.8724718,75.8758696 C35.0013944,76.2581655 30.101234,75.7556571 25.409793,74.3927309 C20.5879418,74.2841787 15.8441032,73.1551812 11.4919412,71.080388 C7.79896329,68.120566 4.89061849,64.3008867 3.02235872,59.9568484 C1.00861247,55.4630313 -0.0214187551,50.5920889 0.000337600002,45.6692797 C0.392077562,40.4069504 1.75212895,35.2617384 4.01295315,30.4918278 C6.23542058,25.6125553 9.32283649,21.1742437 13.126422,17.39077 C16.451128,13.0575908 20.4670839,9.29960786 25.0135553,6.26723039 C29.63884,3.66337473 34.6571618,1.82673265 39.8724718,0.829055457 C44.7667447,-0.165670882 49.8011824,-0.266173082 54.7313884,0.532427734 C59.4465287,1.52773643 63.8694425,3.5913216 67.6586458,6.56385812 C71.2983553,9.70849 74.1339937,13.6744181 75.9301094,18.1323393 C77.5402184,22.7647044 78.1643822,27.6814116 77.7627091,32.5682219 C78.3187414,37.5453706 77.898162,42.5829721 76.5244661,47.3996081 Z M81.0244661,49.3996081 C78.865926,54.2781797 75.8271135,58.7190266 72.0595864,62.5006659 C68.3676488,66.4894754 64.0313912,69.8317329 59.2313884,72.3882567 C54.5641689,74.9114833 49.5610818,76.7591957 44.3724718,77.8758696 C39.5013944,78.2581655 34.601234,77.7556571 29.909793,76.3927309 C25.0879418,76.2841787 20.3441032,75.1551812 15.9919412,73.080388 C12.2989633,70.120566 9.39061849,66.3008867 7.52235872,61.9568484 C5.50861247,57.4630313 4.47858124,52.5920889 4.5003376,47.6692797 C4.89207756,42.4069504 6.25212895,37.2617384 8.51295315,32.4918278 C10.7354206,27.6125553 13.8228365,23.1742437 17.626422,19.39077 C20.951128,15.0575908 24.9670839,11.2996079 29.5135553,8.26723039 C34.13884,5.66337473 39.1571618,3.82673265 44.3724718,2.82905546 C49.2667447,1.83432912 54.3011824,1.73382692 59.2313884,2.53242773 C63.9465287,3.52773643 68.3694425,5.5913216 72.1586458,8.56385812 C75.7983553,11.70849 78.6339937,15.6744181 80.4301094,20.1323393 C82.0402184,24.7647044 82.6643822,29.6814116 82.2627091,34.5682219 C82.8187414,39.5453706 82.398162,44.5829721 81.0244661,49.3996081 Z" id="Shape-Copy" fill="#EE7623"></path>
                    <circle id="Oval" fill="#FFFFFF" cx="58.4096038" cy="55.4098139" r="1"></circle>
                    <circle id="Oval" fill="#FFFFFF" cx="61.0464165" cy="58.0466267" r="1"></circle>
                    <path d="M51.8233729,43.2300243 C51.7225588,43.1292102 51.591685,43.0637293 51.4504397,43.0435138 L48.4050968,42.6084397 L46.6959148,40.8993455 C46.438474,40.6418168 46.0210665,40.6419047 45.7637136,40.8993455 C45.5062728,41.1567864 45.5062728,41.5741938 45.7637136,41.8315467 L47.1621033,43.2299364 L46.2298142,44.1622255 L43.4330348,41.3654461 L50.597255,34.2012259 C52.8470715,35.2789792 55.5581545,34.8337973 57.350484,33.0414678 L64.8085331,25.5834187 C65.0659739,25.3259779 65.0659739,24.9085705 64.8085331,24.6511297 C63.5234384,23.366035 61.432358,23.366035 60.1472634,24.6511297 L55.0198931,29.7784999 L52.2231138,26.9817205 L57.350484,21.8543503 C58.6355787,20.5692556 58.6355787,18.4781752 57.350484,17.1930806 C57.0930432,16.9356398 56.6756357,16.9356398 56.4181949,17.1930806 L48.9601459,24.6511297 C47.1678164,26.4434592 46.7226345,29.1545421 47.8003878,31.4043587 L42.5007457,36.7040007 L38.0186914,32.2219464 C39.5833761,29.4221786 39.1134082,25.8586141 36.8135801,23.5588739 L31.2200214,17.9653152 C29.9349267,16.6802205 27.8438463,16.6802205 26.5587517,17.9653152 L20.9651929,23.5588739 C19.6800983,24.8439686 19.6800983,26.935049 20.9651929,28.2201436 L26.5587517,33.8137023 C28.8585798,36.1135304 32.4220564,36.5834983 35.2218242,35.0188137 L39.7038785,39.500868 L36.5963946,42.6083518 L33.5510517,43.0434259 C33.4098064,43.0636414 33.2790205,43.1290344 33.1781185,43.2298485 L21.1584713,55.2498473 C19.6163753,56.7919433 19.6163753,59.3012222 21.1584713,60.843406 C22.7005673,62.385502 25.2098462,62.385502 26.7520301,60.843406 L38.771853,48.8235831 C38.8726672,48.7227689 38.938148,48.5918951 38.9582757,48.4506499 L39.3933498,45.4053069 L42.5008336,42.2978231 L45.6083174,45.4053069 L46.0433915,48.4506499 C46.0635192,48.5918072 46.1290001,48.722681 46.2299021,48.8235831 L58.2497251,60.843406 C59.0207291,61.6144101 60.0336168,62 61.0464165,62 C62.0593042,62 63.072104,61.6144101 63.8431959,60.843406 C65.3852919,59.3012222 65.3852919,56.7920312 63.8431959,55.2498473 L51.8233729,43.2300243 Z M35.7880358,33.720535 C35.5663677,33.4988669 35.2191874,33.4639731 34.9578792,33.6371238 C32.6187626,35.1867786 29.4785823,34.8690427 27.4912166,32.8816769 L21.8976578,27.2881182 C21.1265659,26.5170262 21.1265659,25.2624307 21.8976578,24.4913388 L27.4912166,18.89778 C28.2623085,18.1266881 29.516904,18.1266881 30.287996,18.89778 L35.8815547,24.4913388 C37.8689205,26.4787046 38.1866564,29.6188849 36.6370016,31.9580014 C36.4638509,32.2193096 36.4987447,32.5664899 36.7204127,32.788158 L41.5687203,37.6364656 L40.6364312,38.5687546 L35.7880358,33.720535 Z M25.819741,59.9111169 C24.7916477,60.9392102 23.1188537,60.9392102 22.0907604,59.9111169 C21.0626671,58.8830237 21.0626671,57.2102297 22.0907604,56.1821364 L33.6443949,44.6285019 L37.3733755,48.3574825 L25.819741,59.9111169 Z M37.839564,46.9590928 L35.0427846,44.1623134 L36.6742685,43.9292192 L38.0726582,45.3276088 L37.839564,46.9590928 Z M38.7717652,44.1623134 L37.8394761,43.2300243 L49.0776598,31.9918405 C49.2903627,31.7791376 49.3321123,31.4494481 49.1791771,31.1905131 C48.1093343,29.3790228 48.4026358,27.0733937 49.892435,25.5835945 L56.804488,18.6715415 C57.1547446,19.4065091 57.0259803,20.3145395 56.4181949,20.9223249 L50.8246362,26.5158836 C50.5671954,26.7733244 50.5671954,27.1907319 50.8246362,27.4481727 L54.5536168,31.1771533 C54.8110576,31.4345941 55.228465,31.4345941 55.4859058,31.1771533 L61.0794646,25.5835945 C61.687162,24.9758971 62.5952803,24.8471327 63.3302479,25.1973015 L56.4181949,32.1093545 C54.9283957,33.5991537 52.6226788,33.8924552 50.8112763,32.8226123 C50.5522534,32.6696772 50.2226518,32.7114267 50.0099489,32.9241296 L38.7717652,44.1623134 Z M46.929009,45.3276088 L48.3273987,43.9292192 L49.9587948,44.1623134 L47.1620154,46.9590928 L46.929009,45.3276088 Z M62.9109068,59.9111169 C61.8828135,60.9392102 60.2099316,60.9392102 59.1818384,59.9111169 L47.6282039,48.3573946 L51.3571845,44.628414 L62.9109068,56.1820485 C63.9390001,57.2101418 63.9390001,58.8830237 62.9109068,59.9111169 Z" id="Shape" fill="#FFFFFF"></path>
                </g>
                <g id="3106315" transform="translate(20.001372, 17.000000)" fill="#FFFFFF">
                    <circle id="Oval" cx="6.59069147" cy="38.4098139" r="1"></circle>
                    <circle id="Oval" cx="3.95387873" cy="41.0466267" r="1"></circle>
                    <path d="M3.76077614,8.42362789 C3.50333532,8.16618708 3.08592787,8.16618708 2.82848705,8.42362789 C2.57104623,8.68106871 2.57104623,9.09847617 2.82848705,9.35591698 L8.42204581,14.9494757 C8.67948662,15.2069166 9.09689408,15.2069166 9.3543349,14.9494757 C9.61177571,14.6920349 9.61177571,14.2746275 9.3543349,14.0171866 L3.76077614,8.42362789 Z" id="Path"></path>
                    <path d="M5.62526643,6.55913761 C5.36782561,6.30169679 4.95041815,6.30169679 4.69297734,6.55913761 C4.43553652,6.81657842 4.43553652,7.23398588 4.69297734,7.4914267 L10.2865361,13.0849855 C10.5439769,13.3424263 10.9613844,13.3424263 11.2188252,13.0849855 C11.476266,12.8275446 11.476266,12.4101372 11.2188252,12.1526964 L5.62526643,6.55913761 Z" id="Path"></path>
                    <path d="M7.48975671,4.69464732 C7.2323159,4.4372065 6.81490844,4.4372065 6.55746762,4.69464732 C6.30002681,4.95208814 6.30002681,5.36949559 6.55746762,5.62693641 L12.1510264,11.2204952 C12.4084672,11.477936 12.8258747,11.477936 13.0833155,11.2204952 C13.3407563,10.9630543 13.3407563,10.5456469 13.0833155,10.2882061 L7.48975671,4.69464732 Z" id="Path"></path>
                    <path d="M9.354247,2.83015703 C9.09680618,2.57271621 8.67939873,2.57271621 8.42195791,2.83015703 C8.16451709,3.08759785 8.16451709,3.50500531 8.42195791,3.76244612 L14.0155167,9.35600488 C14.2729575,9.61344569 14.6903649,9.61344569 14.9478058,9.35600488 C15.2052466,9.09856406 15.2052466,8.6811566 14.9478058,8.42371579 L9.354247,2.83015703 Z" id="Path"></path>
                </g>
            </g>
        </g>
    </g>
</svg>