<?xml version="1.0" encoding="UTF-8"?>
<svg width="86px" height="80px" viewBox="0 0 86 80" version="1.1" xmlns="http://www.w3.org/2000/svg" xmlns:xlink="http://www.w3.org/1999/xlink">
    <title>Group 3</title>
    <g id="Page-1" stroke="none" stroke-width="1" fill="none" fill-rule="evenodd">
        <g id="Desktop-HD" transform="translate(-277.000000, -3147.000000)" fill-rule="nonzero">
            <g id="Group-3" transform="translate(277.000000, 3147.000000)">
                <path d="M84.0244661,51.3996081 C81.865926,56.2781797 78.8271135,60.7190266 75.0595864,64.5006659 C71.3676488,68.4894754 67.0313912,71.8317329 62.2313884,74.3882567 C57.5641689,76.9114833 52.5610818,78.7591957 47.3724718,79.8758696 C42.5013944,80.2581655 37.601234,79.7556571 32.909793,78.3927309 C28.0879418,78.2841787 23.3441032,77.1551812 18.9919412,75.080388 C15.2989633,72.120566 12.3906185,68.3008867 10.5223587,63.9568484 C8.50861247,59.4630313 7.47858124,54.5920889 7.5003376,49.6692797 C7.89207756,44.4069504 9.25212895,39.2617384 11.5129532,34.4918278 C13.7354206,29.6125553 16.8228365,25.1742437 20.626422,21.39077 C23.951128,17.0575908 27.9670839,13.2996079 32.5135553,10.2672304 C37.13884,7.66337473 42.1571618,5.82673265 47.3724718,4.82905546 C52.2667447,3.83432912 57.3011824,3.73382692 62.2313884,4.53242773 C66.9465287,5.52773643 71.3694425,7.5913216 75.1586458,10.5638581 C78.7983553,13.70849 81.6339937,17.6744181 83.4301094,22.1323393 C85.0402184,26.7647044 85.6643822,31.6814116 85.2627091,36.5682219 C85.8187414,41.5453706 85.398162,46.5829721 84.0244661,51.3996081 Z M76.5244661,47.3996081 C74.365926,52.2781797 71.3271135,56.7190266 67.5595864,60.5006659 C63.8676488,64.4894754 59.5313912,67.8317329 54.7313884,70.3882567 C50.0641689,72.9114833 45.0610818,74.7591957 39.8724718,75.8758696 C35.0013944,76.2581655 30.101234,75.7556571 25.409793,74.3927309 C20.5879418,74.2841787 15.8441032,73.1551812 11.4919412,71.080388 C7.79896329,68.120566 4.89061849,64.3008867 3.02235872,59.9568484 C1.00861247,55.4630313 -0.0214187551,50.5920889 0.000337600002,45.6692797 C0.392077562,40.4069504 1.75212895,35.2617384 4.01295315,30.4918278 C6.23542058,25.6125553 9.32283649,21.1742437 13.126422,17.39077 C16.451128,13.0575908 20.4670839,9.29960786 25.0135553,6.26723039 C29.63884,3.66337473 34.6571618,1.82673265 39.8724718,0.829055457 C44.7667447,-0.165670882 49.8011824,-0.266173082 54.7313884,0.532427734 C59.4465287,1.52773643 63.8694425,3.5913216 67.6586458,6.56385812 C71.2983553,9.70849 74.1339937,13.6744181 75.9301094,18.1323393 C77.5402184,22.7647044 78.1643822,27.6814116 77.7627091,32.5682219 C78.3187414,37.5453706 77.898162,42.5829721 76.5244661,47.3996081 Z M81.0244661,49.3996081 C78.865926,54.2781797 75.8271135,58.7190266 72.0595864,62.5006659 C68.3676488,66.4894754 64.0313912,69.8317329 59.2313884,72.3882567 C54.5641689,74.9114833 49.5610818,76.7591957 44.3724718,77.8758696 C39.5013944,78.2581655 34.601234,77.7556571 29.909793,76.3927309 C25.0879418,76.2841787 20.3441032,75.1551812 15.9919412,73.080388 C12.2989633,70.120566 9.39061849,66.3008867 7.52235872,61.9568484 C5.50861247,57.4630313 4.47858124,52.5920889 4.5003376,47.6692797 C4.89207756,42.4069504 6.25212895,37.2617384 8.51295315,32.4918278 C10.7354206,27.6125553 13.8228365,23.1742437 17.626422,19.39077 C20.951128,15.0575908 24.9670839,11.2996079 29.5135553,8.26723039 C34.13884,5.66337473 39.1571618,3.82673265 44.3724718,2.82905546 C49.2667447,1.83432912 54.3011824,1.73382692 59.2313884,2.53242773 C63.9465287,3.52773643 68.3694425,5.5913216 72.1586458,8.56385812 C75.7983553,11.70849 78.6339937,15.6744181 80.4301094,20.1323393 C82.0402184,24.7647044 82.6643822,29.6814116 82.2627091,34.5682219 C82.8187414,39.5453706 82.398162,44.5829721 81.0244661,49.3996081 Z" id="Shape" fill="#EE7623"></path>
                <g id="493751" transform="translate(17.001372, 20.000000)" fill="#FFFFFF">
                    <path d="M44.7693351,0 L4.73374229,0 L4.73374229,17.3324767 L4.73374229,21.8770365 L4.73374229,28.3722662 L3.23374484,28.3722662 L3.23374484,26.3255264 L4.1983203,26.3255264 L4.1983203,24.7957493 L0.739392271,24.7957493 L0.739392271,26.3255264 L1.70396773,26.3255264 L1.70396773,28.3722662 L0,28.3722662 L0,32.9195796 L4.73374229,32.9195796 L6.26351941,32.9195796 L28.393989,32.9195796 C28.6285548,35.1936443 29.8327954,37.1835784 31.5843902,38.4702229 L24.866323,38.4702229 L24.866323,40 L47.6302223,40 L47.6302223,38.4702229 L40.9121551,38.4702229 C42.6637499,37.1835784 43.8679904,35.1937463 44.1025563,32.9195796 L52.2163921,32.9195796 L52.2163921,28.599591 L52.2163921,22.8510966 L52.2163921,21.8771385 L52.2163921,17.3325786 L52.2163921,7.44715895 C52.2163921,3.34062527 48.8756648,0 44.7693351,0 Z M4.73374229,31.3897005 L1.52977711,31.3897005 L1.52977711,29.9019413 L4.73374229,29.9019413 L4.73374229,31.3897005 Z M35.4327994,1.52977711 L44.0044466,1.52977711 L44.0044466,5.93063991 L35.4327994,5.93063991 L35.4327994,1.52977711 Z M35.4327994,7.46041702 L44.0044466,7.46041702 L44.0044466,11.4046923 L35.4327994,11.4046923 L35.4327994,7.46041702 Z M35.4327994,12.9344694 L44.0044466,12.9344694 L44.0044466,17.3324767 L35.4327994,17.3324767 L35.4327994,12.9344694 Z M25.3313752,1.52977711 L33.9030223,1.52977711 L33.9030223,5.93063991 L25.3313752,5.93063991 L25.3313752,1.52977711 L25.3313752,1.52977711 Z M25.3313752,7.46041702 L33.9030223,7.46041702 L33.9030223,11.4046923 L25.3313752,11.4046923 L25.3313752,7.46041702 L25.3313752,7.46041702 Z M25.3313752,12.9344694 L33.9030223,12.9344694 L33.9030223,17.3324767 L25.3313752,17.3324767 L25.3313752,12.9344694 L25.3313752,12.9344694 Z M15.229951,1.52977711 L23.8015981,1.52977711 L23.8015981,5.93063991 L15.229951,5.93063991 L15.229951,1.52977711 Z M15.229951,7.46041702 L23.8015981,7.46041702 L23.8015981,11.4046923 L15.229951,11.4046923 L15.229951,7.46041702 Z M15.229951,12.9344694 L23.8015981,12.9344694 L23.8015981,17.3324767 L15.229951,17.3324767 L15.229951,12.9344694 Z M6.26351941,1.52977711 L13.7002759,1.52977711 L13.7002759,17.3324767 L6.26351941,17.3324767 L6.26351941,1.52977711 Z M36.2483746,38.4700189 C32.7377401,38.4700189 29.8816462,35.6138231 29.8816462,32.1031886 C29.8816462,28.5925541 32.7377401,25.7364602 36.2483746,25.7364602 C39.7590091,25.7364602 42.615103,28.5925541 42.615103,32.1031886 C42.615103,35.6138231 39.7590091,38.4700189 36.2483746,38.4700189 Z M50.686615,27.06961 L49.2204766,27.06961 L49.2204766,24.3806697 L50.686615,24.3806697 L50.686615,27.06961 Z M50.686615,22.8508926 L47.6906995,22.8508926 L47.6906995,28.5993871 L50.686615,28.5993871 L50.686615,31.3895985 L44.111021,31.3895985 C43.7489738,27.3688344 40.3618433,24.2066831 36.2483746,24.2066831 C32.1349059,24.2066831 28.7477754,27.3688344 28.3857282,31.3895985 L6.26351941,31.3895985 L6.26351941,28.3720622 L6.26351941,21.8768325 L50.686615,21.8768325 L50.686615,22.8508926 Z M50.686615,20.3472594 L6.26351941,20.3472594 L6.26351941,18.8622538 L50.686615,18.8622538 L50.686615,20.3472594 Z M50.686615,17.3324767 L45.5342237,17.3324767 L45.5342237,1.58087167 C48.4368228,1.95740081 50.686615,4.44359457 50.686615,7.44705696 L50.686615,17.3324767 Z" id="Shape"></path>
                    <path d="M36.2483746,28.3721642 C34.1910284,28.3721642 32.5172482,30.0459443 32.5172482,32.1032906 C32.5172482,34.1607388 34.1910284,35.8345189 36.2483746,35.8345189 C38.3057209,35.8345189 39.979501,34.1607388 39.979501,32.1032906 C39.979501,30.0459443 38.3057209,28.3721642 36.2483746,28.3721642 Z M36.2483746,34.3047418 C35.0345475,34.3047418 34.0470253,33.3171177 34.0470253,32.1032906 C34.0470253,30.8894634 35.0345475,29.9019413 36.2483746,29.9019413 C37.4622018,29.9019413 38.4497239,30.8894634 38.4497239,32.1032906 C38.4497239,33.3171177 37.4622018,34.3047418 36.2483746,34.3047418 Z" id="Shape"></path>
                </g>
            </g>
        </g>
    </g>
</svg>