<?xml version="1.0" encoding="UTF-8"?>
<svg width="639px" height="503px" viewBox="0 0 639 503" version="1.1" xmlns="http://www.w3.org/2000/svg" xmlns:xlink="http://www.w3.org/1999/xlink">
    <title>Recurso 9 Copy</title>
    <g id="Page-1" stroke="none" stroke-width="1" fill="none" fill-rule="evenodd" opacity="0.03">
        <g id="Recurso-9-Copy" fill="#00524C" fill-rule="nonzero">
            <polygon id="Path" points="124.984598 475.880062 124.984598 501.14248 119.529095 501.14248 119.529095 485.365756 113.631255 501.14248 107.930009 501.14248 102.032168 485.169161 102.032168 501.14248 98.591761 501.14248 98.591761 475.880062 104.243858 475.880062 111.861903 496.522505 119.479947 475.880062"></polygon>
            <path d="M167.252456,488.56042 C167.252456,496.079325 161.157179,502.174602 153.638274,502.174602 C146.119369,502.174602 140.024092,496.079325 140.024092,488.56042 C140.024092,481.041515 146.119369,474.946238 153.638274,474.946238 C157.289969,474.806705 160.834454,476.196194 163.418477,478.780217 C166.0025,481.36424 167.391988,484.908724 167.252456,488.56042 Z M161.059723,488.56042 C161.059723,482.416836 158.012506,477.747712 153.638274,477.747712 C149.264042,477.747712 146.216824,482.662579 146.216824,488.56042 C146.216824,494.45826 149.214893,499.373128 153.638274,499.373128 C158.061654,499.373128 161.059723,494.704004 161.059723,488.56042 Z" id="Shape"></path>
            <path d="M205.096934,493.327841 C205.096934,501.289926 194.824861,501.289926 194.824861,501.289926 L182.29195,501.289926 L182.29195,475.830914 L194.48082,475.830914 L194.48082,479.025577 L188.091493,479.025577 L188.091493,485.709797 L194.48082,485.709797 C196.315909,485.64671 197.824751,484.242649 198.019525,482.416836 C197.850198,480.562365 196.340815,479.115873 194.48082,479.025577 L194.48082,475.830914 C200.624405,475.830914 203.327581,478.435793 203.327581,482.416836 C203.285503,484.31214 202.157125,486.014269 200.42781,486.791068 C203.255837,487.701327 205.153075,490.357461 205.096934,493.327841 L205.096934,493.327841 Z M199.100796,493.327841 C199.180578,492.096735 198.712141,490.893316 197.821038,490.040132 C196.929935,489.186949 195.707296,488.771252 194.48082,488.904461 L188.091493,488.904461 L188.091493,498.144411 L194.824861,498.144411 C196.048682,498.123198 197.207632,497.590193 198.020236,496.674845 C198.832841,495.759497 199.224755,494.545553 199.100796,493.327841 L199.100796,493.327841 Z" id="Shape"></path>
            <polygon id="Path" points="225.886822 475.830914 225.886822 501.14248 220.087279 501.14248 220.087279 475.830914"></polygon>
            <polygon id="Path" points="261.175569 498.19356 261.175569 501.388223 242.056735 501.388223 242.056735 475.880062 247.856279 475.880062 247.856279 498.19356"></polygon>
            <polygon id="Path" points="280.933335 479.025577 280.933335 485.365756 291.057961 485.365756 291.057961 488.56042 280.933335 488.56042 280.933335 498.390154 295.677937 498.390154 295.677937 501.14248 275.035494 501.14248 275.035494 475.830914 295.727085 475.830914 295.727085 479.025577"></polygon>
            <path d="M357.900156,493.327841 C357.900156,501.289926 347.677232,501.289926 347.677232,501.289926 L335.14432,501.289926 L335.14432,475.830914 L347.284042,475.830914 L347.284042,479.025577 L340.943864,479.025577 L340.943864,485.709797 L347.284042,485.709797 C349.129839,485.709797 350.626152,484.213483 350.626152,482.367687 C350.626152,480.521891 349.129839,479.025577 347.284042,479.025577 L347.284042,475.830914 C353.427626,475.830914 356.130803,478.435793 356.130803,482.416836 C356.097648,484.300799 354.990322,485.999972 353.28018,486.791068 C356.088744,487.718763 357.963044,490.370698 357.900156,493.327841 L357.900156,493.327841 Z M351.904018,493.327841 C351.9838,492.096735 351.515363,490.893316 350.62426,490.040132 C349.733157,489.186949 348.510518,488.771252 347.284042,488.904461 L340.943864,488.904461 L340.943864,498.144411 L347.677232,498.144411 C348.89761,498.124596 350.052804,497.590067 350.857859,496.672679 C351.662914,495.755291 352.042876,494.540455 351.904018,493.327841 L351.904018,493.327841 Z" id="Shape"></path>
            <path d="M387.536805,494.949747 L376.724097,494.949747 L374.315812,501.14248 L370.777108,501.14248 L380.606842,475.683468 L386.947021,475.683468 L396.776755,501.14248 L389.94509,501.14248 L387.536805,494.949747 Z M386.357237,491.755083 L382.130451,480.500038 L377.903665,491.755083 L386.357237,491.755083 Z" id="Shape"></path>
            <path d="M427.396378,501.14248 L422.481511,491.607637 L416.092183,491.607637 L416.092183,501.14248 L410.29264,501.14248 L410.29264,475.830914 L423.169592,475.830914 C423.169592,475.830914 432.999327,475.830914 432.999327,483.792999 C433.021269,487.184167 430.696933,490.140559 427.396378,490.919556 L433.785705,501.289926 L427.396378,501.14248 Z M416.092183,488.56042 L423.169592,488.56042 C423.169592,488.56042 426.904891,488.56042 426.904891,483.645553 C426.904891,478.730685 423.169592,478.730685 423.169592,478.730685 L416.092183,478.730685 L416.092183,488.56042 Z" id="Shape"></path>
            <path d="M471.630183,493.327841 C471.630183,501.14248 461.112367,501.14248 461.112367,501.14248 L448.579456,501.14248 L448.579456,475.830914 L460.768326,475.830914 L460.768326,479.025577 L454.428148,479.025577 L454.428148,485.709797 L460.768326,485.709797 C462.614123,485.709797 464.110436,484.213483 464.110436,482.367687 C464.110436,480.521891 462.614123,479.025577 460.768326,479.025577 L460.768326,475.830914 C466.91191,475.830914 469.615087,478.435793 469.615087,482.416836 C469.581933,484.300799 468.474607,485.999972 466.764464,486.791068 C469.67043,487.629856 471.660507,490.303393 471.630183,493.327841 L471.630183,493.327841 Z M465.634045,493.327841 C465.713828,492.096735 465.245391,490.893316 464.354288,490.040132 C463.463185,489.186949 462.240545,488.771252 461.01407,488.904461 L454.428148,488.904461 L454.428148,498.144411 L461.112367,498.144411 C462.336188,498.123198 463.495137,497.590193 464.307742,496.674845 C465.120347,495.759497 465.512261,494.545553 465.388302,493.327841 L465.634045,493.327841 Z" id="Shape"></path>
            <polygon id="Path" points="492.223477 479.025577 492.223477 485.365756 502.348103 485.365756 502.348103 488.56042 492.223477 488.56042 492.223477 498.390154 506.968078 498.390154 506.968078 501.14248 486.374785 501.14248 486.374785 475.830914 507.066376 475.830914 507.066376 479.025577"></polygon>
            <path d="M545.353191,492.099124 C544.246666,498.084977 538.846855,502.30358 532.771131,501.928859 C525.252226,501.928859 519.156949,495.833582 519.156949,488.314676 C519.156949,480.795771 525.252226,474.700494 532.771131,474.700494 C539.010329,474.55217 544.392909,479.051671 545.353191,485.21831 L539.504499,486.250432 C539.013013,481.335565 537.440255,477.747712 532.771131,477.747712 C528.102007,477.747712 526.037763,482.662579 526.037763,488.56042 C526.037763,494.45826 528.052859,499.422276 532.771131,499.373128 C537.489404,499.323979 539.209607,495.490383 539.504499,491.214448 L545.353191,492.099124 Z" id="Path"></path>
            <path d="M572.139218,502.027156 L572.139218,502.027156 C563.5382,502.027156 560.048644,497.702073 560.048644,490.526367 L560.048644,475.781765 L565.848188,475.781765 L565.848188,490.526367 C565.848188,494.900599 566.782012,498.832492 572.188366,498.832492 C577.59472,498.832492 579.364072,495.146342 579.364072,489.445096 L579.364072,475.830914 L582.902777,475.830914 L582.902777,489.445096 C582.755331,496.522505 580.985979,501.978007 572.139218,502.027156 Z" id="Path"></path>
            <polygon id="Path" points="604.331598 479.025577 604.331598 485.365756 614.456224 485.365756 614.456224 488.56042 604.331598 488.56042 604.331598 498.390154 619.0762 498.390154 619.0762 501.14248 598.384609 501.14248 598.384609 475.830914 619.0762 475.830914 619.0762 479.025577"></polygon>
            <path d="M46.6416145,30.5439436 C48.9516021,34.1809454 51.5564818,37.7196498 53.620726,41.3566515 C55.6849702,44.9936532 58.7813366,48.2866143 61.0913242,51.8253187 C63.4013118,55.3640231 64.2859879,60.0331469 66.6451241,63.621 C69.0042604,67.2088531 73.3784922,69.469692 75.7376285,73.0083964 C78.0967647,76.5471008 79.4237789,80.8721839 81.8320638,84.4108883 C84.2403488,87.9495927 86.2554443,91.7831892 88.7128779,95.3218936 C91.1703115,98.860598 93.9226372,102.10441 96.3800708,105.643115 C98.8375044,109.181819 101.294938,112.818821 103.555777,116.259228 C106.602995,120.63346 109.453618,119.060702 109.453618,113.408605 C109.453618,107.756508 110.141699,103.038235 110.141699,97.8776245 C110.141699,92.7170139 110.387442,87.5072547 110.387442,82.3466441 C110.387442,77.1860335 110.09255,71.9762743 110.09255,66.8156637 C109.907893,59.9714887 109.085184,53.1594611 107.635117,46.4681134 C106.308103,41.5532462 105.914913,35.9502976 104.637048,30.789687 C103.359182,25.6290764 104.981088,20.5176145 109.945104,20.2227225 C113.876998,19.9769791 117.808892,19.8786817 121.740786,19.5837897 C125.672679,19.2888977 129.752019,20.5176145 133.683913,20.1735738 C137.615807,19.8295331 141.498552,18.944857 145.430446,18.5516676 C147.706882,18.0931741 150.054773,18.8863473 151.58679,20.6314266 C153.118808,22.3765059 153.60129,24.8073343 152.851895,27.0052392 C151.623178,32.2641471 148.23192,36.8349737 147.003203,42.2413276 C146.265973,45.0428019 147.298095,49.072993 147.003203,52.6608461 C146.420304,56.0274116 146.026498,59.4239935 145.823635,62.8346212 C145.823635,67.1597044 145.184702,71.5339362 145.184702,75.8590194 C145.184702,80.1841025 145.971081,84.607483 145.971081,88.9325662 C145.971081,93.2576493 145.971081,97.6318812 145.971081,102.006113 C145.971081,106.380345 147.003203,110.705428 147.003203,115.030511 C147.003203,119.355594 146.02023,123.729826 146.02023,128.104058 C146.02023,132.47829 145.528743,136.803373 145.528743,141.128456 C146.21138,147.650929 147.54504,154.088717 149.509785,160.345587 C150.738502,164.818116 150.197867,169.782132 151.426584,174.205512 C152.192656,176.325621 151.946638,178.679704 150.758775,180.595613 C149.570911,182.511522 147.571767,183.778667 145.332148,184.035247 C141.20366,184.821626 137.419212,187.033316 133.290724,187.770546 C129.162235,188.507776 124.984598,188.556925 120.85611,189.294155 C115.529445,189.932353 110.287656,187.566925 107.241927,183.150571 C104.391304,179.316974 101.737276,175.385081 98.9358018,171.453187 C96.1343274,167.521293 93.0871098,163.93344 90.2856354,160.050695 C87.4841611,156.16795 84.0437541,152.776691 81.2914284,148.844798 C78.5391028,144.912904 75.8359258,141.030159 73.1327488,137.049116 C70.4295719,133.068074 68.611071,128.644693 65.760448,124.663651 C62.909825,120.682608 59.6660127,117.242201 57.0119844,113.261159 C54.3579561,109.280116 50.8192517,105.888858 48.214372,101.858667 C45.6094924,97.8284759 42.3656801,97.8776245 42.3656801,103.726317 C42.3656801,107.805656 44.1841809,111.884996 44.1841809,115.964336 C44.1841809,120.043676 43.0046128,124.123015 43.0046128,128.202355 C43.0046128,132.281695 42.5622747,136.361035 42.5622747,140.440375 C42.5622747,144.519714 42.9554641,148.599054 42.9554641,152.678394 C42.9554641,155.578166 45.1671544,159.215167 45.6094924,162.950467 C46.0518305,166.685766 44.6756676,170.814254 45.3637491,173.56658 C46.5924659,178.481447 48.3126694,183.396314 49.5413862,188.311181 C50.4257716,190.532435 50.1457705,193.048258 48.7946426,195.020708 C47.4435146,196.993157 45.1987525,198.16312 42.8080181,198.140916 C38.8761243,198.435808 35.0425279,200.647498 31.1106341,200.844093 C27.1787403,201.040687 23.0994006,199.025592 19.1675068,199.074741 C15.235613,199.123889 11.2545706,200.352606 7.32267678,200.352606 C2.40780956,200.352606 0.0978219674,195.880077 1.62143081,189.883939 C2.85014761,184.969072 4.47205379,179.611866 5.65162193,174.402107 C6.33970334,171.551484 5.01268919,167.324698 5.65162193,163.491102 C6.29055466,159.657505 6.88033873,155.823909 6.88033873,152.874989 C6.88033873,147.960121 8.3547989,143.438444 8.3547989,138.720171 C8.3547989,134.001899 7.8141635,129.332775 7.8141635,124.614502 C7.8141635,119.89623 6.24140599,115.177957 6.24140599,110.459685 C6.24140599,105.741412 6.97863607,101.072288 6.97863607,96.3540157 C6.97863607,91.6357432 6.68374404,86.9174706 6.68374404,82.1991981 C6.68374404,77.4809256 6.68374404,72.8118017 6.68374404,68.0935292 C6.68374404,64.9971628 5.84821661,61.1144177 5.40587856,57.2316726 C4.94117944,53.6730111 4.26832746,50.144641 3.390783,46.6647081 C2.06376886,40.9634621 1.91632284,35.0656215 0.589308689,29.3152268 C-0.73770546,23.5648322 2.40780956,18.4533703 7.37182545,18.944857 C11.5494626,19.387195 15.6288024,20.5176145 19.8064395,20.8125065 C23.9840767,21.1073986 28.2108625,20.3210198 32.3884996,20.5176145 C38.2998424,21.794919 43.4417979,25.4120187 46.6416145,30.5439436 Z" id="Path"></path>
            <path d="M334.357942,60.917823 C334.405463,65.4934084 334.060155,70.0646296 333.325819,74.5811539 C332.778684,79.2146867 331.874944,83.7991119 330.622642,88.2936334 C328.631824,92.4475551 326.348874,96.4550362 323.790977,100.285909 C322.426966,104.758021 320.785494,109.140753 318.87611,113.408605 C315.973595,117.002501 312.855084,120.416451 309.537862,123.631529 C306.446752,127.011051 303.164811,130.210944 299.708128,133.21552 C296.56551,136.346382 293.251038,139.299872 289.780096,142.062281 C286.047268,144.708691 282.175359,147.153244 278.181009,149.385433 C274.303567,151.821357 270.282426,154.020675 266.139585,155.971355 C261.847804,157.556338 257.465896,158.88568 253.016889,159.952398 C248.668389,161.144622 244.230516,161.982887 239.746748,162.45898 C235.290354,163.120332 230.780604,163.350758 226.280011,163.147061 C221.779606,162.882233 217.325797,162.090444 213.00987,160.787925 C208.847032,159.223283 204.912836,157.107413 201.312486,154.496895 C197.12345,152.68551 193.177333,150.357465 189.565953,147.566932 C186.444283,144.200344 183.738122,140.471122 181.505571,136.459332 C179.705541,132.263789 178.322716,127.901305 177.377083,123.434934 C175.788311,119.231987 174.603394,114.887292 173.838378,110.459685 C172.69743,106.021241 171.892391,101.503167 171.430093,96.9437998 C172.09724,92.3550474 173.099272,87.8212638 174.428162,83.3787662 C174.501727,78.8043024 174.879367,74.2397914 175.558582,69.7154354 C176.90022,65.3795754 178.54249,61.1425188 180.473449,57.0350779 C182.585605,53.0444168 184.966614,49.2019617 187.600006,45.5342886 C189.831193,41.6124063 192.310033,37.8366907 195.021456,34.230094 C198.077994,30.7406264 201.361723,27.456898 204.85119,24.4003596 C208.045337,21.1224968 211.461029,18.0680796 215.074114,15.2587066 C219.07679,12.9918175 223.231593,11.0047377 227.508728,9.31171723 C231.597854,7.51353821 235.80097,5.98662491 240.090788,4.74089071 C244.285574,2.88558527 248.604776,1.32541726 253.016889,0.071766855 C257.396045,-0.10424221 261.782221,0.0436064189 266.139585,0.514104905 C270.426841,0.413925681 274.715448,0.643965896 278.967388,1.20218632 C283.313933,1.2263427 287.652046,1.58785212 291.942637,2.2834571 C296.026975,3.7542656 299.960557,5.61407638 303.68917,7.83725706 C307.377581,9.99547931 310.807446,12.5678776 313.912094,15.5044499 C317.094068,18.3076196 319.916987,21.4937204 322.316517,24.9901437 C324.902302,28.3582174 327.080016,32.0207367 328.804142,35.9011489 C330.724443,39.7592063 332.223921,43.8127414 333.276671,47.9917222 C334.045366,52.2564925 334.407414,56.5846128 334.357942,60.917823 L334.357942,60.917823 Z M212.27264,89.3749042 C212.282135,93.6786977 212.877383,97.9611733 214.041992,102.10441 C215.278956,106.200428 217.261775,110.032767 219.890684,113.408605 C221.927865,117.308548 224.737159,120.753278 228.147661,123.533231 C232.262538,125.047871 236.648982,125.684072 241.024613,125.400881 C245.179692,126.297268 249.469021,126.380718 253.655822,125.646624 C258.438466,124.534687 263.027483,122.712334 267.270004,120.24027 C271.334935,117.453783 275.019352,114.149373 278.230158,110.410536 C281.627456,106.871713 284.596771,102.945618 287.076919,98.713152 C289.254724,94.3712187 290.904759,89.7841203 291.991786,85.0498211 C293.516022,80.4384089 294.42493,75.6459843 294.694963,70.7967061 C294.779652,66.5712632 294.283529,62.3542124 293.220503,58.2637947 C291.958739,54.2175787 289.995701,50.4245897 287.42096,47.0578975 C284.855129,43.6875902 281.627082,40.8776839 277.935266,38.8009205 C274.344224,36.4078517 270.320791,34.7383776 266.090436,33.8860533 C261.842237,34.1203058 257.652037,34.9815329 253.655822,36.4417843 C248.925733,37.3230993 244.374888,38.9839918 240.189086,41.3566515 C235.724478,43.3039612 231.555315,45.8683277 227.80362,48.9746957 C224.503113,52.6449589 221.664156,56.705328 219.350049,61.065269 C217.385941,65.5274585 215.982691,70.2159666 215.172411,75.023492 C213.573916,79.6576025 212.598779,84.483708 212.27264,89.3749042 Z" id="Shape"></path>
            <path d="M148.625109,368.441065 C149.657231,371.734026 150.787651,374.977838 151.770624,378.270799 C153.294233,383.185667 152.851895,388.100534 150.492759,388.837764 C146.511716,390.164778 142.039187,389.72244 138.107293,391.000305 C134.1754,392.278171 130.882439,395.915173 126.901396,396.947295 C122.920354,397.979417 118.546122,398.077714 114.56508,399.257282 C110.584037,400.436851 106.455549,401.026635 102.474506,402.107905 C100.11537,402.746838 99.8204779,399.158985 101.294938,393.310293 C102.32706,389.525845 103.555777,385.790546 104.587899,382.006098 C105.227205,378.544345 105.67025,375.04921 105.914913,371.537431 C106.357251,367.703835 107.340225,363.919387 107.340225,361.019615 C107.340225,358.119844 107.585968,355.318369 107.585968,352.418598 C107.585968,346.766501 107.585968,340.819511 107.585968,339.099308 C107.585968,337.379104 102.671101,336.445279 97.7562336,337.624847 C92.8413664,338.804416 88.2705399,338.951862 83.3556727,339.689092 C78.4408054,340.426322 74.3614657,343.620985 69.6923418,344.603959 C65.0232179,345.586932 60.2066481,346.127568 55.4883755,346.913947 C49.732907,347.957556 45.4207998,352.775779 45.0197084,358.611331 C45.0197084,363.526198 45.5111951,368.441065 45.5111951,373.355932 C45.5111951,376.255704 47.2805473,379.843557 47.772034,383.480559 C48.2635207,387.11756 46.8382092,391.393495 47.772034,394.096672 C48.7550074,397.684525 51.4090357,400.83004 52.4411579,404.467042 C53.915618,409.72595 52.9326446,414.296776 50.5735083,414.88656 C46.5924659,415.672939 42.5622747,415.820385 38.630381,416.508466 C34.6984872,417.196548 30.8157421,418.671008 26.8346996,419.260792 C22.8536572,419.850576 18.8726147,420.44036 14.8915723,420.980996 C10.9105299,421.521631 7.02778475,423.094388 3.0467423,423.536726 C0.687606034,423.536726 -0.147921394,418.130373 1.37568744,412.232532 C2.35866089,408.398935 3.88226973,404.663636 4.86524317,400.83004 C5.60247325,397.88112 4.86524317,393.752631 5.40587856,389.820737 C5.94651396,385.888844 8.10905554,382.104396 8.10905554,379.106327 C8.10905554,376.108258 8.40394757,373.011891 8.40394757,369.964674 C8.40394757,366.917456 6.97863607,363.034711 6.97863607,359.053669 C6.97863607,355.072626 7.76501483,351.23903 7.76501483,348.142663 C7.76501483,343.227796 8.40394757,337.821442 8.40394757,332.660832 C8.40394757,327.500221 8.40394757,322.33961 8.40394757,317.179 C8.40394757,314.23008 8.05990686,310.249037 8.05990686,306.267995 C8.05990686,302.286952 7.12608209,298.355058 7.12608209,295.356989 L7.12608209,284.396836 C7.48833628,280.787993 7.5704965,277.156512 7.37182545,273.534979 C6.72864346,270.004725 5.84184757,266.52323 4.71779715,263.11546 C3.68567504,259.232715 1.62143081,255.644862 0.589308689,251.712968 C-0.885151477,246.011723 0.589308689,242.276423 2.99759363,242.227275 C6.97863607,242.227275 10.9105299,240.261328 14.8915723,240.113882 C18.8726147,239.966433 22.9028059,240.949409 26.8838483,240.703666 C30.8648908,240.457923 34.8459332,240.703666 38.8269757,240.310477 C42.8080181,239.917287 46.7399119,239.229206 50.7209543,238.836016 C53.0800906,238.590273 54.9968888,242.866207 53.47328,248.665751 C52.4903065,252.40105 49.5905349,255.644862 48.5584128,259.42931 C47.420585,263.645236 46.6639289,267.954886 46.2975738,272.306262 C46.2975738,277.221129 45.2654517,281.64451 45.2654517,286.313634 C45.2654517,290.982758 47.2805473,295.651881 47.2805473,300.321005 C47.2805473,306.169697 50.622657,311.674349 55.7832676,310.88797 C60.9438781,310.101591 65.0232179,308.332239 69.7414905,307.54586 C74.459763,306.759481 79.2763329,306.612035 83.9946054,305.727359 C88.7128779,304.842683 93.1854071,304.252899 98.1002743,303.269926 C102.002107,302.841814 105.231465,300.043037 106.209805,296.241666 C106.209805,291.326798 106.750441,286.411931 106.750441,281.497064 C106.750441,278.056657 108.224901,274.61625 108.224901,271.175843 C107.925807,264.520993 106.853717,257.923511 105.030237,251.516374 C103.998115,248.026818 101.393235,244.9796 100.11537,241.686639 C98.591761,236.526029 100.11537,231.562013 102.621952,231.168824 C106.602995,230.480742 110.534888,229.44862 114.515931,228.71139 C118.496973,227.97416 122.527164,227.286078 126.459058,226.4997 C130.390952,225.713321 134.273697,224.288009 138.25474,223.452482 C142.235782,222.616955 146.118527,221.388238 150.050421,220.503562 C152.409557,219.962926 153.343382,225.418429 151.819773,230.873931 C150.8368,234.510933 150.394462,238.393678 149.411488,242.03068 C147.887879,247.682777 145.872784,253.13828 145.872784,254.317848 C145.872784,258.839526 146.954054,263.410352 146.954054,267.93203 C146.954054,272.453708 146.954054,277.024535 146.954054,281.546213 C146.954054,286.06789 146.36427,290.638717 146.36427,295.209543 C146.36427,299.78037 146.36427,304.252899 146.36427,308.823726 C146.36427,313.394552 147.052352,317.91623 147.052352,322.437908 C147.052352,326.959586 147.052352,331.530412 147.052352,336.05209 C147.052352,340.573768 145.725338,345.144594 145.725338,349.666272 C145.916415,356.019949 146.890357,362.325809 148.625109,368.441065 L148.625109,368.441065 Z" id="Path"></path>
            <path d="M273.659331,314.377526 L262.011096,319.292393 C258.079202,320.766853 254.393052,322.831097 250.510307,324.20726 C246.627562,325.583423 242.056735,325.534274 238.17399,326.959586 C234.291245,328.384897 231.194879,332.169345 227.312134,333.594656 C221.65737,335.659107 217.305156,340.266263 215.565601,346.02927 C214.877519,349.420529 213.7471,352.71349 213.108167,355.859005 C211.847233,361.801036 207.910325,366.826489 202.442905,369.473187 C197.528038,371.389985 192.170833,373.011891 187.059371,374.830392 C181.947909,376.648893 177.229637,379.008029 171.92158,380.777382 C166.613523,382.546734 165.286509,379.597814 167.891389,373.994865 C170.05393,369.079998 172.413067,364.55832 174.575608,359.840047 C175.902622,357.038573 177.180488,353.254125 178.704097,349.567975 C180.227706,345.881824 181.505571,342.097377 182.439396,339.197605 C183.963005,334.872522 186.322141,330.842331 187.84575,326.566396 C189.369359,322.290462 188.976169,317.228149 190.450629,312.903065 C191.92509,308.577982 193.694442,304.351196 195.365497,300.026113 C197.036551,295.70103 199.887174,291.916582 201.410783,287.591499 C202.934392,283.266416 204.015663,278.793887 205.539272,274.517952 C207.062881,270.242018 207.259475,265.425448 208.783084,261.100365 C210.306693,256.775282 213.697951,253.236577 215.516452,248.960643 C217.334953,244.684708 216.990912,239.769841 218.514521,235.444758 C220.03813,231.119675 222.053226,226.991186 223.429388,222.715252 C224.805551,218.439317 227.115539,214.359978 228.639148,210.084043 C230.627868,204.318508 234.99464,199.683287 240.631424,197.354537 L251.640726,194.110725 C255.326877,193.029454 258.668986,190.916061 262.355137,189.83479 C267.472162,188.55729 272.797571,190.955757 275.232089,195.634334 C277.05059,199.517079 278.377604,203.596418 280.146956,207.430015 C281.916308,211.263611 285.061823,214.605721 286.978622,218.439317 C288.89542,222.272914 289.042866,226.991186 290.861367,230.824783 C292.679868,234.658379 294.350922,238.68857 296.169423,242.522167 C297.987924,246.355763 301.08429,249.648724 303.050237,253.482321 C305.016184,257.315917 306.195752,261.493554 307.965105,265.327151 C309.734457,269.160747 311.159768,273.289236 312.879972,277.122832 C314.600175,280.956428 316.566122,284.839174 318.48292,288.67277 C321.008503,293.159558 323.798514,297.49228 326.838195,301.648019 C329.000736,304.400345 331.753062,306.562887 334.06305,309.364361 C336.373037,312.165835 334.505388,316.736662 329.541372,318.751757 C325.806073,320.324515 321.628435,320.86515 317.843988,322.437908 C314.05954,324.010665 310.71743,326.369802 306.932982,327.942559 C303.148535,329.515317 299.855574,332.071048 296.071126,333.643805 C293.97905,334.584907 291.558084,334.437814 289.595334,333.250351 C287.632585,332.062888 286.378718,329.986706 286.241391,327.696816 C285.799053,324.895341 283.587363,322.437908 283.145025,319.685582 C282.827347,317.584076 281.556337,315.74732 279.701601,314.709437 C277.846865,313.671554 275.61659,313.549041 273.659331,314.377526 L273.659331,314.377526 Z M268.007234,277.024535 C266.434477,273.387533 264.763422,269.750531 263.092367,266.064381 C261.421312,262.37823 259.455365,258.937823 257.882608,255.202524 C256.30985,251.467225 256.457296,247.191291 254.884539,243.455992 C253.311781,239.720692 249.969671,240.900261 248.396914,246.454061 C246.824156,251.368928 243.924385,255.644862 242.302479,260.510581 C240.680572,265.376299 238.763774,270.143721 237.141868,275.058588 C235.519962,279.973455 234.340394,284.888322 232.767636,289.803189 C231.194879,294.718057 233.75061,298.944842 238.91122,297.077193 C242.793965,295.70103 246.480116,293.833381 250.362861,292.408069 C254.245606,290.982758 258.374094,290.245527 262.256839,288.820216 C264.571202,288.048085 266.480896,286.382862 267.560901,284.195158 C268.640907,282.007454 268.801606,279.478804 268.007234,277.171981 L268.007234,277.024535 Z" id="Shape"></path>
            <path d="M448.137118,214.851464 C448.137118,209.936597 448.137118,205.365771 448.137118,200.598349 C448.137118,195.830928 447.547334,191.112656 447.547334,186.345234 C447.547334,181.577813 449.316686,176.810392 449.316686,172.09212 C448.354371,166.851213 446.701693,161.760963 444.401819,156.954329 C443.074804,153.022435 443.074804,148.697352 441.74779,144.765458 C440.420776,140.833564 443.517143,136.999968 448.481158,135.722102 C452.707944,134.591683 456.836433,133.068074 461.063218,132.035952 C465.290004,131.00383 469.615087,130.168302 473.841873,129.13618 C478.068659,128.104058 482.197148,126.580449 486.473082,125.646624 C490.749016,124.7128 493.894532,127.219382 492.616666,131.691911 C491.338801,136.16444 489.913489,140.440375 488.733921,144.863755 C487.279782,150.247321 486.552482,155.801245 486.571379,161.377709 C486.571379,165.997684 486.571379,170.617659 486.571379,175.237635 C486.571379,179.85761 485.686703,184.477585 485.686703,189.09756 C485.686703,193.717535 487.701799,198.33751 487.701799,202.957486 C487.734335,207.724551 487.289782,212.48291 486.374785,217.161452 C484.891283,221.689512 482.947964,226.053745 480.575241,230.18585 C478.848712,234.563879 476.726531,238.775339 474.235063,242.76791 C471.977245,246.959046 469.397376,250.968524 466.518721,254.760186 C462.728057,257.710128 458.755551,260.418655 454.624742,262.869717 C451.329804,266.347583 447.834281,269.629765 444.156075,272.699452 C440.072979,275.145459 435.855959,277.360626 431.524866,279.334522 C427.396378,281.447915 422.825552,282.774929 418.303874,284.544282 C414.068906,286.411259 409.737716,288.051861 405.328624,289.459149 C400.82095,290.664084 396.215975,291.469954 391.566996,291.867434 C386.907132,292.645815 382.1671,292.827489 377.461327,292.408069 C372.832817,291.297496 368.471985,289.275808 364.633524,286.46108 C360.863855,283.729336 357.75643,280.185192 355.541019,276.09071 C352.747684,272.307669 350.63542,268.066509 349.299138,263.557798 C349.03526,258.850729 349.199765,254.129417 349.790625,249.45213 C349.790625,244.537262 350.085517,239.278354 350.085517,234.166893 C350.085517,229.055431 348.758503,223.993117 348.758503,218.881655 C348.758503,213.770194 349.544881,208.70788 349.544881,203.596418 C349.549707,197.868098 348.873259,192.159529 347.529786,186.590978 C346.202772,182.413341 345.121501,178.186555 343.794487,174.008918 C342.467472,169.831281 344.531717,166.341725 349.495733,164.818116 C353.722518,163.540251 357.703561,161.32856 361.930347,159.903249 L374.659853,156.020504 C378.935787,154.742638 383.457465,154.496895 387.7334,153.219029 C392.648267,151.695421 395.351444,153.219029 393.827835,158.133897 C392.304226,163.048764 392.500821,167.963631 391.272104,172.878498 C389.230043,178.586099 387.748593,184.478979 386.848723,190.473723 C386.848723,195.38859 388.667224,200.303457 388.667224,205.218325 C388.667224,210.133192 387.487656,215.048059 387.487656,219.962926 C387.487656,224.877793 387.045318,229.792661 387.045318,234.707528 C386.962931,239.825059 388.436921,244.846909 391.272104,249.108089 C394.073578,253.13828 398.939297,254.022956 404.345651,254.022956 C409.222757,255.083293 414.28548,254.931411 419.090252,253.580618 C423.132143,251.955539 426.934885,249.789629 430.394447,247.142142 C434.186789,244.882334 437.644324,242.103071 440.66652,238.885165 C442.793068,235.049593 444.302394,230.903091 445.139049,226.597997 C446.773891,222.87273 447.78669,218.904553 448.137118,214.851464 L448.137118,214.851464 Z" id="Path"></path>
            <path d="M556.559089,146.731405 C556.559089,151.105637 560.687577,153.464773 566.88031,154.939233 C571.53529,155.707485 576.227169,156.23245 580.93683,156.51199 C585.409359,157.003477 589.980186,159.215167 594.796756,159.8541 C599.576712,159.58275 604.368212,159.58275 609.148168,159.8541 C613.700647,161.326864 618.03242,163.410084 622.02512,166.046833 C630.212302,170.863881 635.297227,179.599522 635.442707,189.09756 C635.375524,193.64033 634.283483,198.109301 632.248044,202.171107 C630.379897,206.318512 627.783057,210.097248 624.580851,213.327856 C621.118369,216.284251 617.344477,218.855112 613.325805,220.995048 C609.377122,223.206989 605.289212,225.160649 601.087786,226.84374 C596.930755,228.696947 592.682089,230.337359 588.358279,231.758608 C584.082345,233.036473 579.708113,234.26519 575.137287,235.297312 C570.56646,236.329434 566.88031,235.985393 562.751821,236.526029 C558.623333,237.066664 554.64229,239.524098 550.513802,239.720692 C546.385313,239.917287 542.06023,239.720692 537.98089,239.720692 C533.84277,239.066045 529.741506,238.196577 525.693722,237.115813 C521.589974,236.719737 517.517721,236.046502 513.504852,235.100717 C511.42813,234.357482 509.775487,232.750624 508.974215,230.695597 C508.172943,228.64057 508.301707,226.339127 509.327215,224.386307 C511.047418,220.9459 514.733569,218.488466 516.404623,215.048059 C518.075678,211.607652 518.272273,207.430015 519.943328,204.038756 C520.758022,202.048503 522.380886,200.498774 524.406567,199.776656 C526.432248,199.054538 528.669475,199.228216 530.559441,200.254309 C534.920113,203.213357 539.582597,205.701113 544.468515,207.675758 C549.530817,209.185144 554.768374,210.027779 560.048644,210.18234 C565.278936,210.550871 570.535018,210.2203 575.677922,209.199367 C579.693645,208.202757 583.514413,206.541553 586.982117,204.2845 C591.454646,201.827066 594.403566,199.369633 594.403566,195.683482 C594.403566,190.768615 590.766564,188.016289 584.868724,186.738424 C580.171282,186.449191 575.460496,186.449191 570.763055,186.738424 C566.290526,186.738424 561.572253,184.625031 556.755683,184.379288 C552.10835,184.133438 547.480015,183.608237 542.895758,182.80653 C538.202169,182.616152 533.556152,181.789458 529.084981,180.349096 C524.918304,178.216828 521.4923,174.876474 519.255246,170.765105 C517.228102,166.651163 516.345329,162.067533 516.699515,157.494964 C516.768,152.937165 517.702011,148.433898 519.451841,144.224822 C521.027372,139.966639 523.321458,136.010173 526.234358,132.527438 C529.064569,128.832988 532.369641,125.527915 536.064092,122.697704 C539.931382,120.004009 544.065191,117.714768 548.400409,115.866039 C552.840906,114.350878 557.392754,113.184159 562.014591,112.376483 C566.462915,110.912233 571.013368,109.778727 575.628773,108.985224 C579.994927,108.101584 584.409692,107.477937 588.849766,107.117575 C593.258537,107.817022 597.623556,108.768793 601.923313,109.968198 C606.384223,109.865901 610.847361,110.013579 615.291752,110.410536 C619.513461,111.759081 623.635633,113.401381 627.628069,115.325403 C629.474992,115.794154 630.969775,117.147367 631.619378,118.938698 C632.268982,120.730029 631.989037,122.726825 630.871881,124.270461 C627.480623,130.020856 624.433405,136.066143 621.042146,142.013132 C620.22492,143.887753 618.646673,145.324629 616.70381,145.962864 C614.760946,146.601099 612.638068,146.380052 610.868371,145.355242 C607.426785,142.211585 603.574403,139.549639 599.416731,137.442306 C595.013027,136.092919 590.453818,135.316532 585.851697,135.132318 C581.267309,134.425672 576.617274,134.244287 571.991772,134.591683 C568.588368,135.568794 565.425136,137.242461 562.702673,139.50655 C559.213117,141.423348 556.559089,143.340146 556.559089,146.731405 Z" id="Path"></path>
            <path d="M487.701799,332.120196 C488.12615,337.336337 490.643672,342.158634 494.68091,345.488635 C498.22288,349.105337 503.293172,350.789333 508.295092,350.010313 C513.779499,349.028452 518.62567,345.850926 521.71268,341.212701 C523.285437,339.099308 526.332655,337.870591 528.00371,339.345051 C531.394968,342.392269 530.117103,343.81758 533.55751,346.864798 C535.179416,348.290109 536.555579,351.189881 534.737078,353.106679 C530.879318,356.876277 526.511645,360.085855 521.761829,362.641522 C517.223228,365.30048 512.218816,367.068706 507.017227,367.851281 C502.16442,368.214858 497.28969,367.544792 492.714963,365.885334 C488.441883,364.382709 484.585091,361.89011 481.459917,358.611331 C477.555642,355.754472 474.360572,352.038101 472.12167,347.749474 C470.23585,343.060872 469.252035,338.058425 469.221898,333.004872 C469.133453,327.959145 470.052444,322.946467 471.925075,318.260271 C474.081743,313.635936 477.101045,309.465629 480.820985,305.973103 C484.663828,302.628084 489.030854,299.938129 493.747085,298.011018 C498.387822,296.291001 503.256691,295.264233 508.196795,294.9638 C512.622399,294.225965 517.13963,294.225965 521.565234,294.9638 C526.098017,295.047924 530.584214,295.895317 534.835375,297.470382 C536.703025,298.64995 536.653876,303.12248 535.130267,305.285021 C531.68986,310.199888 531.100076,309.610104 527.610521,314.279228 C526.086912,316.343472 524.415857,315.999432 523.285437,314.279228 C520.828004,309.659253 516.650367,308.381388 508.540836,309.364361 C503.197875,310.270912 498.372133,313.103413 494.975802,317.326446 C490.843779,321.217175 488.259914,326.472197 487.701799,332.120196 Z" id="Path"></path>
            <path d="M615.242603,311.969241 C615.794358,316.917266 615.377014,321.92539 614.013886,326.713842 C611.871953,331.563867 608.856519,335.978729 605.117977,339.73824 C601.454442,343.70371 597.151545,347.02641 592.388471,349.567975 C587.757158,352.076437 582.792561,353.913338 577.643869,355.023477 C572.810266,355.403536 567.947805,354.903968 563.292457,353.549017 C558.507702,353.4411 553.800359,352.318709 549.48168,350.256056 C545.817113,347.313553 542.931143,343.516225 541.077257,339.197605 C539.079003,334.730083 538.056896,329.887643 538.078831,324.993639 C538.467211,319.762101 539.816799,314.646996 542.06023,309.904996 C544.265599,305.054274 547.329263,300.641933 551.103586,296.880598 C554.402714,292.572774 558.387774,288.836781 562.899267,285.822147 C567.488968,283.233528 572.468682,281.407632 577.643869,280.415793 C582.500488,279.426887 587.496194,279.326973 592.388471,280.120901 C597.067336,281.110386 601.456222,283.161896 605.216274,286.117039 C608.827982,289.24327 611.641805,293.185992 613.424102,297.617828 C615.021824,302.223087 615.641186,307.111025 615.242603,311.969241 L615.242603,311.969241 Z M556.853981,321.504083 C557.303227,326.540533 559.945607,331.124252 564.078835,334.036994 C567.780358,337.42203 572.870964,338.845211 577.791315,337.870591 C583.251567,336.729729 588.09907,333.614727 591.405497,329.122127 C594.690445,324.918599 596.426206,319.711317 596.320364,314.377526 C596.984548,309.260203 595.568143,304.090325 592.388471,300.026113 C588.898915,296.782301 583.295966,297.17549 577.643869,298.158464 C572.262955,299.030479 567.404886,301.889198 564.029687,306.169697 C560.02182,310.356578 557.500631,315.744325 556.853981,321.504083 L556.853981,321.504083 Z" id="Shape"></path>
            <path d="M638.735668,338.509524 C638.735668,343.768432 636.229086,347.995217 631.068476,348.339258 C628.661633,348.39716 626.339546,347.449376 624.660637,345.72383 C622.981727,343.998284 622.097905,341.651107 622.221715,339.246754 C622.087877,336.769227 622.945507,334.340289 624.605302,332.496072 C626.265096,330.651856 628.590587,329.543993 631.068476,329.417019 C636.425681,329.122127 638.735668,333.250616 638.735668,338.509524 Z" id="Path"></path>
        </g>
    </g>
</svg>