<?xml version="1.0" encoding="utf-8"?>
<svg width="69px" height="70px" viewBox="0 0 69 70" version="1.1" xmlns:xlink="http://www.w3.org/1999/xlink" xmlns="http://www.w3.org/2000/svg">
  <desc>Created with Lunacy</desc>
  <g id="Recurso-1" opacity="0.05">
    <path d="M11.4088 0.234613C11.7076 0.483595 11.5333 0.616386 11.5333 1.00646C11.5333 1.39653 11.442 1.39653 11.442 1.7866C11.442 2.17668 11.3922 2.17668 11.3922 2.56675C11.3922 2.95682 11.3922 2.95682 11.3922 3.34689C11.3922 3.73696 11.3341 3.73696 11.3341 4.12704C11.3341 4.51711 11.4005 4.51711 11.4005 4.90718C11.4005 5.29725 11.5665 5.30555 11.5665 5.73712C11.5665 6.16869 11.3507 6.12719 11.3507 6.51727C11.3507 6.90734 11.5582 6.90734 11.5582 7.29741C11.5582 7.68748 11.4918 7.69578 11.4918 8.08586C11.4918 8.47593 11.4918 8.47593 11.4918 8.866C11.4918 9.25607 11.4918 9.26437 11.4918 9.65444C11.4918 10.0445 11.4088 10.0445 11.4088 10.4346C11.4088 10.8247 11.3673 10.833 11.3673 11.2645C11.3673 11.6961 11.3673 11.6546 11.3673 12.053C11.3673 12.4513 11.442 12.443 11.442 12.8414C11.442 13.2398 11.7076 13.356 11.442 13.6714C11.1764 13.9867 11.0519 13.6714 10.6618 13.6714L9.14304 13.6714C8.75296 13.6714 8.75296 13.7959 8.37119 13.7959C7.98942 13.7959 7.93132 13.8705 7.59935 13.6714C7.26737 13.4722 7.32547 13.3892 7.14288 13.0489C6.96029 12.7086 7.14288 12.6339 6.92709 12.2937C6.71131 11.9534 6.76941 11.9368 6.58682 11.6048C6.40423 11.2728 6.35443 11.2894 6.17185 10.9492C5.98926 10.6089 5.89797 10.6587 5.71538 10.3184C5.53279 9.97812 5.55769 9.96982 5.3751 9.62955C5.19252 9.28927 5.20082 9.28097 5.01823 8.9407C4.83564 8.60042 4.91034 8.55892 4.72775 8.21865C4.54516 7.87837 4.52027 7.88667 4.33768 7.54639C4.15509 7.20612 4.21319 7.18122 4.0306 6.84094C3.84801 6.50067 3.78162 6.53387 3.59903 6.19359C3.41644 5.85331 3.39985 5.86161 3.21726 5.52134C3.03467 5.18106 2.95168 5.22256 2.76909 4.88228C2.5865 4.54201 2.6778 4.48391 2.49521 4.14364C2.31262 3.80336 2.49521 3.40499 2.12174 3.49628C1.74826 3.58758 1.99724 3.85316 1.99724 4.24323C1.99724 4.6333 1.99724 4.6333 1.99724 5.07317C1.99724 5.51304 2.11344 5.46324 2.11344 5.85331C2.11344 6.24339 2.11344 6.25169 2.11344 6.64176C2.11344 7.03183 2.06364 7.03183 2.06364 7.4219C2.06364 7.81198 2.06364 7.82027 2.06364 8.21035C2.06364 8.60042 2.13003 8.60872 2.13003 8.99879C2.13003 9.38886 2.08024 9.38886 2.08024 9.82873C2.08024 10.2686 2.02214 10.2188 2.02214 10.6089C2.02214 10.9989 2.13833 11.0072 2.13833 11.3973C2.13833 11.7874 1.98065 11.7957 1.98065 12.2273C1.98065 12.6588 1.98065 12.6256 1.98065 13.0157C1.98065 13.4058 2.38732 13.5801 2.08854 13.8456C1.78976 14.1112 1.59887 13.7295 1.14241 13.7295C0.685937 13.7295 0.569746 14.1112 0.22117 13.8124C-0.127405 13.5137 0.287566 13.4307 0.287566 13.0406C0.287566 12.6505 0.287566 12.6422 0.287566 12.2107C0.287566 11.7791 0.146476 11.8206 0.146476 11.4305C0.146476 11.0404 0.146476 11.0404 0.146476 10.6504C0.146476 10.2603 0.204572 10.2603 0.204572 9.87023C0.204572 9.48016 0.104979 9.48016 0.104979 9.09008C0.104979 8.70001 0.104979 8.70001 0.104979 8.30164C0.104979 7.90327 0.146476 7.91157 0.146476 7.5215C0.146476 7.13142 0.146476 7.13142 0.146476 6.74135C0.146476 6.35128 0.0883797 6.35128 0.0883797 5.91141C0.0883797 5.47154 0.0883797 5.52134 0.0883797 5.13127C0.0883797 4.74119 0.146476 4.74119 0.146476 4.30132C0.146476 3.86146 0.212871 3.91125 0.212871 3.52118C0.212871 3.13111 0.104979 3.13111 0.104979 2.73274C0.104979 2.33436 0.22947 2.34266 0.22947 1.95259C0.22947 1.56252 0.179673 1.55422 0.179673 1.16415C0.179673 0.774075 -0.168902 0.599787 0.104979 0.334206C0.378859 0.0686248 0.536548 0.400601 0.93492 0.400601C1.33329 0.400601 1.30839 0.284409 1.69017 0.284409C2.07194 0.284409 2.06364 0.4172 2.44541 0.4172C2.82719 0.4172 2.81889 0.325907 3.20066 0.325907C3.58243 0.325907 3.58243 0.27611 3.90611 0.475296C4.22979 0.674482 4.14679 0.724278 4.33768 1.06455C4.52856 1.40483 4.43727 1.45463 4.62816 1.7949C4.81904 2.13518 4.83564 2.11858 5.01823 2.45886C5.20082 2.79913 5.31701 2.74104 5.4996 3.08131C5.68218 3.42159 5.70708 3.40499 5.88967 3.75356C6.07226 4.10214 5.97266 4.15194 6.15525 4.49221C6.33784 4.83249 6.29634 4.85739 6.47893 5.19766C6.66151 5.53794 6.70301 5.52134 6.8856 5.86161C7.06818 6.20189 7.05989 6.21849 7.24247 6.55876C7.42506 6.89904 7.44166 6.89074 7.63254 7.23102C7.82343 7.57129 7.75704 7.60449 7.93962 7.94477C8.12221 8.28504 8.18031 8.26014 8.37119 8.60042C8.56208 8.9407 8.67827 8.8743 8.86916 9.21458C9.06004 9.55485 8.96045 9.61295 9.14304 9.96152C9.32563 10.3101 9.14304 10.6338 9.49991 10.5425C9.85679 10.4512 9.41692 10.252 9.41692 9.86193C9.41692 9.47186 9.6161 9.46356 9.6161 9.07349C9.6161 8.68341 9.41692 8.68341 9.41692 8.24354C9.41692 7.80368 9.59951 7.85347 9.59951 7.4551C9.59951 7.05673 9.59951 7.06503 9.59951 6.66666C9.59951 6.26829 9.6493 6.27658 9.6493 5.83672C9.6493 5.39685 9.54971 5.44664 9.54971 5.00677C9.54971 4.56691 9.60781 4.6167 9.60781 4.21833C9.60781 3.81996 9.60781 3.82826 9.60781 3.38839C9.60781 2.94852 9.60781 2.99832 9.60781 2.55845C9.60781 2.11858 9.6991 2.16008 9.6991 1.72851C9.6991 1.29694 9.57461 1.33014 9.57461 0.898566C9.57461 0.466997 9.25093 0.301008 9.57461 0.0686248C9.89828 -0.163759 10.1141 0.27611 10.5705 0.184817C11.027 0.093523 11.0519 -0.0641658 11.4088 0.234613Z" transform="translate(16.58508 0.2744141)" id="Path" fill="#FFFFFF" stroke="none" />
    <path d="M14.3389 7.52267C14.3152 7.3973 14.2916 7.27208 14.2916 7.14856C14.2916 7.04985 14.2959 6.95653 14.3002 6.86238C14.308 6.69531 14.3158 6.52564 14.2999 6.31862C14.2317 6.05582 14.1457 5.79795 14.0426 5.54677C14.0049 5.28328 13.9495 5.02264 13.8766 4.76663C13.8157 4.50555 13.7409 4.24791 13.6525 3.99478C13.5185 3.76268 13.3717 3.53825 13.2127 3.32253C13.1344 3.07167 13.043 2.82511 12.9388 2.58388C12.7435 2.39877 12.5385 2.22423 12.3246 2.06102C12.1412 1.87051 11.9472 1.69041 11.7437 1.52156C11.5279 1.35557 11.3951 1.07339 11.1627 0.932301C10.9124 0.822462 10.6544 0.730928 10.3909 0.65842C10.1556 0.528229 9.91155 0.41453 9.66051 0.318144C9.40798 0.218742 9.15034 0.13286 8.88867 0.0608624C8.60649 0.0110659 8.34091 0.0110659 8.05873 0.0110659L7.22879 0.0110659C7.12661 0.0110659 7.03219 0.00815373 6.94023 0.00531727C6.76329 -0.000140074 6.59544 -0.00531722 6.39885 0.0110659C6.10007 0.0359641 5.83449 0.102359 5.5689 0.152156C5.3171 0.243669 5.07051 0.348954 4.83026 0.467533C4.57208 0.556561 4.31983 0.661899 4.07501 0.782911C3.81075 0.845468 3.55028 0.923055 3.29487 1.01529C3.07284 1.16939 2.8595 1.33563 2.65581 1.51326C2.42078 1.65285 2.19359 1.80523 1.97526 1.96973C1.809 2.18576 1.65387 2.41013 1.51049 2.64198C1.35764 2.85803 1.22168 3.08556 1.10382 3.32253C0.9839 3.50923 0.875796 3.70327 0.780145 3.90349C0.647463 4.13586 0.530994 4.37712 0.431569 4.62554C0.356875 4.92432 0.307078 5.1816 0.248982 5.45548C0.171741 5.71201 0.108024 5.97241 0.0580959 6.23562C0.0208864 6.51073 0.00148068 6.78796 0 7.06557L0 7.89551C0.0609451 8.15931 0.135743 8.41972 0.224084 8.67565C0.296098 8.93188 0.381985 9.184 0.481366 9.4309C0.548337 9.68866 0.634334 9.9411 0.738648 10.1861C0.79428 10.4676 0.869151 10.7449 0.962732 11.0161C1.13186 11.2298 1.31484 11.4322 1.51049 11.6219C1.62039 11.8833 1.74508 12.1383 1.88397 12.3855C2.10701 12.5464 2.33985 12.6933 2.58112 12.8254C2.79253 12.9889 3.01431 13.1386 3.24507 13.2735C3.47745 13.4146 3.70984 13.5391 3.95052 13.6553C4.19361 13.7739 4.44296 13.8792 4.69747 13.9707C4.95354 14.0563 5.21395 14.1283 5.47761 14.1865C5.75979 14.228 6.00877 14.228 6.30755 14.228L7.96743 14.228C8.06585 14.228 8.16331 14.2337 8.25917 14.2393C8.44626 14.2503 8.62726 14.2609 8.79738 14.228C9.06415 14.182 9.32756 14.1182 9.58582 14.0371C9.84188 13.9463 10.0914 13.8382 10.3328 13.7134C10.5914 13.6255 10.8437 13.5201 11.088 13.398C11.3121 13.2569 11.4283 12.9415 11.6358 12.7756C11.8433 12.6096 12.1835 12.5847 12.3744 12.3938C12.5653 12.2029 12.6234 11.8958 12.7894 11.68C12.9368 11.4592 13.0698 11.2291 13.1878 10.9912C13.3387 10.7723 13.4773 10.5451 13.6027 10.3106C13.724 10.0733 13.8321 9.82952 13.9264 9.58029C14.0094 9.32301 14.1256 9.10722 14.1754 8.80844C14.2252 8.50966 14.358 8.25238 14.3829 7.9785C14.3965 7.82814 14.3677 7.67529 14.3389 7.52267ZM10.922 6.40161C10.9386 6.65059 11.0797 6.89128 11.0797 7.14856C11.0797 7.27556 11.1139 7.39687 11.1477 7.51702C11.1846 7.64812 11.2212 7.77785 11.2125 7.91211C11.1959 8.16939 11.1876 8.42667 11.1461 8.68395C11.1046 8.94123 10.8971 9.15702 10.839 9.3977C10.7875 9.64495 10.7209 9.88885 10.6398 10.128C10.5182 10.3533 10.3766 10.5672 10.2166 10.7671C10.1227 10.9991 10.0117 11.2238 9.8846 11.4394C9.73062 11.6453 9.5584 11.837 9.37004 12.012C9.1895 12.1959 8.99223 12.3626 8.78078 12.51C8.54142 12.6118 8.29061 12.6843 8.03383 12.7258C7.78569 12.7986 7.52886 12.8377 7.27028 12.842C7.01734 12.8174 6.76888 12.7588 6.53164 12.6677C6.28863 12.6061 6.05439 12.5141 5.83449 12.3938C5.61869 12.2641 5.41581 12.114 5.22863 11.9456C5.01649 11.805 4.81659 11.6468 4.63107 11.4726C4.45584 11.282 4.29756 11.0765 4.158 10.8584C4.04072 10.63 3.93815 10.3944 3.85093 10.1529C3.77623 9.92056 3.84263 9.63008 3.77623 9.3811C3.67138 9.14578 3.57994 8.90471 3.50235 8.65905C3.46247 8.5145 3.47649 8.35796 3.49044 8.20204C3.49972 8.09836 3.50898 7.99495 3.50235 7.89551C3.48575 7.64652 3.34466 7.39754 3.34466 7.14026C3.34466 7.05419 3.34188 6.96905 3.3391 6.88421C3.33358 6.71546 3.32809 6.54793 3.34466 6.37671C3.36956 6.11943 3.40276 5.86215 3.44426 5.62147C3.4969 5.37175 3.5634 5.12515 3.64344 4.88282C3.71269 4.64033 3.79582 4.40202 3.89242 4.16907C3.99202 3.92839 4.03351 3.66281 4.14971 3.44702C4.27446 3.2255 4.41306 3.01206 4.56468 2.80797C4.73319 2.61408 4.91934 2.43627 5.12074 2.27681C5.3292 2.1305 5.55501 2.01063 5.79299 1.91993C6.01351 1.80493 6.24778 1.71847 6.49014 1.66265C6.7095 1.60174 6.93499 1.56555 7.16239 1.55476C7.4111 1.57404 7.65644 1.62422 7.89274 1.70415C8.0078 1.7425 8.1335 1.73831 8.25755 1.73418C8.40192 1.72938 8.54406 1.72464 8.66459 1.78714C8.88867 1.90333 8.97996 2.21871 9.17085 2.3847C9.36174 2.55069 9.65222 2.61708 9.8099 2.81627C9.99654 3.00636 10.1634 3.21491 10.3079 3.43872C10.4183 3.66986 10.5125 3.90834 10.59 4.15247C10.6754 4.39176 10.7474 4.63558 10.8058 4.88282C10.8579 5.13233 10.8967 5.38443 10.922 5.63807C10.922 5.71681 10.9202 5.79911 10.9184 5.88293C10.9147 6.0553 10.9109 6.23409 10.922 6.40161Z" transform="translate(30.02722 0)" id="Shape" fill="#FFFFFF" fill-rule="evenodd" stroke="none" />
    <path d="M11.9323 0.166524C12.2062 0.448704 12.0568 0.548297 12.0568 0.93837C12.0568 1.32844 11.9655 1.32844 11.9655 1.72681C11.9655 2.12519 11.924 2.11689 11.924 2.50696C11.924 2.89703 11.8825 2.89703 11.8825 3.2871C11.8825 3.67718 11.8244 3.67718 11.8244 4.06725C11.8244 4.45732 11.8908 4.45732 11.8908 4.84739C11.8908 5.23746 12.0568 5.23746 12.0568 5.62754C12.0568 6.01761 11.8493 6.02591 11.8493 6.41598C11.8493 6.80605 12.0485 6.80605 12.0485 7.19613C12.0485 7.5862 11.9821 7.5862 11.9821 7.98457C11.9821 8.38294 11.9821 8.37464 11.9821 8.76471C11.9821 9.15479 11.9821 9.15479 11.9821 9.55316C11.9821 9.95153 11.8908 9.94323 11.8908 10.3333C11.8908 10.7234 11.8908 10.7234 11.8908 11.1134C11.8908 11.5035 11.8908 11.5118 11.8908 11.9019C11.8908 12.292 11.9655 12.3003 11.9655 12.7318C11.9655 13.1634 12.2228 13.2464 11.9655 13.5618C11.7082 13.8772 11.5671 13.5618 11.1937 13.5618L9.66658 13.5618C9.2848 13.5618 9.07732 13.9269 8.83664 13.6531C8.59595 13.3792 8.93623 13.1551 8.93623 12.7401C8.93623 12.3252 8.82834 12.3252 8.82834 11.9102C8.82834 11.4952 8.99433 11.4952 8.99433 11.0802C8.99433 10.6653 8.99433 10.6736 8.99433 10.2503C8.99433 9.82704 8.93623 9.83534 8.93623 9.42037C8.93623 9.0054 8.82834 8.9971 8.82834 8.59043C8.82834 8.18375 8.82834 8.17546 8.82834 7.76049C8.82834 7.34552 9.12712 7.24592 8.82834 6.93054C8.52956 6.61517 8.46316 6.86415 8.07309 6.86415C7.68302 6.86415 7.68302 6.86415 7.29295 6.86415C6.90287 6.86415 6.91117 6.80605 6.5211 6.80605C6.13103 6.80605 6.13933 6.87245 5.74926 6.87245C5.35918 6.87245 5.35918 6.87245 4.96911 6.87245C4.57904 6.87245 4.57904 6.96374 4.18897 6.96374C3.79889 6.96374 3.6661 6.57367 3.35903 6.86415C3.05195 7.15463 3.40882 7.28742 3.40882 7.69409C3.40882 8.10076 3.25943 8.10906 3.25943 8.52403C3.25943 8.939 3.25943 8.939 3.25943 9.35397C3.25943 9.76894 3.38392 9.76894 3.38392 10.1839C3.38392 10.5989 3.38392 10.5989 3.38392 11.0139C3.38392 11.4288 3.33413 11.4288 3.33413 11.8438C3.33413 12.2588 3.33413 12.2671 3.33413 12.6737C3.33413 13.0804 3.6578 13.263 3.33413 13.5701C3.01045 13.8772 2.88596 13.5701 2.50419 13.5701C2.12241 13.5701 2.12241 13.5203 1.74064 13.5203C1.35887 13.5203 1.36717 13.6282 0.985394 13.6282C0.603622 13.6282 0.528927 13.761 0.263346 13.4871C-0.00223538 13.2132 0.263346 13.1385 0.263346 12.7484C0.263346 12.3584 0.147154 12.3584 0.147154 11.9683C0.147154 11.5782 0.271645 11.5782 0.271645 11.1881C0.271645 10.7981 0.188651 10.7981 0.188651 10.3997C0.188651 10.0013 0.255046 10.0179 0.255046 9.62785C0.255046 9.23778 0.255046 9.23778 0.255046 8.84771C0.255046 8.45764 0.113956 8.44934 0.113956 8.05926C0.113956 7.66919 0.113956 7.66919 0.113956 7.27912C0.113956 6.88905 0.172052 6.88905 0.172052 6.49068C0.172052 6.0923 0.0724593 6.1006 0.0724593 5.71053C0.0724593 5.32046 0.0724593 5.32046 0.0724593 4.92209C0.0724593 4.52372 0.0724593 4.53201 0.0724593 4.14194C0.0724593 3.75187 0.0724593 3.75187 0.0724593 3.3618C0.0724593 2.97173 0.0226628 2.96343 0.0226628 2.57335C0.0226628 2.18328 0.0226628 2.18328 0.0226628 1.74341C0.0226628 1.30354 0.0807587 1.35334 0.0807587 0.954968C0.0807587 0.556597 -0.135026 0.490201 0.138855 0.199722C0.412735 -0.0907574 0.47913 0.108428 0.852604 0.108428C1.22608 0.108428 1.23438 0.23292 1.61615 0.23292C1.99792 0.23292 1.99792 0.183123 2.3714 0.183123C2.74487 0.183123 2.93576 -0.165452 3.20134 0.108428C3.46692 0.382309 3.12664 0.581495 3.12664 0.996466C3.12664 1.41144 3.24283 1.41144 3.24283 1.82641C3.24283 2.24138 3.11004 2.24968 3.11004 2.65635C3.11004 3.06302 3.20134 3.07132 3.20134 3.48629C3.20134 3.90126 3.04365 3.90126 3.04365 4.31623C3.04365 4.7312 2.86106 4.83909 3.15154 5.14617C3.44202 5.45325 3.53331 5.23746 3.91509 5.23746C4.29686 5.23746 4.30516 5.23746 4.69523 5.23746C5.0853 5.23746 5.077 5.11297 5.46708 5.11297C5.85715 5.11297 5.85715 5.11297 6.24722 5.11297C6.63729 5.11297 6.62899 5.22917 7.01907 5.22917C7.40914 5.22917 7.40914 5.28726 7.79921 5.28726C8.18928 5.28726 8.34697 5.51964 8.62915 5.22917C8.91133 4.93869 8.62915 4.7893 8.62915 4.39922C8.62915 4.00915 8.62915 3.98425 8.62915 3.56928C8.62915 3.15431 8.69555 3.15431 8.69555 2.73934C8.69555 2.32437 8.91963 2.29117 8.91963 1.83471C8.91963 1.37824 8.77024 1.41144 8.77024 1.00476C8.77024 0.598094 8.59595 0.481902 8.87813 0.174824C9.16031 -0.132254 9.25161 0.058632 9.63338 0.058632L10.3886 0.058632C10.7704 0.058632 10.7953 0.332513 11.1688 0.249518C11.5422 0.166524 11.6667 -0.107356 11.9323 0.166524Z" transform="translate(3.529541 15.97021)" id="Path" fill="#FFFFFF" stroke="none" />
    <path d="M8.52174 10.0406C8.65414 9.96852 8.75908 9.91136 8.95262 10.0341C9.13255 10.149 9.08975 10.3061 9.03992 10.4891C9.007 10.6099 8.97101 10.742 8.99412 10.8806C9.05221 11.2292 9.17671 11.2043 9.3012 11.5363C9.42569 11.8683 9.39249 11.8849 9.51698 12.2168C9.64147 12.5488 9.59997 12.5654 9.72447 12.8974C9.7705 13.0202 9.77114 13.1213 9.77171 13.2111C9.77268 13.3639 9.77344 13.4834 9.99835 13.6194C10.2079 13.7461 10.3316 13.6926 10.4836 13.6268C10.5906 13.5805 10.7116 13.5281 10.8864 13.5281C11.3097 13.5281 11.3014 13.5862 11.7163 13.5862L12.5463 13.5862C12.6916 13.5862 12.7962 13.6147 12.8811 13.6379C13.0387 13.6808 13.1285 13.7053 13.2849 13.495C13.4294 13.3007 13.3586 13.235 13.2483 13.1327C13.1749 13.0646 13.084 12.9803 13.0276 12.831C12.8865 12.4575 12.9529 12.4409 12.8118 12.0675C12.6708 11.694 12.621 11.7687 12.455 11.3537C12.289 10.9387 12.4301 10.8972 12.289 10.5238C12.1479 10.1503 12.0317 10.2001 11.8989 9.82661C11.7661 9.45314 11.7827 9.48633 11.6499 9.07966C11.5845 8.87921 11.5856 8.76547 11.5866 8.65693C11.5877 8.54526 11.5887 8.43911 11.5171 8.24972C11.376 7.87625 11.2765 7.90945 11.1354 7.54427C10.9943 7.1791 11.0524 7.1625 10.9113 6.78903C10.7702 6.41555 10.82 6.40725 10.6789 6.03378C10.5378 5.66031 10.4797 5.67691 10.3386 5.31173C10.1975 4.94656 10.1726 4.94656 10.0398 4.58138C9.90705 4.21621 9.95685 4.20791 9.81576 3.83444C9.67467 3.46096 9.65807 3.47756 9.51698 3.10409C9.37589 2.73061 9.268 2.78041 9.12691 2.40694C8.98582 2.03346 8.95262 2.08326 8.81983 1.67659C8.75437 1.47611 8.75547 1.36035 8.7565 1.25074C8.75757 1.13801 8.75858 1.0318 8.68704 0.846648C8.63593 0.714375 8.62621 0.615857 8.61802 0.532953C8.60361 0.386979 8.59398 0.289408 8.37166 0.141199C8.12711 -0.0218374 8.02145 -0.00921376 7.83686 0.0128395C7.75835 0.0222198 7.66556 0.0333062 7.54172 0.0333062C7.12675 0.0333062 7.11845 0.1246 6.71178 0.1246L5.88184 0.1246C5.73304 0.1246 5.63013 0.102191 5.54555 0.0837744C5.39426 0.0508306 5.30164 0.0306625 5.10999 0.174396C4.81121 0.39848 4.9523 0.481474 4.81121 0.854948C4.67013 1.22842 4.68672 1.23672 4.54563 1.61019C4.40454 1.98367 4.32155 1.95047 4.18876 2.32394C4.05597 2.69742 4.04767 2.69742 3.90658 3.06259C3.76549 3.42777 3.73229 3.42777 3.5995 3.79294C3.46671 4.15811 3.5663 4.20791 3.42521 4.57308C3.28412 4.93826 3.34222 4.95486 3.20113 5.32833C3.06004 5.7018 3.03514 5.6852 2.89405 6.05868C2.75296 6.43215 2.63677 6.36576 2.46248 6.73923C2.28819 7.1127 2.42928 7.1459 2.28819 7.51938C2.1471 7.89285 2.04751 7.85135 1.88982 8.21653C1.73213 8.5817 1.87322 8.6315 1.73213 8.99667C1.59104 9.36184 1.60764 9.37014 1.46655 9.73532L1.18437 10.474C1.04328 10.8391 1.01838 10.8225 0.877294 11.196C0.736204 11.5695 0.719605 11.5612 0.586815 11.9347C0.454024 12.3081 0.51212 12.3247 0.379329 12.6982C0.325924 12.8484 0.221506 12.9342 0.135723 13.0046C0.0082106 13.1094 -0.0781292 13.1803 0.105449 13.3788C0.292997 13.5815 0.406245 13.5366 0.571876 13.4709C0.677437 13.4291 0.804276 13.3788 0.985186 13.3788C1.18191 13.3788 1.33106 13.4263 1.45969 13.4674C1.63493 13.5233 1.77209 13.5671 1.93962 13.4618C2.2301 13.2792 2.10561 13.0966 2.2301 12.7646C2.35459 12.4326 2.32969 12.416 2.45418 12.0841C2.57867 11.7521 2.63677 11.7687 2.76126 11.4367C2.82351 11.2707 2.80691 11.1711 2.79031 11.0715C2.77371 10.9719 2.75711 10.8723 2.81936 10.7063C2.94385 10.3744 2.86915 10.3744 3.21773 10.1669C3.4859 10.0073 3.53793 10.0097 3.7404 10.0194C3.80111 10.0223 3.87534 10.0258 3.97297 10.0258C4.39624 10.0258 4.37965 9.9594 4.80292 9.9594C5.22619 9.9594 5.20959 10.0175 5.63286 10.0175L6.4628 10.0175C6.88607 10.0175 6.86947 10.0673 7.29274 10.0673C7.71601 10.0673 7.69941 10.1586 8.12268 10.1586C8.3052 10.1586 8.42136 10.0953 8.52174 10.0406ZM8.21008 7.99666C8.34542 8.10135 8.4501 8.18232 8.33016 8.37421L8.33016 8.38251C8.20661 8.57815 8.09582 8.49594 7.94432 8.38352C7.85159 8.31471 7.74361 8.23459 7.60812 8.19993C7.41014 8.14928 7.30922 8.19314 7.19625 8.24224C7.10558 8.28164 7.00716 8.32442 6.84457 8.32442L4.63693 8.32442C4.49578 8.32442 4.38934 8.37526 4.2999 8.41798C4.15794 8.48579 4.05876 8.53317 3.93148 8.32442C3.79738 8.1045 3.86782 8.00938 3.97027 7.87102C4.02633 7.7953 4.09199 7.70663 4.13896 7.57747C4.27175 7.2123 4.27175 7.1957 4.40454 6.83052C4.53733 6.46535 4.57053 6.47365 4.71162 6.10847C4.85271 5.7433 4.92741 5.7682 5.0685 5.40302C5.20959 5.03785 5.21789 5.05445 5.35898 4.68098C5.50007 4.3075 5.47517 4.2992 5.60796 3.93403C5.74075 3.56886 5.76565 3.55226 5.93993 3.22028C6.0157 3.07596 5.98324 2.90027 5.95507 2.74776C5.91843 2.54945 5.88903 2.39034 6.11422 2.39034C6.34957 2.39034 6.32133 2.56703 6.28618 2.78694C6.26183 2.93927 6.23417 3.11234 6.28851 3.26178C6.4213 3.62695 6.58729 3.57715 6.72008 3.94233C6.85287 4.3075 6.91926 4.2826 7.05206 4.65608C7.18485 5.02955 7.14335 5.04615 7.27614 5.41132C7.40893 5.7765 7.38403 5.7931 7.51682 6.15827C7.64961 6.52345 7.59982 6.53174 7.74091 6.90522C7.882 7.27869 7.8073 7.31189 7.94009 7.67706C7.99613 7.83116 8.11127 7.92023 8.21008 7.99666Z" transform="translate(16.82532 16.08691)" id="Shape" fill="#FFFFFF" fill-rule="evenodd" stroke="none" />
    <path d="M6.59671 14.0074L6.59671 14.1319C6.59671 14.1319 6.59671 14.0489 6.59671 14.0489C6.59671 14.0489 6.59671 13.9991 6.59671 13.9991L6.59671 13.9991C6.33113 13.9991 6.07384 13.9328 5.83316 13.9162C5.59248 13.8996 5.3103 13.9162 5.06132 13.9162C4.81233 13.9162 4.51355 13.9908 4.23137 13.9162C3.94919 13.8415 3.78321 13.5759 3.55082 13.4929C3.31844 13.4099 2.97816 13.4929 2.72088 13.3684C2.50145 13.224 2.29336 13.0631 2.09843 12.887C1.885 12.7389 1.68505 12.5723 1.50087 12.3891C1.32689 12.1935 1.17131 11.9824 1.0361 11.7583C0.918645 11.5274 0.824132 11.2856 0.753921 11.0363C0.659521 10.7993 0.584579 10.555 0.529837 10.3059C0.45813 10.0631 0.399944 9.81651 0.355549 9.56726C0.286645 9.31869 0.231234 9.06657 0.189561 8.81201C0.189561 8.56303 0.189561 8.30575 0.189561 8.04017C0.189561 7.77459 0.189561 7.65839 0.189561 7.27662L0.189561 6.51308C0.189561 6.123 0.189561 6.123 0.189561 5.74123C0.189561 5.35946 0.0650697 5.35946 0.0650697 4.97769C0.0650697 4.59591 0.189561 4.58761 0.189561 4.20584C0.189561 3.82407 0.0816685 3.82407 0.0816685 3.44229C0.0816685 3.06052 0.247657 3.06052 0.247657 2.67875C0.247657 2.29698 0.247657 2.28868 0.247657 1.9069C0.247657 1.52513 0.189561 1.51683 0.189561 1.13506C0.189561 0.753285 -0.167314 0.595596 0.0982673 0.305117C0.363849 0.0146374 0.521537 0.305117 0.928208 0.305117C1.33488 0.305117 1.30168 0.305117 1.68346 0.305117C2.06523 0.305117 2.06523 0.379812 2.447 0.379812C2.82877 0.379812 2.91177 0.0810327 3.17735 0.379812C3.44293 0.67859 3.11095 0.736686 3.11095 1.11846C3.11095 1.50023 3.18565 1.50023 3.18565 1.882C3.18565 2.26378 3.18565 2.26378 3.18565 2.65385C3.18565 3.04392 3.27694 3.03562 3.27694 3.4174C3.27694 3.79917 3.16905 3.79917 3.16905 4.18094C3.16905 4.56272 3.22715 4.56272 3.22715 4.94449C3.22715 5.32626 3.06946 5.33456 3.06946 5.71633C3.06946 6.09811 3.06946 6.10641 3.06946 6.48818C3.06946 6.86995 3.18565 6.86995 3.18565 7.26002C3.18565 7.6501 3.18565 7.6418 3.18565 8.03187C3.18565 8.42194 3.18565 8.56303 3.18565 8.82031C3.18565 9.07759 3.24374 9.34318 3.28524 9.60046C3.34565 9.85372 3.42899 10.101 3.53422 10.3391C3.59381 10.5895 3.68296 10.8319 3.79981 11.0612C3.92017 11.2952 4.07394 11.5104 4.25627 11.7002C4.47954 11.8337 4.71956 11.937 4.97002 12.0073C5.19411 12.1069 5.40159 12.331 5.67547 12.3725C5.94884 12.4276 6.2266 12.4582 6.50541 12.4638C6.78631 12.4281 7.06386 12.3698 7.33535 12.2895C7.61302 12.2896 7.89036 12.2702 8.1653 12.2314C8.41069 12.1191 8.63965 11.9739 8.84585 11.7998C9.08014 11.6668 9.29283 11.4989 9.4766 11.3018C9.65151 11.0946 9.79932 10.8659 9.91647 10.6213C9.98332 10.349 10.025 10.0712 10.041 9.79134C10.0943 9.53647 10.1331 9.27877 10.1572 9.0195C10.2127 8.76189 10.2543 8.50146 10.2816 8.23935C10.2816 7.98207 10.1987 7.71649 10.1987 7.40941C10.1987 7.10233 10.1987 7.01934 10.1987 6.57947C10.1987 6.1396 10.2484 6.1811 10.2484 5.79103C10.2484 5.40096 10.2484 5.39266 10.2484 5.00258C10.2484 4.61251 10.1904 4.60421 10.1904 4.17264C10.1904 3.74107 10.1904 3.78257 10.1904 3.3842C10.1904 2.98583 10.2484 2.99413 10.2484 2.59575C10.2484 2.19738 10.3231 2.19738 10.3231 1.76581C10.3231 1.33424 10.2153 1.36744 10.2153 0.935872C10.2153 0.504303 10.0161 0.454506 10.3148 0.197224C10.6136 -0.0600573 10.7298 0.197224 11.1946 0.197224C11.6593 0.197224 11.817 -0.184548 12.1739 0.11423C12.5308 0.413009 12.1075 0.570698 12.1075 0.944171C12.1075 1.31764 12.2237 1.33424 12.2237 1.77411C12.2237 2.21398 12.0909 2.17248 12.0909 2.56256C12.0909 2.95263 12.1822 2.96093 12.1822 3.3925C12.1822 3.82407 12.0162 3.78257 12.0162 4.17264C12.0162 4.56272 12.1241 4.57101 12.1241 5.00258C12.1241 5.43415 12.0328 5.40096 12.0328 5.79103C12.0328 6.1811 12.0328 6.1894 12.0328 6.62097C12.0328 7.05254 12.1573 7.01934 12.1573 7.45091L12.1573 7.45091C12.1573 7.70819 12.0328 7.96547 12.0245 8.21446C12.0162 8.46344 11.9415 8.72902 11.9249 8.978C11.9083 9.22698 11.9249 9.49257 11.8668 9.74155C11.8197 9.99095 11.7587 10.2375 11.6842 10.4802C11.6261 10.7275 11.554 10.9713 11.4685 11.2105C11.3534 11.4341 11.2202 11.6479 11.0701 11.8496C10.96 12.076 10.8265 12.2902 10.6717 12.4887C10.5057 12.6795 10.4144 12.9617 10.207 13.1111C9.97591 13.2348 9.73427 13.3376 9.4849 13.4182C9.27376 13.5693 9.04865 13.7 8.81265 13.8083C8.56599 13.8885 8.31348 13.9495 8.0574 13.9908C7.82502 14.0406 7.54284 13.8747 7.27726 13.8996C7.01168 13.9245 6.86229 14.0074 6.59671 14.0074Z" transform="translate(30.99963 15.81519)" id="Path" fill="#FFFFFF" stroke="none" />
    <path d="M12.308 10.1972C12.3305 10.4457 12.3305 10.6957 12.308 10.9442C12.1496 11.4285 11.9019 11.8789 11.5777 12.2721C11.4224 12.4619 11.2471 12.6344 11.0548 12.7866C10.8565 12.9374 10.6455 13.0707 10.4241 13.185C10.2285 13.3332 10.0202 13.4637 9.80161 13.5751C9.58582 13.6747 9.40323 13.9153 9.15425 13.99C8.90527 14.0647 8.62309 13.9236 8.37411 13.99C8.12512 14.0564 7.92594 14.2805 7.66866 14.3137C7.41137 14.3469 7.16239 14.3137 6.90511 14.3137C6.64783 14.3137 6.40715 14.3718 6.14986 14.3718C5.89258 14.3718 5.627 14.3718 5.36972 14.322C5.11182 14.2694 4.85694 14.2029 4.60617 14.1228C4.34889 14.073 4.10821 13.9817 3.85923 13.9153C3.61024 13.849 3.35296 13.7743 3.11228 13.683C2.8716 13.5917 2.59772 13.5585 2.36533 13.4506C2.13211 13.335 1.90496 13.2076 1.68478 13.0688C1.46889 12.9225 1.2611 12.7646 1.06232 12.5957C0.860006 12.4344 0.668694 12.2597 0.489665 12.0729C0.308004 11.8925 0.144034 11.6952 0 11.4836C0.143618 11.2815 0.301723 11.0901 0.473066 10.911C0.647354 10.7616 0.921235 10.6869 1.12042 10.5209C1.31961 10.3549 1.4524 10.1059 1.62668 9.95653C1.82415 9.83294 2.02928 9.72206 2.24084 9.62455C2.36271 9.86198 2.4985 10.092 2.64751 10.3134C2.8052 10.5292 3.02929 10.7118 3.22017 10.9276C3.41106 11.1433 3.68494 11.2429 3.89242 11.4255C4.095 11.613 4.31139 11.785 4.53978 11.9401C4.76832 12.0938 5.00993 12.2271 5.26183 12.3385C5.73617 12.6543 6.30449 12.7978 6.87191 12.7451C7.12063 12.7614 7.37014 12.7614 7.61886 12.7451C7.86691 12.6928 8.10888 12.6149 8.34091 12.5127C8.57078 12.4357 8.78869 12.3267 8.98826 12.1891C9.16836 12.0274 9.30771 11.8255 9.39493 11.5998C9.54438 11.4072 9.63901 11.1778 9.66881 10.9359C9.651 10.6556 9.55623 10.3856 9.39493 10.1557C9.2866 9.88557 9.129 9.63791 8.93017 9.42537C8.69597 9.25944 8.44898 9.11236 8.19152 8.9855C7.95914 8.8693 7.65206 8.85271 7.36158 8.73651C7.0711 8.62032 6.84701 8.56223 6.53164 8.47093C6.21626 8.37964 6.02537 8.24685 5.7017 8.16385C5.37802 8.08086 5.15393 8.05596 4.87175 7.98957C4.58957 7.92317 4.31569 7.91487 4.04181 7.84848C3.76793 7.78208 3.51895 7.64099 3.26997 7.5663C3.02099 7.4916 2.7637 7.32561 2.52302 7.22602C2.25786 7.15 1.99737 7.05855 1.74288 6.95214C1.50219 6.80275 1.3777 6.51227 1.18682 6.32968C1.00448 6.13992 0.850715 5.92465 0.730348 5.69063C0.567609 5.47045 0.438912 5.22704 0.348575 4.96858C0.337776 4.69125 0.351663 4.41351 0.390072 4.13864C0.363202 3.86265 0.363202 3.58469 0.390072 3.3087C0.456546 3.05281 0.551185 2.80508 0.672252 2.57005C0.782911 2.33517 0.9223 2.11493 1.08722 1.9144C1.20043 1.67205 1.34557 1.44596 1.51879 1.24215C1.72085 1.06401 1.93738 0.902999 2.16615 0.760779C2.41024 0.649624 2.66279 0.558042 2.92139 0.486899C3.15989 0.359801 3.40666 0.248891 3.66004 0.154922C3.92042 0.0972258 4.18357 0.0529042 4.44848 0.0221318C4.70577 0.0221318 4.97965 0.0221318 5.27843 0.0221318C5.5772 0.0221318 5.80129 0.0221318 6.10837 0.0221318C6.41544 0.0221318 6.64783 -0.0276647 6.93831 0.0221318C7.22879 0.0719282 7.47777 0.0636288 7.76825 0.105126C8.02779 0.164992 8.28291 0.242636 8.53179 0.337509C8.77832 0.431856 9.01938 0.539917 9.25384 0.661186C9.51393 0.729425 9.76904 0.815387 10.0174 0.918468C10.2415 1.04296 10.3909 1.29194 10.6066 1.45793C11.0536 1.76718 11.4754 2.11129 11.8682 2.48706C11.7271 2.57835 11.4366 2.71114 11.1959 2.86883C10.9552 3.02652 10.8639 3.20911 10.6564 3.3419C10.449 3.47469 10.1751 3.48299 9.98419 3.59918C9.79331 3.71537 9.53602 3.93945 9.36174 4.03905C9.24554 3.78177 9.23724 3.43319 9.10445 3.20911C8.93212 2.99525 8.73735 2.80048 8.52349 2.62815C8.35034 2.4147 8.15255 2.22247 7.93424 2.05549C7.68914 1.92895 7.4301 1.83147 7.16239 1.76501C6.88619 1.74273 6.60865 1.74273 6.33245 1.76501C6.08347 1.76501 5.81789 1.76501 5.50251 1.76501C5.20717 1.73676 4.90981 1.73676 4.61447 1.76501C4.32742 1.80365 4.04772 1.88477 3.78453 2.00569C3.51965 2.15518 3.29694 2.36933 3.13718 2.62815C2.97286 2.87455 2.88085 3.16206 2.8716 3.45809C2.87414 3.72484 2.93356 3.98797 3.04588 4.22993C3.13645 4.48367 3.28742 4.71155 3.48575 4.89389C3.70372 5.04359 3.93752 5.16884 4.1829 5.26736C4.39039 5.36695 4.68087 5.33376 4.95475 5.42505C5.22863 5.51634 5.39462 5.67403 5.6685 5.74873C5.94238 5.82342 6.18306 5.74873 6.49844 5.81512L6.49844 5.81512C6.76402 5.88982 6.96321 6.1471 7.21219 6.21349C7.46117 6.27989 7.78485 6.172 8.04213 6.21349C8.29941 6.25499 8.4986 6.53717 8.73928 6.62016C8.97996 6.70316 9.25384 6.76955 9.48623 6.86915C9.72273 6.97741 9.95274 7.09934 10.1751 7.23432C10.4217 7.32208 10.6628 7.42463 10.8971 7.5414C11.1024 7.70254 11.289 7.88628 11.4532 8.08916C11.6359 8.27133 11.7923 8.47803 11.918 8.70332C12.0493 8.92962 12.1497 9.17245 12.2167 9.42537C12.2731 9.67891 12.3037 9.93751 12.308 10.1972Z" transform="translate(44.95789 15.6167)" id="Path" fill="#FFFFFF" stroke="none" />
    <path d="M5.39228 3.60194C5.32022 3.85487 5.22865 4.10183 5.1184 4.34059C5.02901 4.57053 4.90594 4.7859 4.75323 4.97965C4.595 5.17364 4.40737 5.34166 4.19717 5.47761C3.97601 5.6015 3.73854 5.6937 3.49172 5.75149C3.25934 5.80129 3.00205 5.6602 2.75307 5.6602C2.54249 5.70154 2.3286 5.72377 2.11402 5.72659C1.91229 5.66386 1.7176 5.58042 1.53306 5.47761C1.33674 5.39992 1.15014 5.29965 0.976997 5.17883C0.838462 5.01875 0.718723 4.84331 0.620122 4.65597C0.472148 4.50388 0.343884 4.3338 0.238349 4.14971C0.1701 3.94992 0.120099 3.74436 0.0889593 3.53555C0.0725879 3.32839 0.0725879 3.12026 0.0889593 2.91309C0.0889593 2.68901 -0.0272324 2.47322 0.0059652 2.27404C0.0398833 2.05956 0.0926507 1.84849 0.163654 1.64328C0.274827 1.46081 0.40563 1.29104 0.553726 1.13702C0.684945 0.972518 0.838599 0.827245 1.01019 0.70545C1.16457 0.570241 1.33794 0.458393 1.52476 0.373474C1.71061 0.277336 1.90893 0.207506 2.11402 0.165988C2.31489 0.0883249 2.5236 0.0326703 2.73647 0C2.98296 0.0211495 3.22566 0.0741539 3.45852 0.157689C3.69003 0.234547 3.90836 0.346511 4.10588 0.489665C4.31336 0.622456 4.60384 0.663953 4.76983 0.84654C4.90828 1.0558 5.01981 1.28166 5.1018 1.51879C5.20236 1.73053 5.27757 1.95338 5.32589 2.18275C5.15912 2.30589 4.96018 2.37797 4.75323 2.39023C4.55206 2.44412 4.34025 2.44412 4.13907 2.39023C4.08631 2.18842 4.01691 1.99132 3.93159 1.80097C3.90339 1.59742 3.83873 1.40062 3.7407 1.22001C3.66172 1.02431 3.52946 0.85467 3.35893 0.730348C3.16504 0.636108 2.95204 0.587829 2.73647 0.589258C2.4879 0.611532 2.25404 0.716767 2.07252 0.888037C1.88993 1.02913 1.63265 1.15362 1.52476 1.4026C1.43573 1.63715 1.37987 1.88296 1.35877 2.13295C1.30299 2.3784 1.26965 2.62841 1.25918 2.8799C1.25918 3.13718 1.45006 3.37786 1.49156 3.61024C1.51391 3.84844 1.56691 4.08276 1.64925 4.30739C1.72134 4.54165 1.85287 4.75323 2.03102 4.92155C2.22746 5.09392 2.47562 5.1961 2.73647 5.21203C2.95201 5.1979 3.16045 5.12937 3.34233 5.01284C3.51562 4.90178 3.66284 4.75456 3.7739 4.58128C3.88492 4.40979 3.96889 4.22224 4.02288 4.02521C4.08029 3.82485 4.11645 3.61899 4.13077 3.41106C4.43785 3.35296 4.43785 3.55215 4.74493 3.54385C5.05201 3.53555 5.135 3.43596 5.39228 3.60194Z" transform="translate(59.09412 17.39014)" id="Path" fill="#FFFFFF" stroke="none" />
    <path d="M5.7017 3.51038C5.75561 3.30112 5.78897 3.08708 5.80129 2.87133C5.81618 2.65274 5.81062 2.43323 5.78469 2.21568C5.70515 2.01235 5.60504 1.81768 5.48591 1.63472C5.41675 1.42611 5.3249 1.22573 5.21203 1.03716C5.0551 0.887689 4.87933 0.759346 4.68917 0.655387C4.53075 0.51238 4.35511 0.389707 4.1663 0.290213C3.98004 0.176266 3.78259 0.0817119 3.57705 0.00803267C3.46036 -0.0153049 3.3358 0.016482 3.20926 0.0487715C3.1108 0.0738967 3.01115 0.0993262 2.91309 0.0993262C2.70057 0.0787755 2.48656 0.0787755 2.27404 0.0993262C2.05773 0.125961 1.84399 0.170375 1.63498 0.232117C1.45611 0.354198 1.28936 0.493158 1.13702 0.647087C0.973953 0.782494 0.826426 0.935587 0.697151 1.10355C0.572084 1.27245 0.468904 1.4565 0.390072 1.65132C0.287165 1.83672 0.209036 2.03483 0.157689 2.24057C0.0837655 2.44775 0.030935 2.66185 0 2.87963C0.00665256 3.09759 0.0344476 3.31439 0.0829941 3.52698C0.124491 3.74277 0.323677 3.90046 0.414971 4.09134C0.476955 4.29205 0.563362 4.48437 0.672252 4.664C0.796713 4.84093 0.944697 5.00009 1.11212 5.13707C1.29467 5.24598 1.48974 5.33238 1.69308 5.39435C1.87561 5.50977 2.07047 5.60442 2.27404 5.67653C2.48654 5.69756 2.70059 5.69756 2.91309 5.67653C3.12836 5.69762 3.34518 5.69762 3.56045 5.67653C3.77623 5.63503 3.92562 5.46075 4.12481 5.36945C4.32399 5.27816 4.58957 5.31136 4.75556 5.17857C4.93118 5.04301 5.08999 4.88699 5.22863 4.7138C5.35461 4.53517 5.46039 4.3431 5.54401 4.14114C5.61501 3.93593 5.66778 3.72486 5.7017 3.51038ZM4.41529 2.26547C4.43222 2.46707 4.43222 2.66973 4.41529 2.87133C4.39422 3.07082 4.35533 3.26803 4.2991 3.46059C4.2989 3.66435 4.27664 3.86748 4.2327 4.06644C4.15959 4.25806 4.06195 4.43939 3.94222 4.60591C3.81644 4.77154 3.65832 4.9099 3.47745 5.01258C3.28879 5.10257 3.08017 5.14258 2.8716 5.12877C2.67431 5.10066 2.48809 5.02044 2.33213 4.89639C2.15865 4.81502 2.00553 4.69593 1.88397 4.54781C1.76777 4.39842 1.54369 4.28223 1.469 4.08304C1.41306 3.88549 1.37965 3.68225 1.3694 3.47719C1.35251 3.27559 1.35251 3.07293 1.3694 2.87133C1.35353 2.66415 1.35353 2.45606 1.3694 2.24887C1.43138 2.05341 1.51782 1.86658 1.62668 1.69281C1.68709 1.49936 1.77365 1.31506 1.88397 1.14505C2.02108 0.998037 2.18803 0.882021 2.37363 0.804776C2.54792 0.705183 2.71391 0.539195 2.92969 0.539195C3.14548 0.539195 3.30317 0.738381 3.47745 0.837974C3.64408 0.926512 3.78872 1.0513 3.90072 1.20315C4.03472 1.34899 4.14152 1.51764 4.2161 1.70111C4.30588 1.88014 4.3728 2.06975 4.41529 2.26547Z" transform="translate(59.1167 23.79736)" id="Shape" fill="#FFFFFF" fill-rule="evenodd" stroke="none" />
    <path d="M0 0.705554C0.0163131 0.526937 0.0992773 0.361008 0.232384 0.240787C0.351593 0.10059 0.521942 0.0139213 0.70545 0.000104465C0.89484 -0.00304427 1.0785 0.0650871 1.22001 0.190991C1.34917 0.332468 1.42541 0.51427 1.4358 0.705554C1.4358 0.888141 1.22001 0.987734 1.10382 1.11222C0.98763 1.23672 0.879738 1.4027 0.70545 1.4027C0.527856 1.38465 0.364206 1.29836 0.248982 1.16202C0.110229 1.04767 0.0210244 0.884124 0 0.705554Z" transform="translate(65.89734 28.07129)" id="Path" fill="#FFFFFF" stroke="none" />
    <path d="M64.918 0.202302C65.9503 -0.116025 67.0622 -0.0571967 68.0552 0.36829L68.9681 0.65877L68.9681 1.58C68.9836 3.00461 68.9171 4.42894 68.7689 5.8459C68.5781 7.22579 68.3009 8.59234 67.939 9.93751C67.5975 11.2847 67.1734 12.6096 66.6692 13.9046C66.1936 15.2096 65.6393 16.4845 65.0093 17.7224C64.3655 18.9569 63.6477 20.1515 62.8597 21.2994C62.0539 22.432 61.178 23.513 60.2371 24.5362C59.3012 25.5617 58.3034 26.529 57.2493 27.4327L56.8593 27.7812C55.9692 28.6043 55.0296 29.372 54.0458 30.0802C53.0788 30.6937 52.0755 31.2481 51.0414 31.7401L50.4189 32.0803C49.2001 32.7434 47.9418 33.331 46.651 33.8398L46.3273 33.9643C45.1476 34.441 43.939 34.8429 42.7088 35.1677C41.4502 35.4518 40.1752 35.657 38.891 35.7819L37.9947 35.8898C36.8176 36.0569 35.6313 36.1511 34.4426 36.172C33.3034 36.1515 32.1668 36.0572 31.0398 35.8898L30.1435 35.8234C28.8348 35.6888 27.5352 35.4782 26.251 35.1926C25.2311 34.9148 24.2303 34.571 23.255 34.1635L22.3337 33.7983L21.8606 33.624C20.7115 33.2156 19.589 32.7361 18.4994 32.1882C17.3494 31.5594 16.2406 30.8581 15.1796 30.0885L14.9887 29.9557C13.8303 29.1792 12.7215 28.331 11.669 27.4161L11.088 26.9015C10.2094 26.1778 9.37779 25.3988 8.59819 24.5694C7.67012 23.5324 6.80542 22.4404 6.00877 21.2994C5.35102 20.3124 4.75775 19.2839 4.2327 18.2203L3.95052 17.6726C3.31859 16.4385 2.76422 15.1662 2.29064 13.8631C1.26621 11.2843 0.593454 8.57929 0.290479 5.821C0.110714 4.44483 0.0137129 3.0591 0 1.6713L0 0.783261L0.821642 0.426386C1.74754 0.0501606 2.7721 -0.00821887 3.73474 0.260398C4.18839 0.371232 4.65374 0.426963 5.12074 0.426386L9.02976 0.426386C9.11838 0.426386 9.20239 0.426462 9.28232 0.426533C10.0408 0.427214 10.4308 0.427565 10.8888 0.359991C11.3951 0.285296 11.918 0.285296 12.9305 0.285296C13.943 0.285296 14.4825 0.293596 14.9555 0.343392C15.4286 0.393189 15.9017 0.393189 16.8395 0.393189C17.7773 0.393189 18.2255 0.393189 18.7235 0.335093C19.2214 0.276997 19.736 0.276997 20.7485 0.276997L24.6658 0.276997C25.3591 0.268847 26.0521 0.304884 26.7407 0.384889C27.9577 0.506587 29.1838 0.506587 30.4007 0.384889C31.0897 0.308899 31.7825 0.272874 32.4756 0.276997C33.1658 0.271635 33.8557 0.304885 34.5422 0.37659C35.1517 0.436112 35.7639 0.463814 36.3763 0.459584L44.1944 0.459584C45.1405 0.459584 45.5887 0.459584 46.0866 0.409787C46.5846 0.359991 47.1158 0.359991 48.1034 0.359991L59.8222 0.359991C60.4407 0.356819 61.0589 0.392855 61.6729 0.467883C62.3113 0.561442 62.96 0.561442 63.5984 0.467883C64.0438 0.409546 64.4847 0.320812 64.918 0.202302ZM30.3343 33.317C29.1485 33.1988 27.9706 33.0103 26.8071 32.7526L27.1972 32.4621C27.7734 32.0607 28.3275 31.6285 28.8571 31.1674C29.6289 30.4869 29.9941 30.1134 30.3509 29.7565C30.7078 29.3996 31.0066 29.0926 31.7121 28.4701C32.4175 27.8476 32.8076 27.524 33.1727 27.2169C33.5379 26.9098 33.9446 26.5861 34.6998 25.9222C35.4551 25.2582 35.812 24.9262 36.1771 24.586L37.6129 23.2996C38.3267 22.6771 38.7002 22.3783 39.0736 22.0878C39.4471 21.7974 39.9036 21.4571 40.6339 20.7848C41.3643 20.1126 41.7626 19.764 42.1278 19.4154C42.493 19.0669 42.8084 18.7515 43.5221 18.1207C44.2359 17.49 44.6176 17.1663 44.9828 16.8592L46.4767 15.5562C47.1988 14.9255 47.5722 14.6184 47.9457 14.3196C48.3192 14.0208 48.7258 13.6888 49.4811 13.0249C50.2363 12.3609 50.6181 11.9626 50.975 11.5974C51.3319 11.2322 51.6306 10.9251 52.3278 10.311L53.8051 8.99968L55.2741 7.67177C55.9878 7.04102 56.3613 6.74224 56.7348 6.45176C57.1083 6.16128 57.5647 5.821 58.2951 5.14875C59.0254 4.4765 59.3906 4.19432 59.7641 3.88724L60.9177 2.89961L61.3825 2.94111C62.208 3.06156 63.0467 3.06156 63.8723 2.94111C64.4334 2.87806 64.9885 2.76982 65.5322 2.61743C65.8104 2.52653 66.1029 2.48716 66.3953 2.50124C66.3953 3.28138 66.3455 4.11962 66.2708 4.93297C65.9222 5.22345 65.5488 5.53052 64.8765 6.12808C64.2043 6.72564 63.7561 7.15721 63.4075 7.51408C63.0589 7.87096 62.7602 8.16974 62.063 8.78389C61.6127 9.18449 61.1418 9.56125 60.6521 9.91261C60.0945 10.3082 59.5598 10.7349 59.0503 11.1907L56.187 13.7303C55.4484 14.3777 55.0915 14.7014 54.7263 15.0333C54.3611 15.3653 54.0209 15.6724 53.3071 16.3032C52.5934 16.9339 52.2116 17.2825 51.8547 17.6311C51.4978 17.9796 51.1576 18.2784 50.4438 18.9009L49.008 20.1209C48.6263 20.4363 48.2528 20.7516 47.5224 21.399C46.7921 22.0464 46.4186 22.4032 46.0617 22.7518C45.7049 23.1004 45.3895 23.4075 44.6923 24.0216C43.9952 24.6358 43.6466 24.8516 43.2731 25.1835C42.8997 25.5155 42.4432 25.7977 41.7045 26.4616C40.9659 27.1256 40.609 27.441 40.2521 27.7812C39.8953 28.1215 39.5633 28.4286 38.8495 29.0511C38.1358 29.6735 37.7374 30.0802 37.3888 30.4205C37.0403 30.7607 36.7332 31.0678 36.036 31.682C35.3389 32.2961 34.9737 32.57 34.6085 32.8854C34.2434 33.2008 34.0442 33.3335 33.6375 33.7153C32.874 33.7153 32.1021 33.5742 31.3552 33.4746L30.3343 33.317ZM3.20357 2.75022C3.83614 2.90697 4.48564 2.98502 5.13734 2.9826L5.96728 2.9826L5.56061 3.30628C5.16223 3.63826 4.73066 3.96194 3.98372 4.64249C3.42766 5.12385 3.07908 5.43093 2.7803 5.67991L2.7803 5.48903C2.65581 4.59269 2.55622 3.63826 2.48982 2.69213C2.7293 2.677 2.9697 2.69656 3.20357 2.75022ZM8.79738 20.901C9.30364 21.5401 9.8431 22.1957 10.4573 22.8929L10.4573 22.8846C10.7892 23.2332 11.1046 23.5568 11.4781 23.8805C11.9263 23.4822 12.1835 23.2083 12.4491 22.9344C12.9103 22.4197 13.4008 21.9319 13.9181 21.4737C14.6568 20.7931 15.1132 20.4612 15.4867 20.1624C15.8602 19.8636 16.2087 19.6063 16.9557 18.9424C17.7026 18.2784 18.101 17.9215 18.4745 17.6311C18.848 17.3406 19.2131 17.0252 19.9269 16.3945C20.6406 15.7637 20.9477 15.44 21.3129 15.0914C21.6781 14.7429 22.0515 14.3611 22.8151 13.6971C23.5786 13.0332 23.9936 12.6929 24.3671 12.3941C24.7405 12.0954 25.1223 11.7883 25.8361 11.1575C26.5498 10.5268 26.8652 10.2197 27.2221 9.86282C27.5789 9.50594 27.9773 9.12417 28.7243 8.46022C29.4712 7.79626 29.853 7.48089 30.2431 7.15721L31.7203 5.8874C32.459 5.20685 32.9155 4.87487 33.2889 4.57609C33.6624 4.27731 34.0442 3.98683 34.7579 3.35608L35.231 2.94111C34.8575 2.92451 34.567 2.86641 34.2932 2.86641C33.6809 2.80695 33.0659 2.77924 32.4507 2.78342C31.8381 2.78092 31.2258 2.8114 30.6165 2.87471C30.2099 2.91621 29.7949 2.97431 29.1226 2.97431C28.7824 3.33118 28.5417 3.58016 28.2927 3.84574C27.8016 4.37833 27.2806 4.88264 26.7324 5.35624C25.9855 6.04509 25.5456 6.39366 25.1555 6.71734C24.7654 7.04102 24.3671 7.37299 23.6118 8.03695C22.8566 8.7009 22.4997 9.03288 22.1179 9.38975C21.7362 9.74662 21.4042 10.0869 20.5742 10.7924C19.7443 11.4978 19.3127 11.8381 18.9144 12.1452C18.516 12.4522 18.1425 12.7344 17.3956 13.3901C16.6486 14.0457 16.3083 14.3777 15.9266 14.7429C15.5448 15.108 15.2045 15.4732 14.3746 16.1704L11.2872 18.8677C10.4573 19.5731 10.0423 19.9051 9.62732 20.2288L8.79738 20.901ZM3.27143 8.55857C3.3209 8.79706 3.37875 9.04353 3.46915 9.28186C3.78369 10.5048 4.17171 11.7076 4.63107 12.8838L4.77216 12.7593C5.14564 12.4107 5.52741 12.0539 6.28265 11.3982C7.0379 10.7426 7.38648 10.4106 7.76825 10.0703C8.15002 9.73003 8.53179 9.36485 9.28704 8.7092C10.0423 8.05354 10.449 7.72157 10.7892 7.38129C11.1295 7.04102 11.5279 6.65924 12.2748 6.00359C13.0218 5.34794 13.3952 5.00766 13.7604 4.67568L15.2958 3.31458L15.8353 2.84151L14.8393 2.84151C14.3746 2.79172 13.8849 2.79172 12.9554 2.79172C12.0258 2.79172 11.5777 2.85811 11.0963 2.85811C10.7311 2.88301 10.3992 2.92451 9.9012 2.92451C9.61072 3.16519 9.26214 3.45567 8.72268 3.92044C7.97573 4.60099 7.52757 4.94956 7.14579 5.25664C6.76402 5.56372 6.40715 5.8459 5.6436 6.51815C4.88005 7.19041 4.48998 7.52238 4.09991 7.85436L3.27143 8.55857ZM3.27143 8.55857L3.26997 8.55981L3.26997 8.55151L3.27143 8.55857ZM6.14986 16.494C5.95068 16.1123 5.78469 15.7222 5.6104 15.3321L6.44034 14.6018C6.80552 14.2698 7.17899 13.9295 7.91764 13.2739C8.65629 12.6182 9.06296 12.2613 9.43643 11.9211C9.8099 11.5808 10.1751 11.2488 10.922 10.5932L12.4491 9.23206L13.943 7.90416C14.7066 7.2402 15.08 6.89993 15.4535 6.55965C15.827 6.21938 16.2005 5.8874 16.964 5.22345C17.7275 4.55949 18.0927 4.24412 18.4745 3.92044C18.8563 3.59676 19.1882 3.32288 19.7941 2.79172L25.8278 2.79172C25.6369 2.9826 25.4128 3.19009 25.1057 3.46397C24.3422 4.12792 23.9521 4.4599 23.562 4.78358C23.172 5.10725 22.7321 5.45583 21.9851 6.14468C21.2382 6.83353 20.8232 7.19041 20.4414 7.53898C20.0597 7.88756 19.7028 8.22783 18.9476 8.89179C18.1923 9.55574 17.7939 9.84622 17.4288 10.1616C17.0636 10.477 16.5988 10.8172 15.7689 11.5227C14.9389 12.2281 14.5987 12.5767 14.2169 12.9419C13.8351 13.3071 13.4948 13.639 12.7479 14.2947L9.62732 16.992C8.88867 17.6477 8.4986 17.9547 8.10023 18.2618L7.41967 18.8179C7.0877 18.2452 6.76402 17.656 6.44034 17.0418L6.14986 16.494ZM13.2791 25.5487C13.6774 25.1752 13.9347 24.9096 14.1837 24.6524C14.6093 24.198 15.0581 23.7659 15.5282 23.3577C16.2502 22.7269 16.6237 22.4281 16.9972 22.1376C17.3707 21.8472 17.8271 21.4986 18.5658 20.8263C19.3044 20.1541 19.6696 19.8719 20.0431 19.5565L21.5785 18.2535C22.342 17.5813 22.7155 17.2161 23.0724 16.8592C23.4292 16.5023 23.7529 16.1953 24.4667 15.5645C25.1804 14.9338 25.5622 14.6267 25.9357 14.3196C26.3091 14.0125 26.7241 13.6888 27.4876 13.0166C28.2512 12.3443 28.6247 11.9709 28.9815 11.6223C29.3384 11.2737 29.6621 10.95 30.3758 10.3193C31.0896 9.68853 31.5378 9.33165 31.8697 9.04947C32.2017 8.76729 32.6333 8.41042 33.3885 7.74647C34.1438 7.08251 34.4758 6.84183 34.8575 6.52645C35.2393 6.21108 35.6875 5.8874 36.4261 5.21515L39.0072 2.94111L44.1778 2.94111C45.1737 2.94111 45.6883 2.94111 46.1945 2.89131L46.2692 2.89131L45.8376 3.26478C45.1156 3.89554 44.7421 4.19432 44.3687 4.4931C43.9952 4.79188 43.5387 5.12385 42.8001 5.7961C42.0614 6.46836 41.6464 6.87503 41.2896 7.2402C40.866 7.69665 40.4172 8.1289 39.9451 8.53491C39.223 9.17397 38.8495 9.48104 38.4761 9.78812C38.1026 10.0952 37.6959 10.4272 36.9407 11.0911C36.1854 11.7551 35.8452 12.029 35.4717 12.3277C35.0982 12.6265 34.6832 12.9668 33.928 13.639C33.1727 14.3113 32.7827 14.6765 32.4258 15.025C32.0689 15.3736 31.7452 15.6973 31.0315 16.3198L29.5459 17.6394L28.0769 18.9424L26.5913 20.262L25.1223 21.5567C24.392 22.1957 24.0185 22.5111 23.645 22.8265C23.2715 23.1419 22.8815 23.4656 22.1345 24.1295C21.3876 24.7935 21.0639 25.1005 20.6904 25.391C20.317 25.6815 19.8605 26.0218 19.1218 26.694L17.6362 28.0136L17.1632 28.4452L16.5241 28.0053L16.3332 27.8808C15.2723 27.1613 14.2526 26.3827 13.2791 25.5487ZM19.321 29.8146L19.5451 29.9557L19.5783 29.9557C20.5695 30.4481 21.5894 30.8805 22.6325 31.2504L23.1056 31.4247L24.0517 31.7982L24.1098 31.7401C24.6371 31.2762 25.1914 30.8439 25.7697 30.4454C26.2705 30.0829 26.7525 29.6951 27.2138 29.2834C27.9192 28.6693 28.218 28.3539 28.5749 27.997C28.9317 27.6402 29.3218 27.2584 30.0688 26.5944C30.8157 25.9305 31.2141 25.5985 31.5876 25.2914C31.961 24.9843 32.3345 24.6856 33.0566 24.0465C33.7786 23.4075 34.1272 23.0921 34.4924 22.7518C34.8575 22.4115 35.2393 22.0795 35.9697 21.4156C36.7 20.7516 37.1565 20.4031 37.5299 20.1209C37.9034 19.8387 38.252 19.5482 38.9657 18.9175C39.6795 18.2867 40.0032 17.9713 40.3683 17.6228C40.7335 17.2742 41.0987 16.9173 41.8539 16.2534L43.3478 14.9587L44.8168 13.6888C45.6468 13.0166 46.0119 12.6846 46.3854 12.3858C46.7589 12.0871 47.149 11.7634 47.8461 11.1492C48.5433 10.5351 48.8503 10.228 49.1989 9.86282C49.5475 9.49764 49.921 9.12417 50.6928 8.44362L52.1535 7.14891C52.5187 6.84183 52.9419 6.49326 53.6723 5.8293C54.4026 5.16535 54.8591 4.81677 55.2326 4.5263C55.6061 4.23582 55.9795 3.93704 56.6933 3.31458L57.1497 2.91621L50.1782 2.91621L49.0163 3.90384C48.6428 4.21922 48.2777 4.5097 47.539 5.18195C46.8004 5.8542 46.3522 6.18618 45.9704 6.48496C45.5887 6.78374 45.2152 7.08251 44.5014 7.71327C44.0299 8.11696 43.5811 8.54642 43.1569 8.99968C42.6678 9.51043 42.1496 9.99259 41.6049 10.4438C40.8497 11.116 40.443 11.448 40.0696 11.7551C39.6961 12.0622 39.3641 12.3277 38.6006 13C37.837 13.6722 37.4303 14.0125 37.0569 14.3113C36.6834 14.6101 36.3099 14.9172 35.5879 15.5479C34.8658 16.1787 34.5422 16.4857 34.1853 16.8426C33.8284 17.1995 33.4632 17.5647 32.6914 18.2369L31.2224 19.5399L29.7368 20.8512L28.2595 22.1625C27.8943 22.4862 27.5291 22.8016 26.7822 23.4656C26.0353 24.1295 25.6286 24.4532 25.2634 24.7769C24.8982 25.1005 24.5082 25.3661 23.7778 26.0384C23.0475 26.7106 22.591 27.0426 22.2175 27.3414C21.8441 27.6402 21.4623 27.9306 20.7485 28.5614L19.321 29.8146ZM62.9344 16.2451C63.4599 15.1797 63.9308 14.0883 64.3453 12.9751C64.8093 11.7707 65.2029 10.5403 65.5238 9.29016C65.5571 9.14907 65.6317 8.99138 65.6317 8.83369C65.4824 8.98308 65.3413 9.11587 65.2168 9.25696C64.8599 9.60553 64.503 9.97901 63.7395 10.643C63.2307 11.0962 62.6989 11.5228 62.146 11.9211C61.6517 12.2698 61.1778 12.6466 60.7268 13.0498L57.8303 15.5977C57.1082 16.2285 56.7597 16.5438 56.4028 16.8675C56.0459 17.1912 55.6642 17.5315 54.9504 18.1622C54.2367 18.793 53.8964 19.1167 53.5395 19.4403C53.1826 19.764 52.8175 20.096 52.0871 20.7433C51.3568 21.3907 50.975 21.7227 50.6098 22.0215C50.2446 22.3202 49.8629 22.6439 49.1657 23.2581C48.4686 23.8722 48.1449 24.1627 47.7963 24.5196C47.4477 24.8764 47.066 25.2167 46.3356 25.8807C45.6053 26.5446 45.1488 26.8766 44.7753 27.1588C44.4019 27.441 44.0533 27.6982 43.3478 28.3207C42.6424 28.9432 42.3187 29.2502 41.9535 29.5905C41.5884 29.9308 41.1485 30.296 40.4928 30.9101C39.8372 31.5243 39.472 31.8563 39.1483 32.1799C38.8246 32.5036 38.4761 32.8439 37.837 33.4082L38.5923 33.317C39.7758 33.2062 40.9512 33.0205 42.1112 32.7609C43.1316 32.4889 44.1348 32.1564 45.1156 31.765L45.3729 31.5326C45.8855 31.0796 46.423 30.6557 46.983 30.2628C47.4773 29.9141 47.9511 29.5372 48.4022 29.134C48.8582 28.7424 49.2906 28.3239 49.6969 27.8808C50.1563 27.3722 50.6469 26.8927 51.1659 26.445C51.6737 25.9932 52.2056 25.5694 52.7594 25.1752C53.2513 24.8204 53.7249 24.4409 54.1786 24.0382L55.6061 22.7684L57.0585 21.4737C57.7971 20.8263 58.1706 20.511 58.5523 20.2039L59.9881 18.9673C60.6936 18.3531 61.0007 18.046 61.3575 17.6975C61.7144 17.3489 62.0713 17.0086 62.8182 16.353L62.9344 16.2451Z" transform="translate(0 33.82813)" id="Shape" fill="#FFFFFF" fill-rule="evenodd" stroke="none" />
  </g>
</svg>